M48
; DRILL file {KiCad (5.1.12)-1} date 12/10/21 17:41:53
; FORMAT={-:-/ absolute / metric / decimal}
; #@! TF.CreationDate,2021-12-10T17:41:53+01:00
; #@! TF.GenerationSoftware,Kicad,Pcbnew,(5.1.12)-1
; #@! TF.FileFunction,Plated,1,2,PTH
FMAT,2
METRIC
T1C0.800
T2C0.850
T3C0.900
T4C1.000
T5C1.520
%
G90
G05
T1
X17.78Y-38.1
X17.78Y-46.99
X17.78Y-49.49
X20.32Y-54.61
X21.59Y-57.15
X25.32Y-54.61
X25.4Y-38.1
X29.21Y-46.99
X29.21Y-54.61
X29.21Y-57.15
X33.02Y-53.34
X33.02Y-55.88
X33.02Y-58.42
X33.02Y-60.96
X34.29Y-15.24
X34.29Y-17.78
X34.29Y-40.64
X34.29Y-43.18
X36.83Y-15.24
X36.83Y-17.78
X36.83Y-40.64
X36.83Y-43.18
X39.37Y-15.24
X39.37Y-17.78
X39.37Y-40.64
X39.37Y-43.18
X41.91Y-15.24
X41.91Y-17.78
X41.91Y-40.64
X41.91Y-43.18
X44.45Y-15.24
X44.45Y-17.78
X44.45Y-40.64
X44.45Y-43.18
X46.99Y-15.24
X46.99Y-17.78
X46.99Y-40.64
X46.99Y-43.18
X49.53Y-15.24
X49.53Y-17.78
X49.53Y-40.64
X49.53Y-43.18
X52.07Y-15.24
X52.07Y-17.78
X52.07Y-40.64
X52.07Y-43.18
X54.61Y-15.24
X54.61Y-17.78
X54.61Y-40.64
X54.61Y-43.18
X57.15Y-15.24
X57.15Y-17.78
X57.15Y-40.64
X57.15Y-43.18
X68.58Y-50.8
X68.58Y-53.34
X68.58Y-55.88
X68.58Y-58.42
X68.58Y-60.96
X68.58Y-63.5
T2
X35.56Y-22.86
X35.56Y-25.4
X35.56Y-27.94
X35.56Y-30.48
X35.56Y-33.02
T3
X25.4Y-44.45
X25.4Y-46.99
T4
X40.64Y-48.26
X43.18Y-48.26
X45.72Y-48.26
X48.26Y-48.26
X50.8Y-48.26
X53.34Y-48.26
X55.88Y-48.26
X58.42Y-48.26
T5
X22.86Y-63.5
X27.94Y-63.5
T0
M30
