G04 #@! TF.GenerationSoftware,KiCad,Pcbnew,(5.1.12)-1*
G04 #@! TF.CreationDate,2022-01-06T10:15:51+01:00*
G04 #@! TF.ProjectId,EmlaLockSafe_Controller_Board,456d6c61-4c6f-4636-9b53-6166655f436f,2.0*
G04 #@! TF.SameCoordinates,Original*
G04 #@! TF.FileFunction,Legend,Top*
G04 #@! TF.FilePolarity,Positive*
%FSLAX46Y46*%
G04 Gerber Fmt 4.6, Leading zero omitted, Abs format (unit mm)*
G04 Created by KiCad (PCBNEW (5.1.12)-1) date 2022-01-06 10:15:51*
%MOMM*%
%LPD*%
G01*
G04 APERTURE LIST*
%ADD10C,0.300000*%
%ADD11C,0.120000*%
%ADD12C,0.100000*%
%ADD13C,0.150000*%
%ADD14C,1.800000*%
%ADD15C,3.000000*%
%ADD16C,1.400000*%
%ADD17C,3.100000*%
%ADD18O,2.000000X1.200000*%
%ADD19O,1.600000X1.600000*%
%ADD20C,1.600000*%
%ADD21O,1.700000X1.700000*%
%ADD22R,1.700000X1.700000*%
%ADD23R,1.800000X1.800000*%
%ADD24R,1.600000X1.600000*%
%ADD25R,3.000000X3.000000*%
%ADD26R,0.800000X0.900000*%
G04 APERTURE END LIST*
D10*
X155388571Y-94558571D02*
X156460000Y-94558571D01*
X156674285Y-94630000D01*
X156817142Y-94772857D01*
X156888571Y-94987142D01*
X156888571Y-95130000D01*
X156888571Y-93130000D02*
X156888571Y-93844285D01*
X155388571Y-93844285D01*
X156745714Y-91772857D02*
X156817142Y-91844285D01*
X156888571Y-92058571D01*
X156888571Y-92201428D01*
X156817142Y-92415714D01*
X156674285Y-92558571D01*
X156531428Y-92630000D01*
X156245714Y-92701428D01*
X156031428Y-92701428D01*
X155745714Y-92630000D01*
X155602857Y-92558571D01*
X155460000Y-92415714D01*
X155388571Y-92201428D01*
X155388571Y-92058571D01*
X155460000Y-91844285D01*
X155531428Y-91772857D01*
X155388571Y-90701428D02*
X156460000Y-90701428D01*
X156674285Y-90772857D01*
X156817142Y-90915714D01*
X156888571Y-91130000D01*
X156888571Y-91272857D01*
X156888571Y-89272857D02*
X156888571Y-89987142D01*
X155388571Y-89987142D01*
X156745714Y-87915714D02*
X156817142Y-87987142D01*
X156888571Y-88201428D01*
X156888571Y-88344285D01*
X156817142Y-88558571D01*
X156674285Y-88701428D01*
X156531428Y-88772857D01*
X156245714Y-88844285D01*
X156031428Y-88844285D01*
X155745714Y-88772857D01*
X155602857Y-88701428D01*
X155460000Y-88558571D01*
X155388571Y-88344285D01*
X155388571Y-88201428D01*
X155460000Y-87987142D01*
X155531428Y-87915714D01*
X155388571Y-86844285D02*
X156460000Y-86844285D01*
X156674285Y-86915714D01*
X156817142Y-87058571D01*
X156888571Y-87272857D01*
X156888571Y-87415714D01*
X156888571Y-85415714D02*
X156888571Y-86130000D01*
X155388571Y-86130000D01*
X156745714Y-84058571D02*
X156817142Y-84130000D01*
X156888571Y-84344285D01*
X156888571Y-84487142D01*
X156817142Y-84701428D01*
X156674285Y-84844285D01*
X156531428Y-84915714D01*
X156245714Y-84987142D01*
X156031428Y-84987142D01*
X155745714Y-84915714D01*
X155602857Y-84844285D01*
X155460000Y-84701428D01*
X155388571Y-84487142D01*
X155388571Y-84344285D01*
X155460000Y-84130000D01*
X155531428Y-84058571D01*
X155388571Y-82987142D02*
X156460000Y-82987142D01*
X156674285Y-83058571D01*
X156817142Y-83201428D01*
X156888571Y-83415714D01*
X156888571Y-83558571D01*
X156888571Y-81558571D02*
X156888571Y-82272857D01*
X155388571Y-82272857D01*
X156745714Y-80201428D02*
X156817142Y-80272857D01*
X156888571Y-80487142D01*
X156888571Y-80630000D01*
X156817142Y-80844285D01*
X156674285Y-80987142D01*
X156531428Y-81058571D01*
X156245714Y-81130000D01*
X156031428Y-81130000D01*
X155745714Y-81058571D01*
X155602857Y-80987142D01*
X155460000Y-80844285D01*
X155388571Y-80630000D01*
X155388571Y-80487142D01*
X155460000Y-80272857D01*
X155531428Y-80201428D01*
X157883928Y-130218571D02*
X157750000Y-130147142D01*
X157687500Y-130075714D01*
X157633928Y-129932857D01*
X157687500Y-129504285D01*
X157776785Y-129361428D01*
X157857142Y-129290000D01*
X158008928Y-129218571D01*
X158223214Y-129218571D01*
X158357142Y-129290000D01*
X158419642Y-129361428D01*
X158473214Y-129504285D01*
X158419642Y-129932857D01*
X158330357Y-130075714D01*
X158250000Y-130147142D01*
X158098214Y-130218571D01*
X157883928Y-130218571D01*
X159026785Y-130218571D02*
X159151785Y-129218571D01*
X159116071Y-129504285D02*
X159205357Y-129361428D01*
X159285714Y-129290000D01*
X159437500Y-129218571D01*
X159580357Y-129218571D01*
X160598214Y-130218571D02*
X160696428Y-129432857D01*
X160642857Y-129290000D01*
X160508928Y-129218571D01*
X160223214Y-129218571D01*
X160071428Y-129290000D01*
X160607142Y-130147142D02*
X160455357Y-130218571D01*
X160098214Y-130218571D01*
X159964285Y-130147142D01*
X159910714Y-130004285D01*
X159928571Y-129861428D01*
X160017857Y-129718571D01*
X160169642Y-129647142D01*
X160526785Y-129647142D01*
X160678571Y-129575714D01*
X161437500Y-129218571D02*
X161312500Y-130218571D01*
X161419642Y-129361428D02*
X161500000Y-129290000D01*
X161651785Y-129218571D01*
X161866071Y-129218571D01*
X162000000Y-129290000D01*
X162053571Y-129432857D01*
X161955357Y-130218571D01*
X163437500Y-129218571D02*
X163285714Y-130432857D01*
X163196428Y-130575714D01*
X163116071Y-130647142D01*
X162964285Y-130718571D01*
X162750000Y-130718571D01*
X162616071Y-130647142D01*
X163321428Y-130147142D02*
X163169642Y-130218571D01*
X162883928Y-130218571D01*
X162750000Y-130147142D01*
X162687500Y-130075714D01*
X162633928Y-129932857D01*
X162687500Y-129504285D01*
X162776785Y-129361428D01*
X162857142Y-129290000D01*
X163008928Y-129218571D01*
X163294642Y-129218571D01*
X163428571Y-129290000D01*
X164607142Y-130147142D02*
X164455357Y-130218571D01*
X164169642Y-130218571D01*
X164035714Y-130147142D01*
X163982142Y-130004285D01*
X164053571Y-129432857D01*
X164142857Y-129290000D01*
X164294642Y-129218571D01*
X164580357Y-129218571D01*
X164714285Y-129290000D01*
X164767857Y-129432857D01*
X164750000Y-129575714D01*
X164017857Y-129718571D01*
X122624285Y-129432857D02*
X123124285Y-129432857D01*
X123338571Y-130218571D02*
X122624285Y-130218571D01*
X122624285Y-128718571D01*
X123338571Y-128718571D01*
X123981428Y-130218571D02*
X123981428Y-129218571D01*
X123981428Y-129361428D02*
X124052857Y-129290000D01*
X124195714Y-129218571D01*
X124410000Y-129218571D01*
X124552857Y-129290000D01*
X124624285Y-129432857D01*
X124624285Y-130218571D01*
X124624285Y-129432857D02*
X124695714Y-129290000D01*
X124838571Y-129218571D01*
X125052857Y-129218571D01*
X125195714Y-129290000D01*
X125267142Y-129432857D01*
X125267142Y-130218571D01*
X126195714Y-130218571D02*
X126052857Y-130147142D01*
X125981428Y-130004285D01*
X125981428Y-128718571D01*
X127410000Y-130218571D02*
X127410000Y-129432857D01*
X127338571Y-129290000D01*
X127195714Y-129218571D01*
X126910000Y-129218571D01*
X126767142Y-129290000D01*
X127410000Y-130147142D02*
X127267142Y-130218571D01*
X126910000Y-130218571D01*
X126767142Y-130147142D01*
X126695714Y-130004285D01*
X126695714Y-129861428D01*
X126767142Y-129718571D01*
X126910000Y-129647142D01*
X127267142Y-129647142D01*
X127410000Y-129575714D01*
X128338571Y-130218571D02*
X128195714Y-130147142D01*
X128124285Y-130004285D01*
X128124285Y-128718571D01*
X129124285Y-130218571D02*
X128981428Y-130147142D01*
X128910000Y-130075714D01*
X128838571Y-129932857D01*
X128838571Y-129504285D01*
X128910000Y-129361428D01*
X128981428Y-129290000D01*
X129124285Y-129218571D01*
X129338571Y-129218571D01*
X129481428Y-129290000D01*
X129552857Y-129361428D01*
X129624285Y-129504285D01*
X129624285Y-129932857D01*
X129552857Y-130075714D01*
X129481428Y-130147142D01*
X129338571Y-130218571D01*
X129124285Y-130218571D01*
X130910000Y-130147142D02*
X130767142Y-130218571D01*
X130481428Y-130218571D01*
X130338571Y-130147142D01*
X130267142Y-130075714D01*
X130195714Y-129932857D01*
X130195714Y-129504285D01*
X130267142Y-129361428D01*
X130338571Y-129290000D01*
X130481428Y-129218571D01*
X130767142Y-129218571D01*
X130910000Y-129290000D01*
X131552857Y-130218571D02*
X131552857Y-128718571D01*
X131695714Y-129647142D02*
X132124285Y-130218571D01*
X132124285Y-129218571D02*
X131552857Y-129790000D01*
X133838571Y-130147142D02*
X134052857Y-130218571D01*
X134410000Y-130218571D01*
X134552857Y-130147142D01*
X134624285Y-130075714D01*
X134695714Y-129932857D01*
X134695714Y-129790000D01*
X134624285Y-129647142D01*
X134552857Y-129575714D01*
X134410000Y-129504285D01*
X134124285Y-129432857D01*
X133981428Y-129361428D01*
X133910000Y-129290000D01*
X133838571Y-129147142D01*
X133838571Y-129004285D01*
X133910000Y-128861428D01*
X133981428Y-128790000D01*
X134124285Y-128718571D01*
X134481428Y-128718571D01*
X134695714Y-128790000D01*
X135981428Y-130218571D02*
X135981428Y-129432857D01*
X135910000Y-129290000D01*
X135767142Y-129218571D01*
X135481428Y-129218571D01*
X135338571Y-129290000D01*
X135981428Y-130147142D02*
X135838571Y-130218571D01*
X135481428Y-130218571D01*
X135338571Y-130147142D01*
X135267142Y-130004285D01*
X135267142Y-129861428D01*
X135338571Y-129718571D01*
X135481428Y-129647142D01*
X135838571Y-129647142D01*
X135981428Y-129575714D01*
X136481428Y-129218571D02*
X137052857Y-129218571D01*
X136695714Y-130218571D02*
X136695714Y-128932857D01*
X136767142Y-128790000D01*
X136910000Y-128718571D01*
X137052857Y-128718571D01*
X138124285Y-130147142D02*
X137981428Y-130218571D01*
X137695714Y-130218571D01*
X137552857Y-130147142D01*
X137481428Y-130004285D01*
X137481428Y-129432857D01*
X137552857Y-129290000D01*
X137695714Y-129218571D01*
X137981428Y-129218571D01*
X138124285Y-129290000D01*
X138195714Y-129432857D01*
X138195714Y-129575714D01*
X137481428Y-129718571D01*
X139767142Y-128718571D02*
X140267142Y-130218571D01*
X140767142Y-128718571D01*
X141195714Y-128861428D02*
X141267142Y-128790000D01*
X141410000Y-128718571D01*
X141767142Y-128718571D01*
X141910000Y-128790000D01*
X141981428Y-128861428D01*
X142052857Y-129004285D01*
X142052857Y-129147142D01*
X141981428Y-129361428D01*
X141124285Y-130218571D01*
X142052857Y-130218571D01*
X142695714Y-130075714D02*
X142767142Y-130147142D01*
X142695714Y-130218571D01*
X142624285Y-130147142D01*
X142695714Y-130075714D01*
X142695714Y-130218571D01*
X144195714Y-130218571D02*
X143338571Y-130218571D01*
X143767142Y-130218571D02*
X143767142Y-128718571D01*
X143624285Y-128932857D01*
X143481428Y-129075714D01*
X143338571Y-129147142D01*
X144910000Y-130147142D02*
X144910000Y-130218571D01*
X144838571Y-130361428D01*
X144767142Y-130432857D01*
X146624285Y-128861428D02*
X146695714Y-128790000D01*
X146838571Y-128718571D01*
X147195714Y-128718571D01*
X147338571Y-128790000D01*
X147410000Y-128861428D01*
X147481428Y-129004285D01*
X147481428Y-129147142D01*
X147410000Y-129361428D01*
X146552857Y-130218571D01*
X147481428Y-130218571D01*
X148410000Y-128718571D02*
X148552857Y-128718571D01*
X148695714Y-128790000D01*
X148767142Y-128861428D01*
X148838571Y-129004285D01*
X148910000Y-129290000D01*
X148910000Y-129647142D01*
X148838571Y-129932857D01*
X148767142Y-130075714D01*
X148695714Y-130147142D01*
X148552857Y-130218571D01*
X148410000Y-130218571D01*
X148267142Y-130147142D01*
X148195714Y-130075714D01*
X148124285Y-129932857D01*
X148052857Y-129647142D01*
X148052857Y-129290000D01*
X148124285Y-129004285D01*
X148195714Y-128861428D01*
X148267142Y-128790000D01*
X148410000Y-128718571D01*
X149481428Y-128861428D02*
X149552857Y-128790000D01*
X149695714Y-128718571D01*
X150052857Y-128718571D01*
X150195714Y-128790000D01*
X150267142Y-128861428D01*
X150338571Y-129004285D01*
X150338571Y-129147142D01*
X150267142Y-129361428D01*
X149410000Y-130218571D01*
X150338571Y-130218571D01*
X151767142Y-130218571D02*
X150910000Y-130218571D01*
X151338571Y-130218571D02*
X151338571Y-128718571D01*
X151195714Y-128932857D01*
X151052857Y-129075714D01*
X150910000Y-129147142D01*
D11*
X129540000Y-82550000D02*
X123190000Y-82550000D01*
X129540000Y-90170000D02*
X129540000Y-82550000D01*
X123190000Y-90170000D02*
X129540000Y-90170000D01*
X123190000Y-82550000D02*
X123190000Y-90170000D01*
X138430000Y-92710000D02*
X138430000Y-80010000D01*
X124460000Y-92710000D02*
X138430000Y-92710000D01*
X124460000Y-80010000D02*
X124460000Y-92710000D01*
X138430000Y-80010000D02*
X124460000Y-80010000D01*
X134620000Y-74930000D02*
X129540000Y-74930000D01*
X166370000Y-100330000D02*
X166370000Y-76200000D01*
X166370000Y-100330000D02*
X163830000Y-102870000D01*
X166370000Y-74930000D02*
X163830000Y-72390000D01*
X166370000Y-74930000D02*
X166370000Y-76200000D01*
X163830000Y-102870000D02*
X129540000Y-102870000D01*
X163830000Y-72390000D02*
X134620000Y-72390000D01*
X134620000Y-72390000D02*
X134620000Y-74930000D01*
D12*
G36*
X130810000Y-73660000D02*
G01*
X133350000Y-73660000D01*
X133350000Y-74930000D01*
X130810000Y-74930000D01*
X130810000Y-73660000D01*
G37*
X130810000Y-73660000D02*
X133350000Y-73660000D01*
X133350000Y-74930000D01*
X130810000Y-74930000D01*
X130810000Y-73660000D01*
D11*
X129540000Y-74930000D02*
X129540000Y-102870000D01*
X129540000Y-82550000D02*
X123190000Y-82550000D01*
X123190000Y-82550000D02*
X123190000Y-92710000D01*
X123190000Y-92710000D02*
X129540000Y-92710000D01*
X129540000Y-82550000D02*
X132080000Y-82550000D01*
X132080000Y-82550000D02*
X132080000Y-92710000D01*
X132080000Y-92710000D02*
X129540000Y-92710000D01*
X160099067Y-115570000D02*
G75*
G03*
X160099067Y-115570000I-10239067J0D01*
G01*
X171450000Y-127000000D02*
X171450000Y-104140000D01*
X133350000Y-127000000D02*
X171450000Y-127000000D01*
X133350000Y-104140000D02*
X133350000Y-127000000D01*
X171450000Y-104140000D02*
X133350000Y-104140000D01*
X129440000Y-112490000D02*
X129770000Y-112490000D01*
X129440000Y-105950000D02*
X129440000Y-112490000D01*
X129770000Y-105950000D02*
X129440000Y-105950000D01*
X132180000Y-112490000D02*
X131850000Y-112490000D01*
X132180000Y-105950000D02*
X132180000Y-112490000D01*
X131850000Y-105950000D02*
X132180000Y-105950000D01*
X140910000Y-106680000D02*
X140910000Y-105570000D01*
X140910000Y-105570000D02*
X142240000Y-105570000D01*
X140910000Y-116770000D02*
X161350000Y-116770000D01*
X161350000Y-116770000D02*
X161350000Y-108140000D01*
X140910000Y-108140000D02*
X161350000Y-108140000D01*
X140910000Y-116770000D02*
X140910000Y-108140000D01*
X158750000Y-116770000D02*
X158750000Y-108140000D01*
X156210000Y-116770000D02*
X156210000Y-108140000D01*
X153670000Y-116770000D02*
X153670000Y-108140000D01*
X151130000Y-116770000D02*
X151130000Y-108140000D01*
X148590000Y-116770000D02*
X148590000Y-108140000D01*
X146050000Y-116770000D02*
X146050000Y-108140000D01*
X143510000Y-116770000D02*
X143510000Y-108140000D01*
X160380000Y-108140000D02*
X160380000Y-107730000D01*
X159660000Y-108140000D02*
X159660000Y-107730000D01*
X157840000Y-108140000D02*
X157840000Y-107730000D01*
X157120000Y-108140000D02*
X157120000Y-107730000D01*
X155300000Y-108140000D02*
X155300000Y-107730000D01*
X154580000Y-108140000D02*
X154580000Y-107730000D01*
X152760000Y-108140000D02*
X152760000Y-107730000D01*
X152040000Y-108140000D02*
X152040000Y-107730000D01*
X150220000Y-108140000D02*
X150220000Y-107730000D01*
X149500000Y-108140000D02*
X149500000Y-107730000D01*
X147680000Y-108140000D02*
X147680000Y-107730000D01*
X146960000Y-108140000D02*
X146960000Y-107730000D01*
X145140000Y-108140000D02*
X145140000Y-107730000D01*
X144420000Y-108140000D02*
X144420000Y-107730000D01*
X142600000Y-108140000D02*
X142600000Y-107790000D01*
X141880000Y-108140000D02*
X141880000Y-107790000D01*
X143391900Y-116770000D02*
X143391900Y-108140000D01*
X143273805Y-116770000D02*
X143273805Y-108140000D01*
X143155710Y-116770000D02*
X143155710Y-108140000D01*
X143037615Y-116770000D02*
X143037615Y-108140000D01*
X142919520Y-116770000D02*
X142919520Y-108140000D01*
X142801425Y-116770000D02*
X142801425Y-108140000D01*
X142683330Y-116770000D02*
X142683330Y-108140000D01*
X142565235Y-116770000D02*
X142565235Y-108140000D01*
X142447140Y-116770000D02*
X142447140Y-108140000D01*
X142329045Y-116770000D02*
X142329045Y-108140000D01*
X142210950Y-116770000D02*
X142210950Y-108140000D01*
X142092855Y-116770000D02*
X142092855Y-108140000D01*
X141974760Y-116770000D02*
X141974760Y-108140000D01*
X141856665Y-116770000D02*
X141856665Y-108140000D01*
X141738570Y-116770000D02*
X141738570Y-108140000D01*
X141620475Y-116770000D02*
X141620475Y-108140000D01*
X141502380Y-116770000D02*
X141502380Y-108140000D01*
X141384285Y-116770000D02*
X141384285Y-108140000D01*
X141266190Y-116770000D02*
X141266190Y-108140000D01*
X141148095Y-116770000D02*
X141148095Y-108140000D01*
X141030000Y-116770000D02*
X141030000Y-108140000D01*
X128545000Y-101580000D02*
X125455000Y-101580000D01*
X129500000Y-104140000D02*
G75*
G03*
X129500000Y-104140000I-2500000J0D01*
G01*
X127000462Y-107130000D02*
G75*
G02*
X125455170Y-101580000I-462J2990000D01*
G01*
X126999538Y-107130000D02*
G75*
G03*
X128544830Y-101580000I462J2990000D01*
G01*
X128520000Y-116690000D02*
X128520000Y-114450000D01*
X128280000Y-116690000D02*
X128280000Y-114450000D01*
X128400000Y-116690000D02*
X128400000Y-114450000D01*
X124230000Y-115570000D02*
X124880000Y-115570000D01*
X129770000Y-115570000D02*
X129120000Y-115570000D01*
X124880000Y-116690000D02*
X129120000Y-116690000D01*
X124880000Y-114450000D02*
X124880000Y-116690000D01*
X129120000Y-114450000D02*
X124880000Y-114450000D01*
X129120000Y-116690000D02*
X129120000Y-114450000D01*
X132080000Y-118110000D02*
X121920000Y-118110000D01*
X132080000Y-125730000D02*
X132080000Y-118110000D01*
X121920000Y-125730000D02*
X132080000Y-125730000D01*
X121920000Y-118110000D02*
X121920000Y-125730000D01*
X121920000Y-119380000D02*
X132080000Y-119380000D01*
X126460000Y-97890000D02*
X126460000Y-97560000D01*
X119920000Y-97890000D02*
X126460000Y-97890000D01*
X119920000Y-97560000D02*
X119920000Y-97890000D01*
X126460000Y-95150000D02*
X126460000Y-95480000D01*
X119920000Y-95150000D02*
X126460000Y-95150000D01*
X119920000Y-95480000D02*
X119920000Y-95150000D01*
X119070000Y-102090000D02*
X119070000Y-100630000D01*
X122230000Y-102090000D02*
X122230000Y-99930000D01*
X122230000Y-102090000D02*
X121300000Y-102090000D01*
X119070000Y-102090000D02*
X120000000Y-102090000D01*
X121105000Y-104105225D02*
X120605000Y-104105225D01*
X120855000Y-103855225D02*
X120855000Y-104355225D01*
X119664000Y-109261000D02*
X119096000Y-109261000D01*
X119898000Y-109221000D02*
X118862000Y-109221000D01*
X120057000Y-109181000D02*
X118703000Y-109181000D01*
X120185000Y-109141000D02*
X118575000Y-109141000D01*
X120295000Y-109101000D02*
X118465000Y-109101000D01*
X120391000Y-109061000D02*
X118369000Y-109061000D01*
X120478000Y-109021000D02*
X118282000Y-109021000D01*
X120558000Y-108981000D02*
X118202000Y-108981000D01*
X118340000Y-108941000D02*
X118129000Y-108941000D01*
X120631000Y-108941000D02*
X120420000Y-108941000D01*
X118340000Y-108901000D02*
X118061000Y-108901000D01*
X120699000Y-108901000D02*
X120420000Y-108901000D01*
X118340000Y-108861000D02*
X117997000Y-108861000D01*
X120763000Y-108861000D02*
X120420000Y-108861000D01*
X118340000Y-108821000D02*
X117937000Y-108821000D01*
X120823000Y-108821000D02*
X120420000Y-108821000D01*
X118340000Y-108781000D02*
X117880000Y-108781000D01*
X120880000Y-108781000D02*
X120420000Y-108781000D01*
X118340000Y-108741000D02*
X117826000Y-108741000D01*
X120934000Y-108741000D02*
X120420000Y-108741000D01*
X118340000Y-108701000D02*
X117775000Y-108701000D01*
X120985000Y-108701000D02*
X120420000Y-108701000D01*
X118340000Y-108661000D02*
X117727000Y-108661000D01*
X121033000Y-108661000D02*
X120420000Y-108661000D01*
X118340000Y-108621000D02*
X117681000Y-108621000D01*
X121079000Y-108621000D02*
X120420000Y-108621000D01*
X118340000Y-108581000D02*
X117637000Y-108581000D01*
X121123000Y-108581000D02*
X120420000Y-108581000D01*
X118340000Y-108541000D02*
X117595000Y-108541000D01*
X121165000Y-108541000D02*
X120420000Y-108541000D01*
X118340000Y-108501000D02*
X117554000Y-108501000D01*
X121206000Y-108501000D02*
X120420000Y-108501000D01*
X118340000Y-108461000D02*
X117516000Y-108461000D01*
X121244000Y-108461000D02*
X120420000Y-108461000D01*
X118340000Y-108421000D02*
X117479000Y-108421000D01*
X121281000Y-108421000D02*
X120420000Y-108421000D01*
X118340000Y-108381000D02*
X117443000Y-108381000D01*
X121317000Y-108381000D02*
X120420000Y-108381000D01*
X118340000Y-108341000D02*
X117409000Y-108341000D01*
X121351000Y-108341000D02*
X120420000Y-108341000D01*
X118340000Y-108301000D02*
X117376000Y-108301000D01*
X121384000Y-108301000D02*
X120420000Y-108301000D01*
X118340000Y-108261000D02*
X117345000Y-108261000D01*
X121415000Y-108261000D02*
X120420000Y-108261000D01*
X118340000Y-108221000D02*
X117315000Y-108221000D01*
X121445000Y-108221000D02*
X120420000Y-108221000D01*
X118340000Y-108181000D02*
X117285000Y-108181000D01*
X121475000Y-108181000D02*
X120420000Y-108181000D01*
X118340000Y-108141000D02*
X117258000Y-108141000D01*
X121502000Y-108141000D02*
X120420000Y-108141000D01*
X118340000Y-108101000D02*
X117231000Y-108101000D01*
X121529000Y-108101000D02*
X120420000Y-108101000D01*
X118340000Y-108061000D02*
X117205000Y-108061000D01*
X121555000Y-108061000D02*
X120420000Y-108061000D01*
X118340000Y-108021000D02*
X117180000Y-108021000D01*
X121580000Y-108021000D02*
X120420000Y-108021000D01*
X118340000Y-107981000D02*
X117156000Y-107981000D01*
X121604000Y-107981000D02*
X120420000Y-107981000D01*
X118340000Y-107941000D02*
X117133000Y-107941000D01*
X121627000Y-107941000D02*
X120420000Y-107941000D01*
X118340000Y-107901000D02*
X117112000Y-107901000D01*
X121648000Y-107901000D02*
X120420000Y-107901000D01*
X118340000Y-107861000D02*
X117090000Y-107861000D01*
X121670000Y-107861000D02*
X120420000Y-107861000D01*
X118340000Y-107821000D02*
X117070000Y-107821000D01*
X121690000Y-107821000D02*
X120420000Y-107821000D01*
X118340000Y-107781000D02*
X117051000Y-107781000D01*
X121709000Y-107781000D02*
X120420000Y-107781000D01*
X118340000Y-107741000D02*
X117032000Y-107741000D01*
X121728000Y-107741000D02*
X120420000Y-107741000D01*
X118340000Y-107701000D02*
X117015000Y-107701000D01*
X121745000Y-107701000D02*
X120420000Y-107701000D01*
X118340000Y-107661000D02*
X116998000Y-107661000D01*
X121762000Y-107661000D02*
X120420000Y-107661000D01*
X118340000Y-107621000D02*
X116982000Y-107621000D01*
X121778000Y-107621000D02*
X120420000Y-107621000D01*
X118340000Y-107581000D02*
X116966000Y-107581000D01*
X121794000Y-107581000D02*
X120420000Y-107581000D01*
X118340000Y-107541000D02*
X116952000Y-107541000D01*
X121808000Y-107541000D02*
X120420000Y-107541000D01*
X118340000Y-107501000D02*
X116938000Y-107501000D01*
X121822000Y-107501000D02*
X120420000Y-107501000D01*
X118340000Y-107461000D02*
X116925000Y-107461000D01*
X121835000Y-107461000D02*
X120420000Y-107461000D01*
X118340000Y-107421000D02*
X116912000Y-107421000D01*
X121848000Y-107421000D02*
X120420000Y-107421000D01*
X118340000Y-107381000D02*
X116900000Y-107381000D01*
X121860000Y-107381000D02*
X120420000Y-107381000D01*
X118340000Y-107340000D02*
X116889000Y-107340000D01*
X121871000Y-107340000D02*
X120420000Y-107340000D01*
X118340000Y-107300000D02*
X116879000Y-107300000D01*
X121881000Y-107300000D02*
X120420000Y-107300000D01*
X118340000Y-107260000D02*
X116869000Y-107260000D01*
X121891000Y-107260000D02*
X120420000Y-107260000D01*
X118340000Y-107220000D02*
X116860000Y-107220000D01*
X121900000Y-107220000D02*
X120420000Y-107220000D01*
X118340000Y-107180000D02*
X116852000Y-107180000D01*
X121908000Y-107180000D02*
X120420000Y-107180000D01*
X118340000Y-107140000D02*
X116844000Y-107140000D01*
X121916000Y-107140000D02*
X120420000Y-107140000D01*
X118340000Y-107100000D02*
X116837000Y-107100000D01*
X121923000Y-107100000D02*
X120420000Y-107100000D01*
X118340000Y-107060000D02*
X116830000Y-107060000D01*
X121930000Y-107060000D02*
X120420000Y-107060000D01*
X118340000Y-107020000D02*
X116824000Y-107020000D01*
X121936000Y-107020000D02*
X120420000Y-107020000D01*
X118340000Y-106980000D02*
X116819000Y-106980000D01*
X121941000Y-106980000D02*
X120420000Y-106980000D01*
X118340000Y-106940000D02*
X116815000Y-106940000D01*
X121945000Y-106940000D02*
X120420000Y-106940000D01*
X118340000Y-106900000D02*
X116811000Y-106900000D01*
X121949000Y-106900000D02*
X120420000Y-106900000D01*
X121953000Y-106860000D02*
X116807000Y-106860000D01*
X121956000Y-106820000D02*
X116804000Y-106820000D01*
X121958000Y-106780000D02*
X116802000Y-106780000D01*
X121959000Y-106740000D02*
X116801000Y-106740000D01*
X121960000Y-106700000D02*
X116800000Y-106700000D01*
X121960000Y-106660000D02*
X116800000Y-106660000D01*
X122000000Y-106660000D02*
G75*
G03*
X122000000Y-106660000I-2620000J0D01*
G01*
X122150000Y-111975000D02*
X122150000Y-111960000D01*
X122150000Y-114100000D02*
X122150000Y-114085000D01*
X126690000Y-111975000D02*
X126690000Y-111960000D01*
X126690000Y-114100000D02*
X126690000Y-114085000D01*
X126690000Y-111960000D02*
X122150000Y-111960000D01*
X126690000Y-114100000D02*
X122150000Y-114100000D01*
D13*
X126238095Y-102322380D02*
X126238095Y-103131904D01*
X126285714Y-103227142D01*
X126333333Y-103274761D01*
X126428571Y-103322380D01*
X126619047Y-103322380D01*
X126714285Y-103274761D01*
X126761904Y-103227142D01*
X126809523Y-103131904D01*
X126809523Y-102322380D01*
X127238095Y-102417619D02*
X127285714Y-102370000D01*
X127380952Y-102322380D01*
X127619047Y-102322380D01*
X127714285Y-102370000D01*
X127761904Y-102417619D01*
X127809523Y-102512857D01*
X127809523Y-102608095D01*
X127761904Y-102750952D01*
X127190476Y-103322380D01*
X127809523Y-103322380D01*
X132532380Y-76747619D02*
X132056190Y-77080952D01*
X132532380Y-77319047D02*
X131532380Y-77319047D01*
X131532380Y-76938095D01*
X131580000Y-76842857D01*
X131627619Y-76795238D01*
X131722857Y-76747619D01*
X131865714Y-76747619D01*
X131960952Y-76795238D01*
X132008571Y-76842857D01*
X132056190Y-76938095D01*
X132056190Y-77319047D01*
X132484761Y-76366666D02*
X132532380Y-76223809D01*
X132532380Y-75985714D01*
X132484761Y-75890476D01*
X132437142Y-75842857D01*
X132341904Y-75795238D01*
X132246666Y-75795238D01*
X132151428Y-75842857D01*
X132103809Y-75890476D01*
X132056190Y-75985714D01*
X132008571Y-76176190D01*
X131960952Y-76271428D01*
X131913333Y-76319047D01*
X131818095Y-76366666D01*
X131722857Y-76366666D01*
X131627619Y-76319047D01*
X131580000Y-76271428D01*
X131532380Y-76176190D01*
X131532380Y-75938095D01*
X131580000Y-75795238D01*
X131532380Y-75509523D02*
X131532380Y-74938095D01*
X132532380Y-75223809D02*
X131532380Y-75223809D01*
X126452380Y-88891904D02*
X127261904Y-88891904D01*
X127357142Y-88844285D01*
X127404761Y-88796666D01*
X127452380Y-88701428D01*
X127452380Y-88510952D01*
X127404761Y-88415714D01*
X127357142Y-88368095D01*
X127261904Y-88320476D01*
X126452380Y-88320476D01*
X127404761Y-87891904D02*
X127452380Y-87749047D01*
X127452380Y-87510952D01*
X127404761Y-87415714D01*
X127357142Y-87368095D01*
X127261904Y-87320476D01*
X127166666Y-87320476D01*
X127071428Y-87368095D01*
X127023809Y-87415714D01*
X126976190Y-87510952D01*
X126928571Y-87701428D01*
X126880952Y-87796666D01*
X126833333Y-87844285D01*
X126738095Y-87891904D01*
X126642857Y-87891904D01*
X126547619Y-87844285D01*
X126500000Y-87796666D01*
X126452380Y-87701428D01*
X126452380Y-87463333D01*
X126500000Y-87320476D01*
X126928571Y-86558571D02*
X126976190Y-86415714D01*
X127023809Y-86368095D01*
X127119047Y-86320476D01*
X127261904Y-86320476D01*
X127357142Y-86368095D01*
X127404761Y-86415714D01*
X127452380Y-86510952D01*
X127452380Y-86891904D01*
X126452380Y-86891904D01*
X126452380Y-86558571D01*
X126500000Y-86463333D01*
X126547619Y-86415714D01*
X126642857Y-86368095D01*
X126738095Y-86368095D01*
X126833333Y-86415714D01*
X126880952Y-86463333D01*
X126928571Y-86558571D01*
X126928571Y-86891904D01*
X133632380Y-109386666D02*
X133156190Y-109720000D01*
X133632380Y-109958095D02*
X132632380Y-109958095D01*
X132632380Y-109577142D01*
X132680000Y-109481904D01*
X132727619Y-109434285D01*
X132822857Y-109386666D01*
X132965714Y-109386666D01*
X133060952Y-109434285D01*
X133108571Y-109481904D01*
X133156190Y-109577142D01*
X133156190Y-109958095D01*
X133632380Y-108434285D02*
X133632380Y-109005714D01*
X133632380Y-108720000D02*
X132632380Y-108720000D01*
X132775238Y-108815238D01*
X132870476Y-108910476D01*
X132918095Y-109005714D01*
X131412380Y-104878095D02*
X130412380Y-104878095D01*
X130412380Y-104640000D01*
X130460000Y-104497142D01*
X130555238Y-104401904D01*
X130650476Y-104354285D01*
X130840952Y-104306666D01*
X130983809Y-104306666D01*
X131174285Y-104354285D01*
X131269523Y-104401904D01*
X131364761Y-104497142D01*
X131412380Y-104640000D01*
X131412380Y-104878095D01*
X130507619Y-103925714D02*
X130460000Y-103878095D01*
X130412380Y-103782857D01*
X130412380Y-103544761D01*
X130460000Y-103449523D01*
X130507619Y-103401904D01*
X130602857Y-103354285D01*
X130698095Y-103354285D01*
X130840952Y-103401904D01*
X131412380Y-103973333D01*
X131412380Y-103354285D01*
X126261904Y-116022380D02*
X126261904Y-115022380D01*
X126500000Y-115022380D01*
X126642857Y-115070000D01*
X126738095Y-115165238D01*
X126785714Y-115260476D01*
X126833333Y-115450952D01*
X126833333Y-115593809D01*
X126785714Y-115784285D01*
X126738095Y-115879523D01*
X126642857Y-115974761D01*
X126500000Y-116022380D01*
X126261904Y-116022380D01*
X127785714Y-116022380D02*
X127214285Y-116022380D01*
X127500000Y-116022380D02*
X127500000Y-115022380D01*
X127404761Y-115165238D01*
X127309523Y-115260476D01*
X127214285Y-115308095D01*
X121523809Y-127357142D02*
X121476190Y-127404761D01*
X121333333Y-127452380D01*
X121238095Y-127452380D01*
X121095238Y-127404761D01*
X121000000Y-127309523D01*
X120952380Y-127214285D01*
X120904761Y-127023809D01*
X120904761Y-126880952D01*
X120952380Y-126690476D01*
X121000000Y-126595238D01*
X121095238Y-126500000D01*
X121238095Y-126452380D01*
X121333333Y-126452380D01*
X121476190Y-126500000D01*
X121523809Y-126547619D01*
X122142857Y-126452380D02*
X122333333Y-126452380D01*
X122428571Y-126500000D01*
X122523809Y-126595238D01*
X122571428Y-126785714D01*
X122571428Y-127119047D01*
X122523809Y-127309523D01*
X122428571Y-127404761D01*
X122333333Y-127452380D01*
X122142857Y-127452380D01*
X122047619Y-127404761D01*
X121952380Y-127309523D01*
X121904761Y-127119047D01*
X121904761Y-126785714D01*
X121952380Y-126595238D01*
X122047619Y-126500000D01*
X122142857Y-126452380D01*
X123000000Y-127452380D02*
X123000000Y-126452380D01*
X123952380Y-127452380D02*
X123476190Y-127452380D01*
X123476190Y-126452380D01*
X124047619Y-127547619D02*
X124809523Y-127547619D01*
X125619047Y-127357142D02*
X125571428Y-127404761D01*
X125428571Y-127452380D01*
X125333333Y-127452380D01*
X125190476Y-127404761D01*
X125095238Y-127309523D01*
X125047619Y-127214285D01*
X125000000Y-127023809D01*
X125000000Y-126880952D01*
X125047619Y-126690476D01*
X125095238Y-126595238D01*
X125190476Y-126500000D01*
X125333333Y-126452380D01*
X125428571Y-126452380D01*
X125571428Y-126500000D01*
X125619047Y-126547619D01*
X126190476Y-127452380D02*
X126095238Y-127404761D01*
X126047619Y-127357142D01*
X126000000Y-127261904D01*
X126000000Y-126976190D01*
X126047619Y-126880952D01*
X126095238Y-126833333D01*
X126190476Y-126785714D01*
X126333333Y-126785714D01*
X126428571Y-126833333D01*
X126476190Y-126880952D01*
X126523809Y-126976190D01*
X126523809Y-127261904D01*
X126476190Y-127357142D01*
X126428571Y-127404761D01*
X126333333Y-127452380D01*
X126190476Y-127452380D01*
X126952380Y-126785714D02*
X126952380Y-127452380D01*
X126952380Y-126880952D02*
X127000000Y-126833333D01*
X127095238Y-126785714D01*
X127238095Y-126785714D01*
X127333333Y-126833333D01*
X127380952Y-126928571D01*
X127380952Y-127452380D01*
X127857142Y-126785714D02*
X127857142Y-127452380D01*
X127857142Y-126880952D02*
X127904761Y-126833333D01*
X128000000Y-126785714D01*
X128142857Y-126785714D01*
X128238095Y-126833333D01*
X128285714Y-126928571D01*
X128285714Y-127452380D01*
X129142857Y-127404761D02*
X129047619Y-127452380D01*
X128857142Y-127452380D01*
X128761904Y-127404761D01*
X128714285Y-127309523D01*
X128714285Y-126928571D01*
X128761904Y-126833333D01*
X128857142Y-126785714D01*
X129047619Y-126785714D01*
X129142857Y-126833333D01*
X129190476Y-126928571D01*
X129190476Y-127023809D01*
X128714285Y-127119047D01*
X130047619Y-127404761D02*
X129952380Y-127452380D01*
X129761904Y-127452380D01*
X129666666Y-127404761D01*
X129619047Y-127357142D01*
X129571428Y-127261904D01*
X129571428Y-126976190D01*
X129619047Y-126880952D01*
X129666666Y-126833333D01*
X129761904Y-126785714D01*
X129952380Y-126785714D01*
X130047619Y-126833333D01*
X130333333Y-126785714D02*
X130714285Y-126785714D01*
X130476190Y-126452380D02*
X130476190Y-127309523D01*
X130523809Y-127404761D01*
X130619047Y-127452380D01*
X130714285Y-127452380D01*
X131190476Y-127452380D02*
X131095238Y-127404761D01*
X131047619Y-127357142D01*
X131000000Y-127261904D01*
X131000000Y-126976190D01*
X131047619Y-126880952D01*
X131095238Y-126833333D01*
X131190476Y-126785714D01*
X131333333Y-126785714D01*
X131428571Y-126833333D01*
X131476190Y-126880952D01*
X131523809Y-126976190D01*
X131523809Y-127261904D01*
X131476190Y-127357142D01*
X131428571Y-127404761D01*
X131333333Y-127452380D01*
X131190476Y-127452380D01*
X131952380Y-127452380D02*
X131952380Y-126785714D01*
X131952380Y-126976190D02*
X132000000Y-126880952D01*
X132047619Y-126833333D01*
X132142857Y-126785714D01*
X132238095Y-126785714D01*
X133095238Y-127452380D02*
X132523809Y-127452380D01*
X132809523Y-127452380D02*
X132809523Y-126452380D01*
X132714285Y-126595238D01*
X132619047Y-126690476D01*
X132523809Y-126738095D01*
X123023333Y-94602380D02*
X122690000Y-94126190D01*
X122451904Y-94602380D02*
X122451904Y-93602380D01*
X122832857Y-93602380D01*
X122928095Y-93650000D01*
X122975714Y-93697619D01*
X123023333Y-93792857D01*
X123023333Y-93935714D01*
X122975714Y-94030952D01*
X122928095Y-94078571D01*
X122832857Y-94126190D01*
X122451904Y-94126190D01*
X123404285Y-93697619D02*
X123451904Y-93650000D01*
X123547142Y-93602380D01*
X123785238Y-93602380D01*
X123880476Y-93650000D01*
X123928095Y-93697619D01*
X123975714Y-93792857D01*
X123975714Y-93888095D01*
X123928095Y-94030952D01*
X123356666Y-94602380D01*
X123975714Y-94602380D01*
X123697619Y-101425238D02*
X123650000Y-101520476D01*
X123554761Y-101615714D01*
X123411904Y-101758571D01*
X123364285Y-101853809D01*
X123364285Y-101949047D01*
X123602380Y-101901428D02*
X123554761Y-101996666D01*
X123459523Y-102091904D01*
X123269047Y-102139523D01*
X122935714Y-102139523D01*
X122745238Y-102091904D01*
X122650000Y-101996666D01*
X122602380Y-101901428D01*
X122602380Y-101710952D01*
X122650000Y-101615714D01*
X122745238Y-101520476D01*
X122935714Y-101472857D01*
X123269047Y-101472857D01*
X123459523Y-101520476D01*
X123554761Y-101615714D01*
X123602380Y-101710952D01*
X123602380Y-101901428D01*
X123602380Y-100520476D02*
X123602380Y-101091904D01*
X123602380Y-100806190D02*
X122602380Y-100806190D01*
X122745238Y-100901428D01*
X122840476Y-100996666D01*
X122888095Y-101091904D01*
X123487142Y-106826666D02*
X123534761Y-106874285D01*
X123582380Y-107017142D01*
X123582380Y-107112380D01*
X123534761Y-107255238D01*
X123439523Y-107350476D01*
X123344285Y-107398095D01*
X123153809Y-107445714D01*
X123010952Y-107445714D01*
X122820476Y-107398095D01*
X122725238Y-107350476D01*
X122630000Y-107255238D01*
X122582380Y-107112380D01*
X122582380Y-107017142D01*
X122630000Y-106874285D01*
X122677619Y-106826666D01*
X122677619Y-106445714D02*
X122630000Y-106398095D01*
X122582380Y-106302857D01*
X122582380Y-106064761D01*
X122630000Y-105969523D01*
X122677619Y-105921904D01*
X122772857Y-105874285D01*
X122868095Y-105874285D01*
X123010952Y-105921904D01*
X123582380Y-106493333D01*
X123582380Y-105874285D01*
X124293333Y-113387142D02*
X124245714Y-113434761D01*
X124102857Y-113482380D01*
X124007619Y-113482380D01*
X123864761Y-113434761D01*
X123769523Y-113339523D01*
X123721904Y-113244285D01*
X123674285Y-113053809D01*
X123674285Y-112910952D01*
X123721904Y-112720476D01*
X123769523Y-112625238D01*
X123864761Y-112530000D01*
X124007619Y-112482380D01*
X124102857Y-112482380D01*
X124245714Y-112530000D01*
X124293333Y-112577619D01*
X125245714Y-113482380D02*
X124674285Y-113482380D01*
X124960000Y-113482380D02*
X124960000Y-112482380D01*
X124864761Y-112625238D01*
X124769523Y-112720476D01*
X124674285Y-112768095D01*
%LPC*%
D14*
X137160000Y-91440000D03*
X137160000Y-88900000D03*
X137160000Y-86360000D03*
X137160000Y-83820000D03*
X137160000Y-81280000D03*
D15*
X168910000Y-74930000D03*
D16*
X158750000Y-76200000D03*
X158750000Y-73660000D03*
X156210000Y-73660000D03*
X156210000Y-76200000D03*
X153670000Y-73660000D03*
X153670000Y-76200000D03*
X151130000Y-73660000D03*
X151130000Y-76200000D03*
X148590000Y-73660000D03*
X148590000Y-76200000D03*
X146050000Y-73660000D03*
X146050000Y-76200000D03*
X143510000Y-73660000D03*
X143510000Y-76200000D03*
X140970000Y-73660000D03*
X140970000Y-76200000D03*
X138430000Y-73660000D03*
X138430000Y-76200000D03*
X135890000Y-73660000D03*
X135890000Y-76200000D03*
X158750000Y-99060000D03*
X158750000Y-101600000D03*
X156210000Y-99060000D03*
X156210000Y-101600000D03*
X153670000Y-99060000D03*
X153670000Y-101600000D03*
X151130000Y-99060000D03*
X151130000Y-101600000D03*
X148590000Y-99060000D03*
X148590000Y-101600000D03*
X146050000Y-99060000D03*
X146050000Y-101600000D03*
X143510000Y-99060000D03*
X143510000Y-101600000D03*
X140970000Y-99060000D03*
X140970000Y-101600000D03*
X138430000Y-99060000D03*
X138430000Y-101600000D03*
X135890000Y-99060000D03*
X135890000Y-101600000D03*
D17*
X168910000Y-129540000D03*
D15*
X118110000Y-129540000D03*
X118110000Y-74930000D03*
D18*
X134620000Y-119380000D03*
X134620000Y-116840000D03*
X134620000Y-114300000D03*
X134620000Y-111760000D03*
X170180000Y-121920000D03*
X170180000Y-119380000D03*
X170180000Y-116840000D03*
X170180000Y-114300000D03*
X170180000Y-111760000D03*
X170180000Y-109220000D03*
D19*
X130810000Y-113030000D03*
D20*
X130810000Y-105410000D03*
D21*
X160020000Y-106680000D03*
X157480000Y-106680000D03*
X154940000Y-106680000D03*
X152400000Y-106680000D03*
X149860000Y-106680000D03*
X147320000Y-106680000D03*
X144780000Y-106680000D03*
D22*
X142240000Y-106680000D03*
D14*
X127000000Y-105410000D03*
D23*
X127000000Y-102870000D03*
D19*
X123190000Y-115570000D03*
D24*
X130810000Y-115570000D03*
D15*
X124460000Y-121920000D03*
D25*
X129540000Y-121920000D03*
D19*
X127000000Y-96520000D03*
D20*
X119380000Y-96520000D03*
D26*
X120650000Y-102330000D03*
X119700000Y-100330000D03*
X121600000Y-100330000D03*
D20*
X119380000Y-107910000D03*
D24*
X119380000Y-105410000D03*
D20*
X121920000Y-113030000D03*
X126920000Y-113030000D03*
M02*
