G04 #@! TF.GenerationSoftware,KiCad,Pcbnew,(5.1.12)-1*
G04 #@! TF.CreationDate,2021-12-10T17:41:23+01:00*
G04 #@! TF.ProjectId,EmlaLockSafe_Controller_BoardV2,456d6c61-4c6f-4636-9b53-6166655f436f,rev?*
G04 #@! TF.SameCoordinates,Original*
G04 #@! TF.FileFunction,Soldermask,Bot*
G04 #@! TF.FilePolarity,Negative*
%FSLAX46Y46*%
G04 Gerber Fmt 4.6, Leading zero omitted, Abs format (unit mm)*
G04 Created by KiCad (PCBNEW (5.1.12)-1) date 2021-12-10 17:41:23*
%MOMM*%
%LPD*%
G01*
G04 APERTURE LIST*
%ADD10C,1.800000*%
%ADD11C,2.700000*%
%ADD12C,1.400000*%
%ADD13O,2.000000X1.200000*%
%ADD14O,1.600000X1.600000*%
%ADD15C,1.600000*%
%ADD16O,1.700000X1.700000*%
%ADD17R,1.700000X1.700000*%
%ADD18R,1.800000X1.800000*%
%ADD19R,1.600000X1.600000*%
%ADD20C,3.000000*%
%ADD21R,3.000000X3.000000*%
G04 APERTURE END LIST*
D10*
X35560000Y-33020000D03*
X35560000Y-30480000D03*
X35560000Y-27940000D03*
X35560000Y-25400000D03*
X35560000Y-22860000D03*
D11*
X67310000Y-16510000D03*
D12*
X57150000Y-17780000D03*
X57150000Y-15240000D03*
X54610000Y-15240000D03*
X54610000Y-17780000D03*
X52070000Y-15240000D03*
X52070000Y-17780000D03*
X49530000Y-15240000D03*
X49530000Y-17780000D03*
X46990000Y-15240000D03*
X46990000Y-17780000D03*
X44450000Y-15240000D03*
X44450000Y-17780000D03*
X41910000Y-15240000D03*
X41910000Y-17780000D03*
X39370000Y-15240000D03*
X39370000Y-17780000D03*
X36830000Y-15240000D03*
X36830000Y-17780000D03*
X34290000Y-15240000D03*
X34290000Y-17780000D03*
X57150000Y-40640000D03*
X57150000Y-43180000D03*
X54610000Y-40640000D03*
X54610000Y-43180000D03*
X52070000Y-40640000D03*
X52070000Y-43180000D03*
X49530000Y-40640000D03*
X49530000Y-43180000D03*
X46990000Y-40640000D03*
X46990000Y-43180000D03*
X44450000Y-40640000D03*
X44450000Y-43180000D03*
X41910000Y-40640000D03*
X41910000Y-43180000D03*
X39370000Y-40640000D03*
X39370000Y-43180000D03*
X36830000Y-40640000D03*
X36830000Y-43180000D03*
X34290000Y-40640000D03*
X34290000Y-43180000D03*
D11*
X67310000Y-71120000D03*
X16510000Y-71120000D03*
X16510000Y-16510000D03*
D13*
X33020000Y-60960000D03*
X33020000Y-58420000D03*
X33020000Y-55880000D03*
X33020000Y-53340000D03*
X68580000Y-63500000D03*
X68580000Y-60960000D03*
X68580000Y-58420000D03*
X68580000Y-55880000D03*
X68580000Y-53340000D03*
X68580000Y-50800000D03*
D14*
X29210000Y-54610000D03*
D15*
X29210000Y-46990000D03*
D16*
X58420000Y-48260000D03*
X55880000Y-48260000D03*
X53340000Y-48260000D03*
X50800000Y-48260000D03*
X48260000Y-48260000D03*
X45720000Y-48260000D03*
X43180000Y-48260000D03*
D17*
X40640000Y-48260000D03*
D10*
X25400000Y-46990000D03*
D18*
X25400000Y-44450000D03*
D14*
X21590000Y-57150000D03*
D19*
X29210000Y-57150000D03*
D20*
X22860000Y-63500000D03*
D21*
X27940000Y-63500000D03*
D14*
X25400000Y-38100000D03*
D15*
X17780000Y-38100000D03*
X17780000Y-49490000D03*
D19*
X17780000Y-46990000D03*
D15*
X20320000Y-54610000D03*
X25320000Y-54610000D03*
M02*
