%FSLAX45Y45*%
G04 Gerber Fmt 4.5, Leading zero omitted, Abs format (unit mm)*
G04 Created by KiCad (PCBNEW (5.1.12)-1) date 2022-01-06 10:15:55*
%MOMM*%
%LPD*%
G01*
G04 APERTURE LIST*
%TA.AperFunction,Profile*%
%ADD10C,0.150000*%
%TD*%
%ADD11C,0.200000*%
%ADD12C,0.300000*%
G04 APERTURE END LIST*
D10*
X17272000Y-7112000D02*
X11430000Y-7112000D01*
X17272000Y-13335000D02*
X17272000Y-7112000D01*
X11430000Y-13335000D02*
X17272000Y-13335000D01*
X11430000Y-7112000D02*
X11430000Y-13335000D01*
D11*
X11898000Y-9612000D02*
X11978000Y-9692000D01*
X11978000Y-9612000D02*
X11898000Y-9692000D01*
X11898000Y-10501000D02*
X11978000Y-10581000D01*
X11978000Y-10501000D02*
X11898000Y-10581000D01*
X11898000Y-10751000D02*
X11978000Y-10831000D01*
X11978000Y-10751000D02*
X11898000Y-10831000D01*
X12152000Y-11263000D02*
X12232000Y-11343000D01*
X12232000Y-11263000D02*
X12152000Y-11343000D01*
X12279000Y-11517000D02*
X12359000Y-11597000D01*
X12359000Y-11517000D02*
X12279000Y-11597000D01*
X12652000Y-11263000D02*
X12732000Y-11343000D01*
X12732000Y-11263000D02*
X12652000Y-11343000D01*
X12660000Y-9612000D02*
X12740000Y-9692000D01*
X12740000Y-9612000D02*
X12660000Y-9692000D01*
X13041000Y-10501000D02*
X13121000Y-10581000D01*
X13121000Y-10501000D02*
X13041000Y-10581000D01*
X13041000Y-11263000D02*
X13121000Y-11343000D01*
X13121000Y-11263000D02*
X13041000Y-11343000D01*
X13041000Y-11517000D02*
X13121000Y-11597000D01*
X13121000Y-11517000D02*
X13041000Y-11597000D01*
X13422000Y-11136000D02*
X13502000Y-11216000D01*
X13502000Y-11136000D02*
X13422000Y-11216000D01*
X13422000Y-11390000D02*
X13502000Y-11470000D01*
X13502000Y-11390000D02*
X13422000Y-11470000D01*
X13422000Y-11644000D02*
X13502000Y-11724000D01*
X13502000Y-11644000D02*
X13422000Y-11724000D01*
X13422000Y-11898000D02*
X13502000Y-11978000D01*
X13502000Y-11898000D02*
X13422000Y-11978000D01*
X13549000Y-7326000D02*
X13629000Y-7406000D01*
X13629000Y-7326000D02*
X13549000Y-7406000D01*
X13549000Y-7580000D02*
X13629000Y-7660000D01*
X13629000Y-7580000D02*
X13549000Y-7660000D01*
X13549000Y-9866000D02*
X13629000Y-9946000D01*
X13629000Y-9866000D02*
X13549000Y-9946000D01*
X13549000Y-10120000D02*
X13629000Y-10200000D01*
X13629000Y-10120000D02*
X13549000Y-10200000D01*
X13803000Y-7326000D02*
X13883000Y-7406000D01*
X13883000Y-7326000D02*
X13803000Y-7406000D01*
X13803000Y-7580000D02*
X13883000Y-7660000D01*
X13883000Y-7580000D02*
X13803000Y-7660000D01*
X13803000Y-9866000D02*
X13883000Y-9946000D01*
X13883000Y-9866000D02*
X13803000Y-9946000D01*
X13803000Y-10120000D02*
X13883000Y-10200000D01*
X13883000Y-10120000D02*
X13803000Y-10200000D01*
X14057000Y-7326000D02*
X14137000Y-7406000D01*
X14137000Y-7326000D02*
X14057000Y-7406000D01*
X14057000Y-7580000D02*
X14137000Y-7660000D01*
X14137000Y-7580000D02*
X14057000Y-7660000D01*
X14057000Y-9866000D02*
X14137000Y-9946000D01*
X14137000Y-9866000D02*
X14057000Y-9946000D01*
X14057000Y-10120000D02*
X14137000Y-10200000D01*
X14137000Y-10120000D02*
X14057000Y-10200000D01*
X14311000Y-7326000D02*
X14391000Y-7406000D01*
X14391000Y-7326000D02*
X14311000Y-7406000D01*
X14311000Y-7580000D02*
X14391000Y-7660000D01*
X14391000Y-7580000D02*
X14311000Y-7660000D01*
X14311000Y-9866000D02*
X14391000Y-9946000D01*
X14391000Y-9866000D02*
X14311000Y-9946000D01*
X14311000Y-10120000D02*
X14391000Y-10200000D01*
X14391000Y-10120000D02*
X14311000Y-10200000D01*
X14565000Y-7326000D02*
X14645000Y-7406000D01*
X14645000Y-7326000D02*
X14565000Y-7406000D01*
X14565000Y-7580000D02*
X14645000Y-7660000D01*
X14645000Y-7580000D02*
X14565000Y-7660000D01*
X14565000Y-9866000D02*
X14645000Y-9946000D01*
X14645000Y-9866000D02*
X14565000Y-9946000D01*
X14565000Y-10120000D02*
X14645000Y-10200000D01*
X14645000Y-10120000D02*
X14565000Y-10200000D01*
X14819000Y-7326000D02*
X14899000Y-7406000D01*
X14899000Y-7326000D02*
X14819000Y-7406000D01*
X14819000Y-7580000D02*
X14899000Y-7660000D01*
X14899000Y-7580000D02*
X14819000Y-7660000D01*
X14819000Y-9866000D02*
X14899000Y-9946000D01*
X14899000Y-9866000D02*
X14819000Y-9946000D01*
X14819000Y-10120000D02*
X14899000Y-10200000D01*
X14899000Y-10120000D02*
X14819000Y-10200000D01*
X15073000Y-7326000D02*
X15153000Y-7406000D01*
X15153000Y-7326000D02*
X15073000Y-7406000D01*
X15073000Y-7580000D02*
X15153000Y-7660000D01*
X15153000Y-7580000D02*
X15073000Y-7660000D01*
X15073000Y-9866000D02*
X15153000Y-9946000D01*
X15153000Y-9866000D02*
X15073000Y-9946000D01*
X15073000Y-10120000D02*
X15153000Y-10200000D01*
X15153000Y-10120000D02*
X15073000Y-10200000D01*
X15327000Y-7326000D02*
X15407000Y-7406000D01*
X15407000Y-7326000D02*
X15327000Y-7406000D01*
X15327000Y-7580000D02*
X15407000Y-7660000D01*
X15407000Y-7580000D02*
X15327000Y-7660000D01*
X15327000Y-9866000D02*
X15407000Y-9946000D01*
X15407000Y-9866000D02*
X15327000Y-9946000D01*
X15327000Y-10120000D02*
X15407000Y-10200000D01*
X15407000Y-10120000D02*
X15327000Y-10200000D01*
X15581000Y-7326000D02*
X15661000Y-7406000D01*
X15661000Y-7326000D02*
X15581000Y-7406000D01*
X15581000Y-7580000D02*
X15661000Y-7660000D01*
X15661000Y-7580000D02*
X15581000Y-7660000D01*
X15581000Y-9866000D02*
X15661000Y-9946000D01*
X15661000Y-9866000D02*
X15581000Y-9946000D01*
X15581000Y-10120000D02*
X15661000Y-10200000D01*
X15661000Y-10120000D02*
X15581000Y-10200000D01*
X15835000Y-7326000D02*
X15915000Y-7406000D01*
X15915000Y-7326000D02*
X15835000Y-7406000D01*
X15835000Y-7580000D02*
X15915000Y-7660000D01*
X15915000Y-7580000D02*
X15835000Y-7660000D01*
X15835000Y-9866000D02*
X15915000Y-9946000D01*
X15915000Y-9866000D02*
X15835000Y-9946000D01*
X15835000Y-10120000D02*
X15915000Y-10200000D01*
X15915000Y-10120000D02*
X15835000Y-10200000D01*
X16978000Y-10882000D02*
X17058000Y-10962000D01*
X17058000Y-10882000D02*
X16978000Y-10962000D01*
X16978000Y-11136000D02*
X17058000Y-11216000D01*
X17058000Y-11136000D02*
X16978000Y-11216000D01*
X16978000Y-11390000D02*
X17058000Y-11470000D01*
X17058000Y-11390000D02*
X16978000Y-11470000D01*
X16978000Y-11644000D02*
X17058000Y-11724000D01*
X17058000Y-11644000D02*
X16978000Y-11724000D01*
X16978000Y-11898000D02*
X17058000Y-11978000D01*
X17058000Y-11898000D02*
X16978000Y-11978000D01*
X16978000Y-12152000D02*
X17058000Y-12232000D01*
X17058000Y-12152000D02*
X16978000Y-12232000D01*
X13758500Y-8128000D02*
G75*
G03*
X13758500Y-8128000I-42500J0D01*
G01*
X13758500Y-8382000D02*
G75*
G03*
X13758500Y-8382000I-42500J0D01*
G01*
X13758500Y-8636000D02*
G75*
G03*
X13758500Y-8636000I-42500J0D01*
G01*
X13758500Y-8890000D02*
G75*
G03*
X13758500Y-8890000I-42500J0D01*
G01*
X13758500Y-9144000D02*
G75*
G03*
X13758500Y-9144000I-42500J0D01*
G01*
X12700000Y-10242000D02*
X12700000Y-10332000D01*
X12655000Y-10287000D02*
X12745000Y-10287000D01*
X12700000Y-10496000D02*
X12700000Y-10586000D01*
X12655000Y-10541000D02*
X12745000Y-10541000D01*
X14259356Y-10703356D02*
X14259356Y-10632644D01*
X14188644Y-10632644D01*
X14188644Y-10703356D01*
X14259356Y-10703356D01*
X14513356Y-10703356D02*
X14513356Y-10632644D01*
X14442644Y-10632644D01*
X14442644Y-10703356D01*
X14513356Y-10703356D01*
X14767356Y-10703356D02*
X14767356Y-10632644D01*
X14696644Y-10632644D01*
X14696644Y-10703356D01*
X14767356Y-10703356D01*
X15021356Y-10703356D02*
X15021356Y-10632644D01*
X14950644Y-10632644D01*
X14950644Y-10703356D01*
X15021356Y-10703356D01*
X15275356Y-10703356D02*
X15275356Y-10632644D01*
X15204644Y-10632644D01*
X15204644Y-10703356D01*
X15275356Y-10703356D01*
X15529356Y-10703356D02*
X15529356Y-10632644D01*
X15458644Y-10632644D01*
X15458644Y-10703356D01*
X15529356Y-10703356D01*
X15783356Y-10703356D02*
X15783356Y-10632644D01*
X15712644Y-10632644D01*
X15712644Y-10703356D01*
X15783356Y-10703356D01*
X16037356Y-10703356D02*
X16037356Y-10632644D01*
X15966644Y-10632644D01*
X15966644Y-10703356D01*
X16037356Y-10703356D01*
X12446000Y-12268000D02*
X12522000Y-12192000D01*
X12446000Y-12116000D01*
X12370000Y-12192000D01*
X12446000Y-12268000D01*
X12954000Y-12268000D02*
X13030000Y-12192000D01*
X12954000Y-12116000D01*
X12878000Y-12192000D01*
X12954000Y-12268000D01*
D12*
X11708928Y-13808214D02*
X11708928Y-13508214D01*
X11780357Y-13508214D01*
X11823214Y-13522500D01*
X11851786Y-13551071D01*
X11866071Y-13579643D01*
X11880357Y-13636786D01*
X11880357Y-13679643D01*
X11866071Y-13736786D01*
X11851786Y-13765357D01*
X11823214Y-13793929D01*
X11780357Y-13808214D01*
X11708928Y-13808214D01*
X12008928Y-13808214D02*
X12008928Y-13608214D01*
X12008928Y-13665357D02*
X12023214Y-13636786D01*
X12037500Y-13622500D01*
X12066071Y-13608214D01*
X12094643Y-13608214D01*
X12194643Y-13808214D02*
X12194643Y-13608214D01*
X12194643Y-13508214D02*
X12180357Y-13522500D01*
X12194643Y-13536786D01*
X12208928Y-13522500D01*
X12194643Y-13508214D01*
X12194643Y-13536786D01*
X12380357Y-13808214D02*
X12351786Y-13793929D01*
X12337500Y-13765357D01*
X12337500Y-13508214D01*
X12537500Y-13808214D02*
X12508928Y-13793929D01*
X12494643Y-13765357D01*
X12494643Y-13508214D01*
X12880357Y-13808214D02*
X12880357Y-13508214D01*
X12980357Y-13722500D01*
X13080357Y-13508214D01*
X13080357Y-13808214D01*
X13351786Y-13808214D02*
X13351786Y-13651071D01*
X13337500Y-13622500D01*
X13308928Y-13608214D01*
X13251786Y-13608214D01*
X13223214Y-13622500D01*
X13351786Y-13793929D02*
X13323214Y-13808214D01*
X13251786Y-13808214D01*
X13223214Y-13793929D01*
X13208928Y-13765357D01*
X13208928Y-13736786D01*
X13223214Y-13708214D01*
X13251786Y-13693929D01*
X13323214Y-13693929D01*
X13351786Y-13679643D01*
X13494643Y-13608214D02*
X13494643Y-13908214D01*
X13494643Y-13622500D02*
X13523214Y-13608214D01*
X13580357Y-13608214D01*
X13608928Y-13622500D01*
X13623214Y-13636786D01*
X13637500Y-13665357D01*
X13637500Y-13751071D01*
X13623214Y-13779643D01*
X13608928Y-13793929D01*
X13580357Y-13808214D01*
X13523214Y-13808214D01*
X13494643Y-13793929D01*
X13766071Y-13779643D02*
X13780357Y-13793929D01*
X13766071Y-13808214D01*
X13751786Y-13793929D01*
X13766071Y-13779643D01*
X13766071Y-13808214D01*
X13766071Y-13622500D02*
X13780357Y-13636786D01*
X13766071Y-13651071D01*
X13751786Y-13636786D01*
X13766071Y-13622500D01*
X13766071Y-13651071D01*
X11342500Y-14262500D02*
X11422500Y-14342500D01*
X11422500Y-14262500D02*
X11342500Y-14342500D01*
X11766071Y-14138214D02*
X11794643Y-14138214D01*
X11823214Y-14152500D01*
X11837500Y-14166786D01*
X11851786Y-14195357D01*
X11866071Y-14252500D01*
X11866071Y-14323929D01*
X11851786Y-14381071D01*
X11837500Y-14409643D01*
X11823214Y-14423929D01*
X11794643Y-14438214D01*
X11766071Y-14438214D01*
X11737500Y-14423929D01*
X11723214Y-14409643D01*
X11708928Y-14381071D01*
X11694643Y-14323929D01*
X11694643Y-14252500D01*
X11708928Y-14195357D01*
X11723214Y-14166786D01*
X11737500Y-14152500D01*
X11766071Y-14138214D01*
X11994643Y-14409643D02*
X12008928Y-14423929D01*
X11994643Y-14438214D01*
X11980357Y-14423929D01*
X11994643Y-14409643D01*
X11994643Y-14438214D01*
X12180357Y-14266786D02*
X12151786Y-14252500D01*
X12137500Y-14238214D01*
X12123214Y-14209643D01*
X12123214Y-14195357D01*
X12137500Y-14166786D01*
X12151786Y-14152500D01*
X12180357Y-14138214D01*
X12237500Y-14138214D01*
X12266071Y-14152500D01*
X12280357Y-14166786D01*
X12294643Y-14195357D01*
X12294643Y-14209643D01*
X12280357Y-14238214D01*
X12266071Y-14252500D01*
X12237500Y-14266786D01*
X12180357Y-14266786D01*
X12151786Y-14281071D01*
X12137500Y-14295357D01*
X12123214Y-14323929D01*
X12123214Y-14381071D01*
X12137500Y-14409643D01*
X12151786Y-14423929D01*
X12180357Y-14438214D01*
X12237500Y-14438214D01*
X12266071Y-14423929D01*
X12280357Y-14409643D01*
X12294643Y-14381071D01*
X12294643Y-14323929D01*
X12280357Y-14295357D01*
X12266071Y-14281071D01*
X12237500Y-14266786D01*
X12480357Y-14138214D02*
X12508928Y-14138214D01*
X12537500Y-14152500D01*
X12551786Y-14166786D01*
X12566071Y-14195357D01*
X12580357Y-14252500D01*
X12580357Y-14323929D01*
X12566071Y-14381071D01*
X12551786Y-14409643D01*
X12537500Y-14423929D01*
X12508928Y-14438214D01*
X12480357Y-14438214D01*
X12451786Y-14423929D01*
X12437500Y-14409643D01*
X12423214Y-14381071D01*
X12408928Y-14323929D01*
X12408928Y-14252500D01*
X12423214Y-14195357D01*
X12437500Y-14166786D01*
X12451786Y-14152500D01*
X12480357Y-14138214D01*
X12766071Y-14138214D02*
X12794643Y-14138214D01*
X12823214Y-14152500D01*
X12837500Y-14166786D01*
X12851786Y-14195357D01*
X12866071Y-14252500D01*
X12866071Y-14323929D01*
X12851786Y-14381071D01*
X12837500Y-14409643D01*
X12823214Y-14423929D01*
X12794643Y-14438214D01*
X12766071Y-14438214D01*
X12737500Y-14423929D01*
X12723214Y-14409643D01*
X12708928Y-14381071D01*
X12694643Y-14323929D01*
X12694643Y-14252500D01*
X12708928Y-14195357D01*
X12723214Y-14166786D01*
X12737500Y-14152500D01*
X12766071Y-14138214D01*
X12994643Y-14438214D02*
X12994643Y-14238214D01*
X12994643Y-14266786D02*
X13008928Y-14252500D01*
X13037500Y-14238214D01*
X13080357Y-14238214D01*
X13108928Y-14252500D01*
X13123214Y-14281071D01*
X13123214Y-14438214D01*
X13123214Y-14281071D02*
X13137500Y-14252500D01*
X13166071Y-14238214D01*
X13208928Y-14238214D01*
X13237500Y-14252500D01*
X13251786Y-14281071D01*
X13251786Y-14438214D01*
X13394643Y-14438214D02*
X13394643Y-14238214D01*
X13394643Y-14266786D02*
X13408928Y-14252500D01*
X13437500Y-14238214D01*
X13480357Y-14238214D01*
X13508928Y-14252500D01*
X13523214Y-14281071D01*
X13523214Y-14438214D01*
X13523214Y-14281071D02*
X13537500Y-14252500D01*
X13566071Y-14238214D01*
X13608928Y-14238214D01*
X13637500Y-14252500D01*
X13651786Y-14281071D01*
X13651786Y-14438214D01*
X14237500Y-14123929D02*
X13980357Y-14509643D01*
X14623214Y-14138214D02*
X14651786Y-14138214D01*
X14680357Y-14152500D01*
X14694643Y-14166786D01*
X14708928Y-14195357D01*
X14723214Y-14252500D01*
X14723214Y-14323929D01*
X14708928Y-14381071D01*
X14694643Y-14409643D01*
X14680357Y-14423929D01*
X14651786Y-14438214D01*
X14623214Y-14438214D01*
X14594643Y-14423929D01*
X14580357Y-14409643D01*
X14566071Y-14381071D01*
X14551786Y-14323929D01*
X14551786Y-14252500D01*
X14566071Y-14195357D01*
X14580357Y-14166786D01*
X14594643Y-14152500D01*
X14623214Y-14138214D01*
X14851786Y-14409643D02*
X14866071Y-14423929D01*
X14851786Y-14438214D01*
X14837500Y-14423929D01*
X14851786Y-14409643D01*
X14851786Y-14438214D01*
X15051786Y-14138214D02*
X15080357Y-14138214D01*
X15108928Y-14152500D01*
X15123214Y-14166786D01*
X15137500Y-14195357D01*
X15151786Y-14252500D01*
X15151786Y-14323929D01*
X15137500Y-14381071D01*
X15123214Y-14409643D01*
X15108928Y-14423929D01*
X15080357Y-14438214D01*
X15051786Y-14438214D01*
X15023214Y-14423929D01*
X15008928Y-14409643D01*
X14994643Y-14381071D01*
X14980357Y-14323929D01*
X14980357Y-14252500D01*
X14994643Y-14195357D01*
X15008928Y-14166786D01*
X15023214Y-14152500D01*
X15051786Y-14138214D01*
X15251786Y-14138214D02*
X15437500Y-14138214D01*
X15337500Y-14252500D01*
X15380357Y-14252500D01*
X15408928Y-14266786D01*
X15423214Y-14281071D01*
X15437500Y-14309643D01*
X15437500Y-14381071D01*
X15423214Y-14409643D01*
X15408928Y-14423929D01*
X15380357Y-14438214D01*
X15294643Y-14438214D01*
X15266071Y-14423929D01*
X15251786Y-14409643D01*
X15723214Y-14438214D02*
X15551786Y-14438214D01*
X15637500Y-14438214D02*
X15637500Y-14138214D01*
X15608928Y-14181071D01*
X15580357Y-14209643D01*
X15551786Y-14223929D01*
X15994643Y-14138214D02*
X15851786Y-14138214D01*
X15837500Y-14281071D01*
X15851786Y-14266786D01*
X15880357Y-14252500D01*
X15951786Y-14252500D01*
X15980357Y-14266786D01*
X15994643Y-14281071D01*
X16008928Y-14309643D01*
X16008928Y-14381071D01*
X15994643Y-14409643D01*
X15980357Y-14423929D01*
X15951786Y-14438214D01*
X15880357Y-14438214D01*
X15851786Y-14423929D01*
X15837500Y-14409643D01*
X16123214Y-14138214D02*
X16123214Y-14195357D01*
X16237500Y-14138214D02*
X16237500Y-14195357D01*
X16680357Y-14552500D02*
X16666071Y-14538214D01*
X16637500Y-14495357D01*
X16623214Y-14466786D01*
X16608928Y-14423929D01*
X16594643Y-14352500D01*
X16594643Y-14295357D01*
X16608928Y-14223929D01*
X16623214Y-14181071D01*
X16637500Y-14152500D01*
X16666071Y-14109643D01*
X16680357Y-14095357D01*
X16923214Y-14138214D02*
X16866071Y-14138214D01*
X16837500Y-14152500D01*
X16823214Y-14166786D01*
X16794643Y-14209643D01*
X16780357Y-14266786D01*
X16780357Y-14381071D01*
X16794643Y-14409643D01*
X16808928Y-14423929D01*
X16837500Y-14438214D01*
X16894643Y-14438214D01*
X16923214Y-14423929D01*
X16937500Y-14409643D01*
X16951786Y-14381071D01*
X16951786Y-14309643D01*
X16937500Y-14281071D01*
X16923214Y-14266786D01*
X16894643Y-14252500D01*
X16837500Y-14252500D01*
X16808928Y-14266786D01*
X16794643Y-14281071D01*
X16780357Y-14309643D01*
X17137500Y-14138214D02*
X17166071Y-14138214D01*
X17194643Y-14152500D01*
X17208928Y-14166786D01*
X17223214Y-14195357D01*
X17237500Y-14252500D01*
X17237500Y-14323929D01*
X17223214Y-14381071D01*
X17208928Y-14409643D01*
X17194643Y-14423929D01*
X17166071Y-14438214D01*
X17137500Y-14438214D01*
X17108928Y-14423929D01*
X17094643Y-14409643D01*
X17080357Y-14381071D01*
X17066071Y-14323929D01*
X17066071Y-14252500D01*
X17080357Y-14195357D01*
X17094643Y-14166786D01*
X17108928Y-14152500D01*
X17137500Y-14138214D01*
X17594643Y-14438214D02*
X17594643Y-14138214D01*
X17723214Y-14438214D02*
X17723214Y-14281071D01*
X17708928Y-14252500D01*
X17680357Y-14238214D01*
X17637500Y-14238214D01*
X17608928Y-14252500D01*
X17594643Y-14266786D01*
X17908928Y-14438214D02*
X17880357Y-14423929D01*
X17866071Y-14409643D01*
X17851786Y-14381071D01*
X17851786Y-14295357D01*
X17866071Y-14266786D01*
X17880357Y-14252500D01*
X17908928Y-14238214D01*
X17951786Y-14238214D01*
X17980357Y-14252500D01*
X17994643Y-14266786D01*
X18008928Y-14295357D01*
X18008928Y-14381071D01*
X17994643Y-14409643D01*
X17980357Y-14423929D01*
X17951786Y-14438214D01*
X17908928Y-14438214D01*
X18180357Y-14438214D02*
X18151786Y-14423929D01*
X18137500Y-14395357D01*
X18137500Y-14138214D01*
X18408928Y-14423929D02*
X18380357Y-14438214D01*
X18323214Y-14438214D01*
X18294643Y-14423929D01*
X18280357Y-14395357D01*
X18280357Y-14281071D01*
X18294643Y-14252500D01*
X18323214Y-14238214D01*
X18380357Y-14238214D01*
X18408928Y-14252500D01*
X18423214Y-14281071D01*
X18423214Y-14309643D01*
X18280357Y-14338214D01*
X18537500Y-14423929D02*
X18566071Y-14438214D01*
X18623214Y-14438214D01*
X18651786Y-14423929D01*
X18666071Y-14395357D01*
X18666071Y-14381071D01*
X18651786Y-14352500D01*
X18623214Y-14338214D01*
X18580357Y-14338214D01*
X18551786Y-14323929D01*
X18537500Y-14295357D01*
X18537500Y-14281071D01*
X18551786Y-14252500D01*
X18580357Y-14238214D01*
X18623214Y-14238214D01*
X18651786Y-14252500D01*
X18766071Y-14552500D02*
X18780357Y-14538214D01*
X18808928Y-14495357D01*
X18823214Y-14466786D01*
X18837500Y-14423929D01*
X18851786Y-14352500D01*
X18851786Y-14295357D01*
X18837500Y-14223929D01*
X18823214Y-14181071D01*
X18808928Y-14152500D01*
X18780357Y-14109643D01*
X18766071Y-14095357D01*
X11422500Y-14698500D02*
G75*
G03*
X11422500Y-14698500I-42500J0D01*
G01*
X11766071Y-14534214D02*
X11794643Y-14534214D01*
X11823214Y-14548500D01*
X11837500Y-14562786D01*
X11851786Y-14591357D01*
X11866071Y-14648500D01*
X11866071Y-14719929D01*
X11851786Y-14777071D01*
X11837500Y-14805643D01*
X11823214Y-14819929D01*
X11794643Y-14834214D01*
X11766071Y-14834214D01*
X11737500Y-14819929D01*
X11723214Y-14805643D01*
X11708928Y-14777071D01*
X11694643Y-14719929D01*
X11694643Y-14648500D01*
X11708928Y-14591357D01*
X11723214Y-14562786D01*
X11737500Y-14548500D01*
X11766071Y-14534214D01*
X11994643Y-14805643D02*
X12008928Y-14819929D01*
X11994643Y-14834214D01*
X11980357Y-14819929D01*
X11994643Y-14805643D01*
X11994643Y-14834214D01*
X12180357Y-14662786D02*
X12151786Y-14648500D01*
X12137500Y-14634214D01*
X12123214Y-14605643D01*
X12123214Y-14591357D01*
X12137500Y-14562786D01*
X12151786Y-14548500D01*
X12180357Y-14534214D01*
X12237500Y-14534214D01*
X12266071Y-14548500D01*
X12280357Y-14562786D01*
X12294643Y-14591357D01*
X12294643Y-14605643D01*
X12280357Y-14634214D01*
X12266071Y-14648500D01*
X12237500Y-14662786D01*
X12180357Y-14662786D01*
X12151786Y-14677071D01*
X12137500Y-14691357D01*
X12123214Y-14719929D01*
X12123214Y-14777071D01*
X12137500Y-14805643D01*
X12151786Y-14819929D01*
X12180357Y-14834214D01*
X12237500Y-14834214D01*
X12266071Y-14819929D01*
X12280357Y-14805643D01*
X12294643Y-14777071D01*
X12294643Y-14719929D01*
X12280357Y-14691357D01*
X12266071Y-14677071D01*
X12237500Y-14662786D01*
X12566071Y-14534214D02*
X12423214Y-14534214D01*
X12408928Y-14677071D01*
X12423214Y-14662786D01*
X12451786Y-14648500D01*
X12523214Y-14648500D01*
X12551786Y-14662786D01*
X12566071Y-14677071D01*
X12580357Y-14705643D01*
X12580357Y-14777071D01*
X12566071Y-14805643D01*
X12551786Y-14819929D01*
X12523214Y-14834214D01*
X12451786Y-14834214D01*
X12423214Y-14819929D01*
X12408928Y-14805643D01*
X12766071Y-14534214D02*
X12794643Y-14534214D01*
X12823214Y-14548500D01*
X12837500Y-14562786D01*
X12851786Y-14591357D01*
X12866071Y-14648500D01*
X12866071Y-14719929D01*
X12851786Y-14777071D01*
X12837500Y-14805643D01*
X12823214Y-14819929D01*
X12794643Y-14834214D01*
X12766071Y-14834214D01*
X12737500Y-14819929D01*
X12723214Y-14805643D01*
X12708928Y-14777071D01*
X12694643Y-14719929D01*
X12694643Y-14648500D01*
X12708928Y-14591357D01*
X12723214Y-14562786D01*
X12737500Y-14548500D01*
X12766071Y-14534214D01*
X12994643Y-14834214D02*
X12994643Y-14634214D01*
X12994643Y-14662786D02*
X13008928Y-14648500D01*
X13037500Y-14634214D01*
X13080357Y-14634214D01*
X13108928Y-14648500D01*
X13123214Y-14677071D01*
X13123214Y-14834214D01*
X13123214Y-14677071D02*
X13137500Y-14648500D01*
X13166071Y-14634214D01*
X13208928Y-14634214D01*
X13237500Y-14648500D01*
X13251786Y-14677071D01*
X13251786Y-14834214D01*
X13394643Y-14834214D02*
X13394643Y-14634214D01*
X13394643Y-14662786D02*
X13408928Y-14648500D01*
X13437500Y-14634214D01*
X13480357Y-14634214D01*
X13508928Y-14648500D01*
X13523214Y-14677071D01*
X13523214Y-14834214D01*
X13523214Y-14677071D02*
X13537500Y-14648500D01*
X13566071Y-14634214D01*
X13608928Y-14634214D01*
X13637500Y-14648500D01*
X13651786Y-14677071D01*
X13651786Y-14834214D01*
X14237500Y-14519929D02*
X13980357Y-14905643D01*
X14623214Y-14534214D02*
X14651786Y-14534214D01*
X14680357Y-14548500D01*
X14694643Y-14562786D01*
X14708928Y-14591357D01*
X14723214Y-14648500D01*
X14723214Y-14719929D01*
X14708928Y-14777071D01*
X14694643Y-14805643D01*
X14680357Y-14819929D01*
X14651786Y-14834214D01*
X14623214Y-14834214D01*
X14594643Y-14819929D01*
X14580357Y-14805643D01*
X14566071Y-14777071D01*
X14551786Y-14719929D01*
X14551786Y-14648500D01*
X14566071Y-14591357D01*
X14580357Y-14562786D01*
X14594643Y-14548500D01*
X14623214Y-14534214D01*
X14851786Y-14805643D02*
X14866071Y-14819929D01*
X14851786Y-14834214D01*
X14837500Y-14819929D01*
X14851786Y-14805643D01*
X14851786Y-14834214D01*
X15051786Y-14534214D02*
X15080357Y-14534214D01*
X15108928Y-14548500D01*
X15123214Y-14562786D01*
X15137500Y-14591357D01*
X15151786Y-14648500D01*
X15151786Y-14719929D01*
X15137500Y-14777071D01*
X15123214Y-14805643D01*
X15108928Y-14819929D01*
X15080357Y-14834214D01*
X15051786Y-14834214D01*
X15023214Y-14819929D01*
X15008928Y-14805643D01*
X14994643Y-14777071D01*
X14980357Y-14719929D01*
X14980357Y-14648500D01*
X14994643Y-14591357D01*
X15008928Y-14562786D01*
X15023214Y-14548500D01*
X15051786Y-14534214D01*
X15251786Y-14534214D02*
X15437500Y-14534214D01*
X15337500Y-14648500D01*
X15380357Y-14648500D01*
X15408928Y-14662786D01*
X15423214Y-14677071D01*
X15437500Y-14705643D01*
X15437500Y-14777071D01*
X15423214Y-14805643D01*
X15408928Y-14819929D01*
X15380357Y-14834214D01*
X15294643Y-14834214D01*
X15266071Y-14819929D01*
X15251786Y-14805643D01*
X15537500Y-14534214D02*
X15723214Y-14534214D01*
X15623214Y-14648500D01*
X15666071Y-14648500D01*
X15694643Y-14662786D01*
X15708928Y-14677071D01*
X15723214Y-14705643D01*
X15723214Y-14777071D01*
X15708928Y-14805643D01*
X15694643Y-14819929D01*
X15666071Y-14834214D01*
X15580357Y-14834214D01*
X15551786Y-14819929D01*
X15537500Y-14805643D01*
X15994643Y-14534214D02*
X15851786Y-14534214D01*
X15837500Y-14677071D01*
X15851786Y-14662786D01*
X15880357Y-14648500D01*
X15951786Y-14648500D01*
X15980357Y-14662786D01*
X15994643Y-14677071D01*
X16008928Y-14705643D01*
X16008928Y-14777071D01*
X15994643Y-14805643D01*
X15980357Y-14819929D01*
X15951786Y-14834214D01*
X15880357Y-14834214D01*
X15851786Y-14819929D01*
X15837500Y-14805643D01*
X16123214Y-14534214D02*
X16123214Y-14591357D01*
X16237500Y-14534214D02*
X16237500Y-14591357D01*
X16680357Y-14948500D02*
X16666071Y-14934214D01*
X16637500Y-14891357D01*
X16623214Y-14862786D01*
X16608928Y-14819929D01*
X16594643Y-14748500D01*
X16594643Y-14691357D01*
X16608928Y-14619929D01*
X16623214Y-14577071D01*
X16637500Y-14548500D01*
X16666071Y-14505643D01*
X16680357Y-14491357D01*
X16937500Y-14534214D02*
X16794643Y-14534214D01*
X16780357Y-14677071D01*
X16794643Y-14662786D01*
X16823214Y-14648500D01*
X16894643Y-14648500D01*
X16923214Y-14662786D01*
X16937500Y-14677071D01*
X16951786Y-14705643D01*
X16951786Y-14777071D01*
X16937500Y-14805643D01*
X16923214Y-14819929D01*
X16894643Y-14834214D01*
X16823214Y-14834214D01*
X16794643Y-14819929D01*
X16780357Y-14805643D01*
X17308928Y-14834214D02*
X17308928Y-14534214D01*
X17437500Y-14834214D02*
X17437500Y-14677071D01*
X17423214Y-14648500D01*
X17394643Y-14634214D01*
X17351786Y-14634214D01*
X17323214Y-14648500D01*
X17308928Y-14662786D01*
X17623214Y-14834214D02*
X17594643Y-14819929D01*
X17580357Y-14805643D01*
X17566071Y-14777071D01*
X17566071Y-14691357D01*
X17580357Y-14662786D01*
X17594643Y-14648500D01*
X17623214Y-14634214D01*
X17666071Y-14634214D01*
X17694643Y-14648500D01*
X17708928Y-14662786D01*
X17723214Y-14691357D01*
X17723214Y-14777071D01*
X17708928Y-14805643D01*
X17694643Y-14819929D01*
X17666071Y-14834214D01*
X17623214Y-14834214D01*
X17894643Y-14834214D02*
X17866071Y-14819929D01*
X17851786Y-14791357D01*
X17851786Y-14534214D01*
X18123214Y-14819929D02*
X18094643Y-14834214D01*
X18037500Y-14834214D01*
X18008928Y-14819929D01*
X17994643Y-14791357D01*
X17994643Y-14677071D01*
X18008928Y-14648500D01*
X18037500Y-14634214D01*
X18094643Y-14634214D01*
X18123214Y-14648500D01*
X18137500Y-14677071D01*
X18137500Y-14705643D01*
X17994643Y-14734214D01*
X18251786Y-14819929D02*
X18280357Y-14834214D01*
X18337500Y-14834214D01*
X18366071Y-14819929D01*
X18380357Y-14791357D01*
X18380357Y-14777071D01*
X18366071Y-14748500D01*
X18337500Y-14734214D01*
X18294643Y-14734214D01*
X18266071Y-14719929D01*
X18251786Y-14691357D01*
X18251786Y-14677071D01*
X18266071Y-14648500D01*
X18294643Y-14634214D01*
X18337500Y-14634214D01*
X18366071Y-14648500D01*
X18480357Y-14948500D02*
X18494643Y-14934214D01*
X18523214Y-14891357D01*
X18537500Y-14862786D01*
X18551786Y-14819929D01*
X18566071Y-14748500D01*
X18566071Y-14691357D01*
X18551786Y-14619929D01*
X18537500Y-14577071D01*
X18523214Y-14548500D01*
X18494643Y-14505643D01*
X18480357Y-14491357D01*
X11377500Y-15049500D02*
X11377500Y-15139500D01*
X11332500Y-15094500D02*
X11422500Y-15094500D01*
X11766071Y-14930214D02*
X11794643Y-14930214D01*
X11823214Y-14944500D01*
X11837500Y-14958786D01*
X11851786Y-14987357D01*
X11866071Y-15044500D01*
X11866071Y-15115929D01*
X11851786Y-15173071D01*
X11837500Y-15201643D01*
X11823214Y-15215929D01*
X11794643Y-15230214D01*
X11766071Y-15230214D01*
X11737500Y-15215929D01*
X11723214Y-15201643D01*
X11708928Y-15173071D01*
X11694643Y-15115929D01*
X11694643Y-15044500D01*
X11708928Y-14987357D01*
X11723214Y-14958786D01*
X11737500Y-14944500D01*
X11766071Y-14930214D01*
X11994643Y-15201643D02*
X12008928Y-15215929D01*
X11994643Y-15230214D01*
X11980357Y-15215929D01*
X11994643Y-15201643D01*
X11994643Y-15230214D01*
X12151786Y-15230214D02*
X12208928Y-15230214D01*
X12237500Y-15215929D01*
X12251786Y-15201643D01*
X12280357Y-15158786D01*
X12294643Y-15101643D01*
X12294643Y-14987357D01*
X12280357Y-14958786D01*
X12266071Y-14944500D01*
X12237500Y-14930214D01*
X12180357Y-14930214D01*
X12151786Y-14944500D01*
X12137500Y-14958786D01*
X12123214Y-14987357D01*
X12123214Y-15058786D01*
X12137500Y-15087357D01*
X12151786Y-15101643D01*
X12180357Y-15115929D01*
X12237500Y-15115929D01*
X12266071Y-15101643D01*
X12280357Y-15087357D01*
X12294643Y-15058786D01*
X12480357Y-14930214D02*
X12508928Y-14930214D01*
X12537500Y-14944500D01*
X12551786Y-14958786D01*
X12566071Y-14987357D01*
X12580357Y-15044500D01*
X12580357Y-15115929D01*
X12566071Y-15173071D01*
X12551786Y-15201643D01*
X12537500Y-15215929D01*
X12508928Y-15230214D01*
X12480357Y-15230214D01*
X12451786Y-15215929D01*
X12437500Y-15201643D01*
X12423214Y-15173071D01*
X12408928Y-15115929D01*
X12408928Y-15044500D01*
X12423214Y-14987357D01*
X12437500Y-14958786D01*
X12451786Y-14944500D01*
X12480357Y-14930214D01*
X12766071Y-14930214D02*
X12794643Y-14930214D01*
X12823214Y-14944500D01*
X12837500Y-14958786D01*
X12851786Y-14987357D01*
X12866071Y-15044500D01*
X12866071Y-15115929D01*
X12851786Y-15173071D01*
X12837500Y-15201643D01*
X12823214Y-15215929D01*
X12794643Y-15230214D01*
X12766071Y-15230214D01*
X12737500Y-15215929D01*
X12723214Y-15201643D01*
X12708928Y-15173071D01*
X12694643Y-15115929D01*
X12694643Y-15044500D01*
X12708928Y-14987357D01*
X12723214Y-14958786D01*
X12737500Y-14944500D01*
X12766071Y-14930214D01*
X12994643Y-15230214D02*
X12994643Y-15030214D01*
X12994643Y-15058786D02*
X13008928Y-15044500D01*
X13037500Y-15030214D01*
X13080357Y-15030214D01*
X13108928Y-15044500D01*
X13123214Y-15073071D01*
X13123214Y-15230214D01*
X13123214Y-15073071D02*
X13137500Y-15044500D01*
X13166071Y-15030214D01*
X13208928Y-15030214D01*
X13237500Y-15044500D01*
X13251786Y-15073071D01*
X13251786Y-15230214D01*
X13394643Y-15230214D02*
X13394643Y-15030214D01*
X13394643Y-15058786D02*
X13408928Y-15044500D01*
X13437500Y-15030214D01*
X13480357Y-15030214D01*
X13508928Y-15044500D01*
X13523214Y-15073071D01*
X13523214Y-15230214D01*
X13523214Y-15073071D02*
X13537500Y-15044500D01*
X13566071Y-15030214D01*
X13608928Y-15030214D01*
X13637500Y-15044500D01*
X13651786Y-15073071D01*
X13651786Y-15230214D01*
X14237500Y-14915929D02*
X13980357Y-15301643D01*
X14623214Y-14930214D02*
X14651786Y-14930214D01*
X14680357Y-14944500D01*
X14694643Y-14958786D01*
X14708928Y-14987357D01*
X14723214Y-15044500D01*
X14723214Y-15115929D01*
X14708928Y-15173071D01*
X14694643Y-15201643D01*
X14680357Y-15215929D01*
X14651786Y-15230214D01*
X14623214Y-15230214D01*
X14594643Y-15215929D01*
X14580357Y-15201643D01*
X14566071Y-15173071D01*
X14551786Y-15115929D01*
X14551786Y-15044500D01*
X14566071Y-14987357D01*
X14580357Y-14958786D01*
X14594643Y-14944500D01*
X14623214Y-14930214D01*
X14851786Y-15201643D02*
X14866071Y-15215929D01*
X14851786Y-15230214D01*
X14837500Y-15215929D01*
X14851786Y-15201643D01*
X14851786Y-15230214D01*
X15051786Y-14930214D02*
X15080357Y-14930214D01*
X15108928Y-14944500D01*
X15123214Y-14958786D01*
X15137500Y-14987357D01*
X15151786Y-15044500D01*
X15151786Y-15115929D01*
X15137500Y-15173071D01*
X15123214Y-15201643D01*
X15108928Y-15215929D01*
X15080357Y-15230214D01*
X15051786Y-15230214D01*
X15023214Y-15215929D01*
X15008928Y-15201643D01*
X14994643Y-15173071D01*
X14980357Y-15115929D01*
X14980357Y-15044500D01*
X14994643Y-14987357D01*
X15008928Y-14958786D01*
X15023214Y-14944500D01*
X15051786Y-14930214D01*
X15251786Y-14930214D02*
X15437500Y-14930214D01*
X15337500Y-15044500D01*
X15380357Y-15044500D01*
X15408928Y-15058786D01*
X15423214Y-15073071D01*
X15437500Y-15101643D01*
X15437500Y-15173071D01*
X15423214Y-15201643D01*
X15408928Y-15215929D01*
X15380357Y-15230214D01*
X15294643Y-15230214D01*
X15266071Y-15215929D01*
X15251786Y-15201643D01*
X15708928Y-14930214D02*
X15566071Y-14930214D01*
X15551786Y-15073071D01*
X15566071Y-15058786D01*
X15594643Y-15044500D01*
X15666071Y-15044500D01*
X15694643Y-15058786D01*
X15708928Y-15073071D01*
X15723214Y-15101643D01*
X15723214Y-15173071D01*
X15708928Y-15201643D01*
X15694643Y-15215929D01*
X15666071Y-15230214D01*
X15594643Y-15230214D01*
X15566071Y-15215929D01*
X15551786Y-15201643D01*
X15980357Y-15030214D02*
X15980357Y-15230214D01*
X15908928Y-14915929D02*
X15837500Y-15130214D01*
X16023214Y-15130214D01*
X16123214Y-14930214D02*
X16123214Y-14987357D01*
X16237500Y-14930214D02*
X16237500Y-14987357D01*
X16680357Y-15344500D02*
X16666071Y-15330214D01*
X16637500Y-15287357D01*
X16623214Y-15258786D01*
X16608928Y-15215929D01*
X16594643Y-15144500D01*
X16594643Y-15087357D01*
X16608928Y-15015929D01*
X16623214Y-14973071D01*
X16637500Y-14944500D01*
X16666071Y-14901643D01*
X16680357Y-14887357D01*
X16780357Y-14958786D02*
X16794643Y-14944500D01*
X16823214Y-14930214D01*
X16894643Y-14930214D01*
X16923214Y-14944500D01*
X16937500Y-14958786D01*
X16951786Y-14987357D01*
X16951786Y-15015929D01*
X16937500Y-15058786D01*
X16766071Y-15230214D01*
X16951786Y-15230214D01*
X17308928Y-15230214D02*
X17308928Y-14930214D01*
X17437500Y-15230214D02*
X17437500Y-15073071D01*
X17423214Y-15044500D01*
X17394643Y-15030214D01*
X17351786Y-15030214D01*
X17323214Y-15044500D01*
X17308928Y-15058786D01*
X17623214Y-15230214D02*
X17594643Y-15215929D01*
X17580357Y-15201643D01*
X17566071Y-15173071D01*
X17566071Y-15087357D01*
X17580357Y-15058786D01*
X17594643Y-15044500D01*
X17623214Y-15030214D01*
X17666071Y-15030214D01*
X17694643Y-15044500D01*
X17708928Y-15058786D01*
X17723214Y-15087357D01*
X17723214Y-15173071D01*
X17708928Y-15201643D01*
X17694643Y-15215929D01*
X17666071Y-15230214D01*
X17623214Y-15230214D01*
X17894643Y-15230214D02*
X17866071Y-15215929D01*
X17851786Y-15187357D01*
X17851786Y-14930214D01*
X18123214Y-15215929D02*
X18094643Y-15230214D01*
X18037500Y-15230214D01*
X18008928Y-15215929D01*
X17994643Y-15187357D01*
X17994643Y-15073071D01*
X18008928Y-15044500D01*
X18037500Y-15030214D01*
X18094643Y-15030214D01*
X18123214Y-15044500D01*
X18137500Y-15073071D01*
X18137500Y-15101643D01*
X17994643Y-15130214D01*
X18251786Y-15215929D02*
X18280357Y-15230214D01*
X18337500Y-15230214D01*
X18366071Y-15215929D01*
X18380357Y-15187357D01*
X18380357Y-15173071D01*
X18366071Y-15144500D01*
X18337500Y-15130214D01*
X18294643Y-15130214D01*
X18266071Y-15115929D01*
X18251786Y-15087357D01*
X18251786Y-15073071D01*
X18266071Y-15044500D01*
X18294643Y-15030214D01*
X18337500Y-15030214D01*
X18366071Y-15044500D01*
X18480357Y-15344500D02*
X18494643Y-15330214D01*
X18523214Y-15287357D01*
X18537500Y-15258786D01*
X18551786Y-15215929D01*
X18566071Y-15144500D01*
X18566071Y-15087357D01*
X18551786Y-15015929D01*
X18537500Y-14973071D01*
X18523214Y-14944500D01*
X18494643Y-14901643D01*
X18480357Y-14887357D01*
X11407856Y-15525856D02*
X11407856Y-15455144D01*
X11337144Y-15455144D01*
X11337144Y-15525856D01*
X11407856Y-15525856D01*
X11866071Y-15626214D02*
X11694643Y-15626214D01*
X11780357Y-15626214D02*
X11780357Y-15326214D01*
X11751786Y-15369071D01*
X11723214Y-15397643D01*
X11694643Y-15411929D01*
X11994643Y-15597643D02*
X12008928Y-15611929D01*
X11994643Y-15626214D01*
X11980357Y-15611929D01*
X11994643Y-15597643D01*
X11994643Y-15626214D01*
X12194643Y-15326214D02*
X12223214Y-15326214D01*
X12251786Y-15340500D01*
X12266071Y-15354786D01*
X12280357Y-15383357D01*
X12294643Y-15440500D01*
X12294643Y-15511929D01*
X12280357Y-15569071D01*
X12266071Y-15597643D01*
X12251786Y-15611929D01*
X12223214Y-15626214D01*
X12194643Y-15626214D01*
X12166071Y-15611929D01*
X12151786Y-15597643D01*
X12137500Y-15569071D01*
X12123214Y-15511929D01*
X12123214Y-15440500D01*
X12137500Y-15383357D01*
X12151786Y-15354786D01*
X12166071Y-15340500D01*
X12194643Y-15326214D01*
X12480357Y-15326214D02*
X12508928Y-15326214D01*
X12537500Y-15340500D01*
X12551786Y-15354786D01*
X12566071Y-15383357D01*
X12580357Y-15440500D01*
X12580357Y-15511929D01*
X12566071Y-15569071D01*
X12551786Y-15597643D01*
X12537500Y-15611929D01*
X12508928Y-15626214D01*
X12480357Y-15626214D01*
X12451786Y-15611929D01*
X12437500Y-15597643D01*
X12423214Y-15569071D01*
X12408928Y-15511929D01*
X12408928Y-15440500D01*
X12423214Y-15383357D01*
X12437500Y-15354786D01*
X12451786Y-15340500D01*
X12480357Y-15326214D01*
X12766071Y-15326214D02*
X12794643Y-15326214D01*
X12823214Y-15340500D01*
X12837500Y-15354786D01*
X12851786Y-15383357D01*
X12866071Y-15440500D01*
X12866071Y-15511929D01*
X12851786Y-15569071D01*
X12837500Y-15597643D01*
X12823214Y-15611929D01*
X12794643Y-15626214D01*
X12766071Y-15626214D01*
X12737500Y-15611929D01*
X12723214Y-15597643D01*
X12708928Y-15569071D01*
X12694643Y-15511929D01*
X12694643Y-15440500D01*
X12708928Y-15383357D01*
X12723214Y-15354786D01*
X12737500Y-15340500D01*
X12766071Y-15326214D01*
X12994643Y-15626214D02*
X12994643Y-15426214D01*
X12994643Y-15454786D02*
X13008928Y-15440500D01*
X13037500Y-15426214D01*
X13080357Y-15426214D01*
X13108928Y-15440500D01*
X13123214Y-15469071D01*
X13123214Y-15626214D01*
X13123214Y-15469071D02*
X13137500Y-15440500D01*
X13166071Y-15426214D01*
X13208928Y-15426214D01*
X13237500Y-15440500D01*
X13251786Y-15469071D01*
X13251786Y-15626214D01*
X13394643Y-15626214D02*
X13394643Y-15426214D01*
X13394643Y-15454786D02*
X13408928Y-15440500D01*
X13437500Y-15426214D01*
X13480357Y-15426214D01*
X13508928Y-15440500D01*
X13523214Y-15469071D01*
X13523214Y-15626214D01*
X13523214Y-15469071D02*
X13537500Y-15440500D01*
X13566071Y-15426214D01*
X13608928Y-15426214D01*
X13637500Y-15440500D01*
X13651786Y-15469071D01*
X13651786Y-15626214D01*
X14237500Y-15311929D02*
X13980357Y-15697643D01*
X14623214Y-15326214D02*
X14651786Y-15326214D01*
X14680357Y-15340500D01*
X14694643Y-15354786D01*
X14708928Y-15383357D01*
X14723214Y-15440500D01*
X14723214Y-15511929D01*
X14708928Y-15569071D01*
X14694643Y-15597643D01*
X14680357Y-15611929D01*
X14651786Y-15626214D01*
X14623214Y-15626214D01*
X14594643Y-15611929D01*
X14580357Y-15597643D01*
X14566071Y-15569071D01*
X14551786Y-15511929D01*
X14551786Y-15440500D01*
X14566071Y-15383357D01*
X14580357Y-15354786D01*
X14594643Y-15340500D01*
X14623214Y-15326214D01*
X14851786Y-15597643D02*
X14866071Y-15611929D01*
X14851786Y-15626214D01*
X14837500Y-15611929D01*
X14851786Y-15597643D01*
X14851786Y-15626214D01*
X15051786Y-15326214D02*
X15080357Y-15326214D01*
X15108928Y-15340500D01*
X15123214Y-15354786D01*
X15137500Y-15383357D01*
X15151786Y-15440500D01*
X15151786Y-15511929D01*
X15137500Y-15569071D01*
X15123214Y-15597643D01*
X15108928Y-15611929D01*
X15080357Y-15626214D01*
X15051786Y-15626214D01*
X15023214Y-15611929D01*
X15008928Y-15597643D01*
X14994643Y-15569071D01*
X14980357Y-15511929D01*
X14980357Y-15440500D01*
X14994643Y-15383357D01*
X15008928Y-15354786D01*
X15023214Y-15340500D01*
X15051786Y-15326214D01*
X15251786Y-15326214D02*
X15437500Y-15326214D01*
X15337500Y-15440500D01*
X15380357Y-15440500D01*
X15408928Y-15454786D01*
X15423214Y-15469071D01*
X15437500Y-15497643D01*
X15437500Y-15569071D01*
X15423214Y-15597643D01*
X15408928Y-15611929D01*
X15380357Y-15626214D01*
X15294643Y-15626214D01*
X15266071Y-15611929D01*
X15251786Y-15597643D01*
X15580357Y-15626214D02*
X15637500Y-15626214D01*
X15666071Y-15611929D01*
X15680357Y-15597643D01*
X15708928Y-15554786D01*
X15723214Y-15497643D01*
X15723214Y-15383357D01*
X15708928Y-15354786D01*
X15694643Y-15340500D01*
X15666071Y-15326214D01*
X15608928Y-15326214D01*
X15580357Y-15340500D01*
X15566071Y-15354786D01*
X15551786Y-15383357D01*
X15551786Y-15454786D01*
X15566071Y-15483357D01*
X15580357Y-15497643D01*
X15608928Y-15511929D01*
X15666071Y-15511929D01*
X15694643Y-15497643D01*
X15708928Y-15483357D01*
X15723214Y-15454786D01*
X15980357Y-15426214D02*
X15980357Y-15626214D01*
X15908928Y-15311929D02*
X15837500Y-15526214D01*
X16023214Y-15526214D01*
X16123214Y-15326214D02*
X16123214Y-15383357D01*
X16237500Y-15326214D02*
X16237500Y-15383357D01*
X16680357Y-15740500D02*
X16666071Y-15726214D01*
X16637500Y-15683357D01*
X16623214Y-15654786D01*
X16608928Y-15611929D01*
X16594643Y-15540500D01*
X16594643Y-15483357D01*
X16608928Y-15411929D01*
X16623214Y-15369071D01*
X16637500Y-15340500D01*
X16666071Y-15297643D01*
X16680357Y-15283357D01*
X16837500Y-15454786D02*
X16808928Y-15440500D01*
X16794643Y-15426214D01*
X16780357Y-15397643D01*
X16780357Y-15383357D01*
X16794643Y-15354786D01*
X16808928Y-15340500D01*
X16837500Y-15326214D01*
X16894643Y-15326214D01*
X16923214Y-15340500D01*
X16937500Y-15354786D01*
X16951786Y-15383357D01*
X16951786Y-15397643D01*
X16937500Y-15426214D01*
X16923214Y-15440500D01*
X16894643Y-15454786D01*
X16837500Y-15454786D01*
X16808928Y-15469071D01*
X16794643Y-15483357D01*
X16780357Y-15511929D01*
X16780357Y-15569071D01*
X16794643Y-15597643D01*
X16808928Y-15611929D01*
X16837500Y-15626214D01*
X16894643Y-15626214D01*
X16923214Y-15611929D01*
X16937500Y-15597643D01*
X16951786Y-15569071D01*
X16951786Y-15511929D01*
X16937500Y-15483357D01*
X16923214Y-15469071D01*
X16894643Y-15454786D01*
X17308928Y-15626214D02*
X17308928Y-15326214D01*
X17437500Y-15626214D02*
X17437500Y-15469071D01*
X17423214Y-15440500D01*
X17394643Y-15426214D01*
X17351786Y-15426214D01*
X17323214Y-15440500D01*
X17308928Y-15454786D01*
X17623214Y-15626214D02*
X17594643Y-15611929D01*
X17580357Y-15597643D01*
X17566071Y-15569071D01*
X17566071Y-15483357D01*
X17580357Y-15454786D01*
X17594643Y-15440500D01*
X17623214Y-15426214D01*
X17666071Y-15426214D01*
X17694643Y-15440500D01*
X17708928Y-15454786D01*
X17723214Y-15483357D01*
X17723214Y-15569071D01*
X17708928Y-15597643D01*
X17694643Y-15611929D01*
X17666071Y-15626214D01*
X17623214Y-15626214D01*
X17894643Y-15626214D02*
X17866071Y-15611929D01*
X17851786Y-15583357D01*
X17851786Y-15326214D01*
X18123214Y-15611929D02*
X18094643Y-15626214D01*
X18037500Y-15626214D01*
X18008928Y-15611929D01*
X17994643Y-15583357D01*
X17994643Y-15469071D01*
X18008928Y-15440500D01*
X18037500Y-15426214D01*
X18094643Y-15426214D01*
X18123214Y-15440500D01*
X18137500Y-15469071D01*
X18137500Y-15497643D01*
X17994643Y-15526214D01*
X18251786Y-15611929D02*
X18280357Y-15626214D01*
X18337500Y-15626214D01*
X18366071Y-15611929D01*
X18380357Y-15583357D01*
X18380357Y-15569071D01*
X18366071Y-15540500D01*
X18337500Y-15526214D01*
X18294643Y-15526214D01*
X18266071Y-15511929D01*
X18251786Y-15483357D01*
X18251786Y-15469071D01*
X18266071Y-15440500D01*
X18294643Y-15426214D01*
X18337500Y-15426214D01*
X18366071Y-15440500D01*
X18480357Y-15740500D02*
X18494643Y-15726214D01*
X18523214Y-15683357D01*
X18537500Y-15654786D01*
X18551786Y-15611929D01*
X18566071Y-15540500D01*
X18566071Y-15483357D01*
X18551786Y-15411929D01*
X18537500Y-15369071D01*
X18523214Y-15340500D01*
X18494643Y-15297643D01*
X18480357Y-15283357D01*
X11346500Y-15962500D02*
X11422500Y-15886500D01*
X11346500Y-15810500D01*
X11270500Y-15886500D01*
X11346500Y-15962500D01*
X11866071Y-16022214D02*
X11694643Y-16022214D01*
X11780357Y-16022214D02*
X11780357Y-15722214D01*
X11751786Y-15765071D01*
X11723214Y-15793643D01*
X11694643Y-15807929D01*
X11994643Y-15993643D02*
X12008928Y-16007929D01*
X11994643Y-16022214D01*
X11980357Y-16007929D01*
X11994643Y-15993643D01*
X11994643Y-16022214D01*
X12280357Y-15722214D02*
X12137500Y-15722214D01*
X12123214Y-15865071D01*
X12137500Y-15850786D01*
X12166071Y-15836500D01*
X12237500Y-15836500D01*
X12266071Y-15850786D01*
X12280357Y-15865071D01*
X12294643Y-15893643D01*
X12294643Y-15965071D01*
X12280357Y-15993643D01*
X12266071Y-16007929D01*
X12237500Y-16022214D01*
X12166071Y-16022214D01*
X12137500Y-16007929D01*
X12123214Y-15993643D01*
X12408928Y-15750786D02*
X12423214Y-15736500D01*
X12451786Y-15722214D01*
X12523214Y-15722214D01*
X12551786Y-15736500D01*
X12566071Y-15750786D01*
X12580357Y-15779357D01*
X12580357Y-15807929D01*
X12566071Y-15850786D01*
X12394643Y-16022214D01*
X12580357Y-16022214D01*
X12766071Y-15722214D02*
X12794643Y-15722214D01*
X12823214Y-15736500D01*
X12837500Y-15750786D01*
X12851786Y-15779357D01*
X12866071Y-15836500D01*
X12866071Y-15907929D01*
X12851786Y-15965071D01*
X12837500Y-15993643D01*
X12823214Y-16007929D01*
X12794643Y-16022214D01*
X12766071Y-16022214D01*
X12737500Y-16007929D01*
X12723214Y-15993643D01*
X12708928Y-15965071D01*
X12694643Y-15907929D01*
X12694643Y-15836500D01*
X12708928Y-15779357D01*
X12723214Y-15750786D01*
X12737500Y-15736500D01*
X12766071Y-15722214D01*
X12994643Y-16022214D02*
X12994643Y-15822214D01*
X12994643Y-15850786D02*
X13008928Y-15836500D01*
X13037500Y-15822214D01*
X13080357Y-15822214D01*
X13108928Y-15836500D01*
X13123214Y-15865071D01*
X13123214Y-16022214D01*
X13123214Y-15865071D02*
X13137500Y-15836500D01*
X13166071Y-15822214D01*
X13208928Y-15822214D01*
X13237500Y-15836500D01*
X13251786Y-15865071D01*
X13251786Y-16022214D01*
X13394643Y-16022214D02*
X13394643Y-15822214D01*
X13394643Y-15850786D02*
X13408928Y-15836500D01*
X13437500Y-15822214D01*
X13480357Y-15822214D01*
X13508928Y-15836500D01*
X13523214Y-15865071D01*
X13523214Y-16022214D01*
X13523214Y-15865071D02*
X13537500Y-15836500D01*
X13566071Y-15822214D01*
X13608928Y-15822214D01*
X13637500Y-15836500D01*
X13651786Y-15865071D01*
X13651786Y-16022214D01*
X14237500Y-15707929D02*
X13980357Y-16093643D01*
X14623214Y-15722214D02*
X14651786Y-15722214D01*
X14680357Y-15736500D01*
X14694643Y-15750786D01*
X14708928Y-15779357D01*
X14723214Y-15836500D01*
X14723214Y-15907929D01*
X14708928Y-15965071D01*
X14694643Y-15993643D01*
X14680357Y-16007929D01*
X14651786Y-16022214D01*
X14623214Y-16022214D01*
X14594643Y-16007929D01*
X14580357Y-15993643D01*
X14566071Y-15965071D01*
X14551786Y-15907929D01*
X14551786Y-15836500D01*
X14566071Y-15779357D01*
X14580357Y-15750786D01*
X14594643Y-15736500D01*
X14623214Y-15722214D01*
X14851786Y-15993643D02*
X14866071Y-16007929D01*
X14851786Y-16022214D01*
X14837500Y-16007929D01*
X14851786Y-15993643D01*
X14851786Y-16022214D01*
X15051786Y-15722214D02*
X15080357Y-15722214D01*
X15108928Y-15736500D01*
X15123214Y-15750786D01*
X15137500Y-15779357D01*
X15151786Y-15836500D01*
X15151786Y-15907929D01*
X15137500Y-15965071D01*
X15123214Y-15993643D01*
X15108928Y-16007929D01*
X15080357Y-16022214D01*
X15051786Y-16022214D01*
X15023214Y-16007929D01*
X15008928Y-15993643D01*
X14994643Y-15965071D01*
X14980357Y-15907929D01*
X14980357Y-15836500D01*
X14994643Y-15779357D01*
X15008928Y-15750786D01*
X15023214Y-15736500D01*
X15051786Y-15722214D01*
X15423214Y-15722214D02*
X15280357Y-15722214D01*
X15266071Y-15865071D01*
X15280357Y-15850786D01*
X15308928Y-15836500D01*
X15380357Y-15836500D01*
X15408928Y-15850786D01*
X15423214Y-15865071D01*
X15437500Y-15893643D01*
X15437500Y-15965071D01*
X15423214Y-15993643D01*
X15408928Y-16007929D01*
X15380357Y-16022214D01*
X15308928Y-16022214D01*
X15280357Y-16007929D01*
X15266071Y-15993643D01*
X15580357Y-16022214D02*
X15637500Y-16022214D01*
X15666071Y-16007929D01*
X15680357Y-15993643D01*
X15708928Y-15950786D01*
X15723214Y-15893643D01*
X15723214Y-15779357D01*
X15708928Y-15750786D01*
X15694643Y-15736500D01*
X15666071Y-15722214D01*
X15608928Y-15722214D01*
X15580357Y-15736500D01*
X15566071Y-15750786D01*
X15551786Y-15779357D01*
X15551786Y-15850786D01*
X15566071Y-15879357D01*
X15580357Y-15893643D01*
X15608928Y-15907929D01*
X15666071Y-15907929D01*
X15694643Y-15893643D01*
X15708928Y-15879357D01*
X15723214Y-15850786D01*
X15894643Y-15850786D02*
X15866071Y-15836500D01*
X15851786Y-15822214D01*
X15837500Y-15793643D01*
X15837500Y-15779357D01*
X15851786Y-15750786D01*
X15866071Y-15736500D01*
X15894643Y-15722214D01*
X15951786Y-15722214D01*
X15980357Y-15736500D01*
X15994643Y-15750786D01*
X16008928Y-15779357D01*
X16008928Y-15793643D01*
X15994643Y-15822214D01*
X15980357Y-15836500D01*
X15951786Y-15850786D01*
X15894643Y-15850786D01*
X15866071Y-15865071D01*
X15851786Y-15879357D01*
X15837500Y-15907929D01*
X15837500Y-15965071D01*
X15851786Y-15993643D01*
X15866071Y-16007929D01*
X15894643Y-16022214D01*
X15951786Y-16022214D01*
X15980357Y-16007929D01*
X15994643Y-15993643D01*
X16008928Y-15965071D01*
X16008928Y-15907929D01*
X15994643Y-15879357D01*
X15980357Y-15865071D01*
X15951786Y-15850786D01*
X16123214Y-15722214D02*
X16123214Y-15779357D01*
X16237500Y-15722214D02*
X16237500Y-15779357D01*
X16680357Y-16136500D02*
X16666071Y-16122214D01*
X16637500Y-16079357D01*
X16623214Y-16050786D01*
X16608928Y-16007929D01*
X16594643Y-15936500D01*
X16594643Y-15879357D01*
X16608928Y-15807929D01*
X16623214Y-15765071D01*
X16637500Y-15736500D01*
X16666071Y-15693643D01*
X16680357Y-15679357D01*
X16780357Y-15750786D02*
X16794643Y-15736500D01*
X16823214Y-15722214D01*
X16894643Y-15722214D01*
X16923214Y-15736500D01*
X16937500Y-15750786D01*
X16951786Y-15779357D01*
X16951786Y-15807929D01*
X16937500Y-15850786D01*
X16766071Y-16022214D01*
X16951786Y-16022214D01*
X17308928Y-16022214D02*
X17308928Y-15722214D01*
X17437500Y-16022214D02*
X17437500Y-15865071D01*
X17423214Y-15836500D01*
X17394643Y-15822214D01*
X17351786Y-15822214D01*
X17323214Y-15836500D01*
X17308928Y-15850786D01*
X17623214Y-16022214D02*
X17594643Y-16007929D01*
X17580357Y-15993643D01*
X17566071Y-15965071D01*
X17566071Y-15879357D01*
X17580357Y-15850786D01*
X17594643Y-15836500D01*
X17623214Y-15822214D01*
X17666071Y-15822214D01*
X17694643Y-15836500D01*
X17708928Y-15850786D01*
X17723214Y-15879357D01*
X17723214Y-15965071D01*
X17708928Y-15993643D01*
X17694643Y-16007929D01*
X17666071Y-16022214D01*
X17623214Y-16022214D01*
X17894643Y-16022214D02*
X17866071Y-16007929D01*
X17851786Y-15979357D01*
X17851786Y-15722214D01*
X18123214Y-16007929D02*
X18094643Y-16022214D01*
X18037500Y-16022214D01*
X18008928Y-16007929D01*
X17994643Y-15979357D01*
X17994643Y-15865071D01*
X18008928Y-15836500D01*
X18037500Y-15822214D01*
X18094643Y-15822214D01*
X18123214Y-15836500D01*
X18137500Y-15865071D01*
X18137500Y-15893643D01*
X17994643Y-15922214D01*
X18251786Y-16007929D02*
X18280357Y-16022214D01*
X18337500Y-16022214D01*
X18366071Y-16007929D01*
X18380357Y-15979357D01*
X18380357Y-15965071D01*
X18366071Y-15936500D01*
X18337500Y-15922214D01*
X18294643Y-15922214D01*
X18266071Y-15907929D01*
X18251786Y-15879357D01*
X18251786Y-15865071D01*
X18266071Y-15836500D01*
X18294643Y-15822214D01*
X18337500Y-15822214D01*
X18366071Y-15836500D01*
X18480357Y-16136500D02*
X18494643Y-16122214D01*
X18523214Y-16079357D01*
X18537500Y-16050786D01*
X18551786Y-16007929D01*
X18566071Y-15936500D01*
X18566071Y-15879357D01*
X18551786Y-15807929D01*
X18537500Y-15765071D01*
X18523214Y-15736500D01*
X18494643Y-15693643D01*
X18480357Y-15679357D01*
M02*
