M48
; DRILL file {KiCad (5.1.12)-1} date 01/06/22 10:15:54
; FORMAT={-:-/ absolute / metric / decimal}
; #@! TF.CreationDate,2022-01-06T10:15:54+01:00
; #@! TF.GenerationSoftware,Kicad,Pcbnew,(5.1.12)-1
; #@! TF.FileFunction,Plated,1,2,PTH
FMAT,2
METRIC
T1C0.800
T2C0.850
T3C0.900
T4C1.000
T5C1.520
%
G90
G05
T1
X119.38Y-96.52
X119.38Y-105.41
X119.38Y-107.91
X121.92Y-113.03
X123.19Y-115.57
X126.92Y-113.03
X127.0Y-96.52
X130.81Y-105.41
X130.81Y-113.03
X130.81Y-115.57
X134.62Y-111.76
X134.62Y-114.3
X134.62Y-116.84
X134.62Y-119.38
X135.89Y-73.66
X135.89Y-76.2
X135.89Y-99.06
X135.89Y-101.6
X138.43Y-73.66
X138.43Y-76.2
X138.43Y-99.06
X138.43Y-101.6
X140.97Y-73.66
X140.97Y-76.2
X140.97Y-99.06
X140.97Y-101.6
X143.51Y-73.66
X143.51Y-76.2
X143.51Y-99.06
X143.51Y-101.6
X146.05Y-73.66
X146.05Y-76.2
X146.05Y-99.06
X146.05Y-101.6
X148.59Y-73.66
X148.59Y-76.2
X148.59Y-99.06
X148.59Y-101.6
X151.13Y-73.66
X151.13Y-76.2
X151.13Y-99.06
X151.13Y-101.6
X153.67Y-73.66
X153.67Y-76.2
X153.67Y-99.06
X153.67Y-101.6
X156.21Y-73.66
X156.21Y-76.2
X156.21Y-99.06
X156.21Y-101.6
X158.75Y-73.66
X158.75Y-76.2
X158.75Y-99.06
X158.75Y-101.6
X170.18Y-109.22
X170.18Y-111.76
X170.18Y-114.3
X170.18Y-116.84
X170.18Y-119.38
X170.18Y-121.92
T2
X137.16Y-81.28
X137.16Y-83.82
X137.16Y-86.36
X137.16Y-88.9
X137.16Y-91.44
T3
X127.0Y-102.87
X127.0Y-105.41
T4
X142.24Y-106.68
X144.78Y-106.68
X147.32Y-106.68
X149.86Y-106.68
X152.4Y-106.68
X154.94Y-106.68
X157.48Y-106.68
X160.02Y-106.68
T5
X124.46Y-121.92
X129.54Y-121.92
T0
M30
