G04 #@! TF.GenerationSoftware,KiCad,Pcbnew,(5.1.12)-1*
G04 #@! TF.CreationDate,2022-01-06T10:15:51+01:00*
G04 #@! TF.ProjectId,EmlaLockSafe_Controller_Board,456d6c61-4c6f-4636-9b53-6166655f436f,2.0*
G04 #@! TF.SameCoordinates,Original*
G04 #@! TF.FileFunction,Copper,L2,Bot*
G04 #@! TF.FilePolarity,Positive*
%FSLAX46Y46*%
G04 Gerber Fmt 4.6, Leading zero omitted, Abs format (unit mm)*
G04 Created by KiCad (PCBNEW (5.1.12)-1) date 2022-01-06 10:15:51*
%MOMM*%
%LPD*%
G01*
G04 APERTURE LIST*
G04 #@! TA.AperFunction,ComponentPad*
%ADD10C,1.800000*%
G04 #@! TD*
G04 #@! TA.AperFunction,ComponentPad*
%ADD11C,1.400000*%
G04 #@! TD*
G04 #@! TA.AperFunction,ComponentPad*
%ADD12O,2.000000X1.200000*%
G04 #@! TD*
G04 #@! TA.AperFunction,ComponentPad*
%ADD13O,1.600000X1.600000*%
G04 #@! TD*
G04 #@! TA.AperFunction,ComponentPad*
%ADD14C,1.600000*%
G04 #@! TD*
G04 #@! TA.AperFunction,ComponentPad*
%ADD15O,1.700000X1.700000*%
G04 #@! TD*
G04 #@! TA.AperFunction,ComponentPad*
%ADD16R,1.700000X1.700000*%
G04 #@! TD*
G04 #@! TA.AperFunction,ComponentPad*
%ADD17R,1.800000X1.800000*%
G04 #@! TD*
G04 #@! TA.AperFunction,ComponentPad*
%ADD18R,1.600000X1.600000*%
G04 #@! TD*
G04 #@! TA.AperFunction,ComponentPad*
%ADD19C,3.000000*%
G04 #@! TD*
G04 #@! TA.AperFunction,ComponentPad*
%ADD20R,3.000000X3.000000*%
G04 #@! TD*
G04 #@! TA.AperFunction,Conductor*
%ADD21C,0.500000*%
G04 #@! TD*
G04 #@! TA.AperFunction,Conductor*
%ADD22C,0.250000*%
G04 #@! TD*
G04 APERTURE END LIST*
D10*
X137160000Y-91440000D03*
X137160000Y-88900000D03*
X137160000Y-86360000D03*
X137160000Y-83820000D03*
X137160000Y-81280000D03*
D11*
X158750000Y-76200000D03*
X158750000Y-73660000D03*
X156210000Y-73660000D03*
X156210000Y-76200000D03*
X153670000Y-73660000D03*
X153670000Y-76200000D03*
X151130000Y-73660000D03*
X151130000Y-76200000D03*
X148590000Y-73660000D03*
X148590000Y-76200000D03*
X146050000Y-73660000D03*
X146050000Y-76200000D03*
X143510000Y-73660000D03*
X143510000Y-76200000D03*
X140970000Y-73660000D03*
X140970000Y-76200000D03*
X138430000Y-73660000D03*
X138430000Y-76200000D03*
X135890000Y-73660000D03*
X135890000Y-76200000D03*
X158750000Y-99060000D03*
X158750000Y-101600000D03*
X156210000Y-99060000D03*
X156210000Y-101600000D03*
X153670000Y-99060000D03*
X153670000Y-101600000D03*
X151130000Y-99060000D03*
X151130000Y-101600000D03*
X148590000Y-99060000D03*
X148590000Y-101600000D03*
X146050000Y-99060000D03*
X146050000Y-101600000D03*
X143510000Y-99060000D03*
X143510000Y-101600000D03*
X140970000Y-99060000D03*
X140970000Y-101600000D03*
X138430000Y-99060000D03*
X138430000Y-101600000D03*
X135890000Y-99060000D03*
X135890000Y-101600000D03*
D12*
X134620000Y-119380000D03*
X134620000Y-116840000D03*
X134620000Y-114300000D03*
X134620000Y-111760000D03*
X170180000Y-121920000D03*
X170180000Y-119380000D03*
X170180000Y-116840000D03*
X170180000Y-114300000D03*
X170180000Y-111760000D03*
X170180000Y-109220000D03*
D13*
X130810000Y-113030000D03*
D14*
X130810000Y-105410000D03*
D15*
X160020000Y-106680000D03*
X157480000Y-106680000D03*
X154940000Y-106680000D03*
X152400000Y-106680000D03*
X149860000Y-106680000D03*
X147320000Y-106680000D03*
X144780000Y-106680000D03*
D16*
X142240000Y-106680000D03*
D10*
X127000000Y-105410000D03*
D17*
X127000000Y-102870000D03*
D13*
X123190000Y-115570000D03*
D18*
X130810000Y-115570000D03*
D19*
X124460000Y-121920000D03*
D20*
X129540000Y-121920000D03*
D13*
X127000000Y-96520000D03*
D14*
X119380000Y-96520000D03*
X119380000Y-107910000D03*
D18*
X119380000Y-105410000D03*
D14*
X121920000Y-113030000D03*
X126920000Y-113030000D03*
D21*
X121920000Y-113030000D02*
X121920000Y-110450000D01*
X119380000Y-107910000D02*
X121880000Y-107910000D01*
X121880000Y-107910000D02*
X121920000Y-107870000D01*
X144780000Y-106680000D02*
X144780000Y-119380000D01*
X144780000Y-119380000D02*
X134620000Y-119380000D01*
X144780000Y-119380000D02*
X163830000Y-119380000D01*
X163830000Y-119380000D02*
X163830000Y-121920000D01*
X163830000Y-121920000D02*
X170180000Y-121920000D01*
X121920000Y-110450000D02*
X121920000Y-107870000D01*
X121920000Y-96520000D02*
X119380000Y-96520000D01*
X121920000Y-107870000D02*
X121920000Y-96520000D01*
X143510000Y-99060000D02*
X143510000Y-93980000D01*
X143510000Y-93980000D02*
X121920000Y-93980000D01*
X121920000Y-93980000D02*
X121920000Y-96520000D01*
X137160000Y-91440000D02*
X137160000Y-93980000D01*
X129540000Y-121920000D02*
X129540000Y-115570000D01*
X129540000Y-115570000D02*
X130810000Y-115570000D01*
X130810000Y-115570000D02*
X130810000Y-113030000D01*
X126920000Y-113030000D02*
X130810000Y-113030000D01*
X133350000Y-96520000D02*
X140970000Y-96520000D01*
X130810000Y-107950000D02*
X133350000Y-107950000D01*
X140970000Y-96520000D02*
X140970000Y-99060000D01*
X130810000Y-113030000D02*
X130810000Y-107950000D01*
X142240000Y-106680000D02*
X133350000Y-106680000D01*
X133350000Y-106680000D02*
X133350000Y-96520000D01*
X133350000Y-107950000D02*
X133350000Y-106680000D01*
X124460000Y-121920000D02*
X124460000Y-115570000D01*
X123190000Y-115570000D02*
X124460000Y-115570000D01*
X124460000Y-102870000D02*
X127000000Y-102870000D01*
X124460000Y-115570000D02*
X124460000Y-102870000D01*
X127000000Y-105410000D02*
X130810000Y-105410000D01*
X165100000Y-119380000D02*
X170180000Y-119380000D01*
X165100000Y-106680000D02*
X165100000Y-119380000D01*
X160020000Y-106680000D02*
X165100000Y-106680000D01*
X170180000Y-114300000D02*
X166370000Y-114300000D01*
X149860000Y-106680000D02*
X149860000Y-104140000D01*
X149860000Y-104140000D02*
X166370000Y-104140000D01*
X166370000Y-114300000D02*
X166370000Y-104140000D01*
D22*
X153670000Y-99060000D02*
X152400000Y-100330000D01*
X152400000Y-100330000D02*
X152400000Y-104140000D01*
M02*
