%FSLAX45Y45*%
G04 Gerber Fmt 4.5, Leading zero omitted, Abs format (unit mm)*
G04 Created by KiCad (PCBNEW (5.1.12)-1) date 2021-12-10 17:41:55*
%MOMM*%
%LPD*%
G01*
G04 APERTURE LIST*
%TA.AperFunction,Profile*%
%ADD10C,0.150000*%
%TD*%
%ADD11C,0.200000*%
%ADD12C,0.300000*%
G04 APERTURE END LIST*
D10*
X7112000Y-1270000D02*
X1270000Y-1270000D01*
X7112000Y-7493000D02*
X7112000Y-1270000D01*
X1270000Y-7493000D02*
X7112000Y-7493000D01*
X1270000Y-1270000D02*
X1270000Y-7493000D01*
D11*
X1738000Y-3770000D02*
X1818000Y-3850000D01*
X1818000Y-3770000D02*
X1738000Y-3850000D01*
X1738000Y-4659000D02*
X1818000Y-4739000D01*
X1818000Y-4659000D02*
X1738000Y-4739000D01*
X1738000Y-4909000D02*
X1818000Y-4989000D01*
X1818000Y-4909000D02*
X1738000Y-4989000D01*
X1992000Y-5421000D02*
X2072000Y-5501000D01*
X2072000Y-5421000D02*
X1992000Y-5501000D01*
X2119000Y-5675000D02*
X2199000Y-5755000D01*
X2199000Y-5675000D02*
X2119000Y-5755000D01*
X2492000Y-5421000D02*
X2572000Y-5501000D01*
X2572000Y-5421000D02*
X2492000Y-5501000D01*
X2500000Y-3770000D02*
X2580000Y-3850000D01*
X2580000Y-3770000D02*
X2500000Y-3850000D01*
X2881000Y-4659000D02*
X2961000Y-4739000D01*
X2961000Y-4659000D02*
X2881000Y-4739000D01*
X2881000Y-5421000D02*
X2961000Y-5501000D01*
X2961000Y-5421000D02*
X2881000Y-5501000D01*
X2881000Y-5675000D02*
X2961000Y-5755000D01*
X2961000Y-5675000D02*
X2881000Y-5755000D01*
X3262000Y-5294000D02*
X3342000Y-5374000D01*
X3342000Y-5294000D02*
X3262000Y-5374000D01*
X3262000Y-5548000D02*
X3342000Y-5628000D01*
X3342000Y-5548000D02*
X3262000Y-5628000D01*
X3262000Y-5802000D02*
X3342000Y-5882000D01*
X3342000Y-5802000D02*
X3262000Y-5882000D01*
X3262000Y-6056000D02*
X3342000Y-6136000D01*
X3342000Y-6056000D02*
X3262000Y-6136000D01*
X3389000Y-1484000D02*
X3469000Y-1564000D01*
X3469000Y-1484000D02*
X3389000Y-1564000D01*
X3389000Y-1738000D02*
X3469000Y-1818000D01*
X3469000Y-1738000D02*
X3389000Y-1818000D01*
X3389000Y-4024000D02*
X3469000Y-4104000D01*
X3469000Y-4024000D02*
X3389000Y-4104000D01*
X3389000Y-4278000D02*
X3469000Y-4358000D01*
X3469000Y-4278000D02*
X3389000Y-4358000D01*
X3643000Y-1484000D02*
X3723000Y-1564000D01*
X3723000Y-1484000D02*
X3643000Y-1564000D01*
X3643000Y-1738000D02*
X3723000Y-1818000D01*
X3723000Y-1738000D02*
X3643000Y-1818000D01*
X3643000Y-4024000D02*
X3723000Y-4104000D01*
X3723000Y-4024000D02*
X3643000Y-4104000D01*
X3643000Y-4278000D02*
X3723000Y-4358000D01*
X3723000Y-4278000D02*
X3643000Y-4358000D01*
X3897000Y-1484000D02*
X3977000Y-1564000D01*
X3977000Y-1484000D02*
X3897000Y-1564000D01*
X3897000Y-1738000D02*
X3977000Y-1818000D01*
X3977000Y-1738000D02*
X3897000Y-1818000D01*
X3897000Y-4024000D02*
X3977000Y-4104000D01*
X3977000Y-4024000D02*
X3897000Y-4104000D01*
X3897000Y-4278000D02*
X3977000Y-4358000D01*
X3977000Y-4278000D02*
X3897000Y-4358000D01*
X4151000Y-1484000D02*
X4231000Y-1564000D01*
X4231000Y-1484000D02*
X4151000Y-1564000D01*
X4151000Y-1738000D02*
X4231000Y-1818000D01*
X4231000Y-1738000D02*
X4151000Y-1818000D01*
X4151000Y-4024000D02*
X4231000Y-4104000D01*
X4231000Y-4024000D02*
X4151000Y-4104000D01*
X4151000Y-4278000D02*
X4231000Y-4358000D01*
X4231000Y-4278000D02*
X4151000Y-4358000D01*
X4405000Y-1484000D02*
X4485000Y-1564000D01*
X4485000Y-1484000D02*
X4405000Y-1564000D01*
X4405000Y-1738000D02*
X4485000Y-1818000D01*
X4485000Y-1738000D02*
X4405000Y-1818000D01*
X4405000Y-4024000D02*
X4485000Y-4104000D01*
X4485000Y-4024000D02*
X4405000Y-4104000D01*
X4405000Y-4278000D02*
X4485000Y-4358000D01*
X4485000Y-4278000D02*
X4405000Y-4358000D01*
X4659000Y-1484000D02*
X4739000Y-1564000D01*
X4739000Y-1484000D02*
X4659000Y-1564000D01*
X4659000Y-1738000D02*
X4739000Y-1818000D01*
X4739000Y-1738000D02*
X4659000Y-1818000D01*
X4659000Y-4024000D02*
X4739000Y-4104000D01*
X4739000Y-4024000D02*
X4659000Y-4104000D01*
X4659000Y-4278000D02*
X4739000Y-4358000D01*
X4739000Y-4278000D02*
X4659000Y-4358000D01*
X4913000Y-1484000D02*
X4993000Y-1564000D01*
X4993000Y-1484000D02*
X4913000Y-1564000D01*
X4913000Y-1738000D02*
X4993000Y-1818000D01*
X4993000Y-1738000D02*
X4913000Y-1818000D01*
X4913000Y-4024000D02*
X4993000Y-4104000D01*
X4993000Y-4024000D02*
X4913000Y-4104000D01*
X4913000Y-4278000D02*
X4993000Y-4358000D01*
X4993000Y-4278000D02*
X4913000Y-4358000D01*
X5167000Y-1484000D02*
X5247000Y-1564000D01*
X5247000Y-1484000D02*
X5167000Y-1564000D01*
X5167000Y-1738000D02*
X5247000Y-1818000D01*
X5247000Y-1738000D02*
X5167000Y-1818000D01*
X5167000Y-4024000D02*
X5247000Y-4104000D01*
X5247000Y-4024000D02*
X5167000Y-4104000D01*
X5167000Y-4278000D02*
X5247000Y-4358000D01*
X5247000Y-4278000D02*
X5167000Y-4358000D01*
X5421000Y-1484000D02*
X5501000Y-1564000D01*
X5501000Y-1484000D02*
X5421000Y-1564000D01*
X5421000Y-1738000D02*
X5501000Y-1818000D01*
X5501000Y-1738000D02*
X5421000Y-1818000D01*
X5421000Y-4024000D02*
X5501000Y-4104000D01*
X5501000Y-4024000D02*
X5421000Y-4104000D01*
X5421000Y-4278000D02*
X5501000Y-4358000D01*
X5501000Y-4278000D02*
X5421000Y-4358000D01*
X5675000Y-1484000D02*
X5755000Y-1564000D01*
X5755000Y-1484000D02*
X5675000Y-1564000D01*
X5675000Y-1738000D02*
X5755000Y-1818000D01*
X5755000Y-1738000D02*
X5675000Y-1818000D01*
X5675000Y-4024000D02*
X5755000Y-4104000D01*
X5755000Y-4024000D02*
X5675000Y-4104000D01*
X5675000Y-4278000D02*
X5755000Y-4358000D01*
X5755000Y-4278000D02*
X5675000Y-4358000D01*
X6818000Y-5040000D02*
X6898000Y-5120000D01*
X6898000Y-5040000D02*
X6818000Y-5120000D01*
X6818000Y-5294000D02*
X6898000Y-5374000D01*
X6898000Y-5294000D02*
X6818000Y-5374000D01*
X6818000Y-5548000D02*
X6898000Y-5628000D01*
X6898000Y-5548000D02*
X6818000Y-5628000D01*
X6818000Y-5802000D02*
X6898000Y-5882000D01*
X6898000Y-5802000D02*
X6818000Y-5882000D01*
X6818000Y-6056000D02*
X6898000Y-6136000D01*
X6898000Y-6056000D02*
X6818000Y-6136000D01*
X6818000Y-6310000D02*
X6898000Y-6390000D01*
X6898000Y-6310000D02*
X6818000Y-6390000D01*
X3598500Y-2286000D02*
G75*
G03*
X3598500Y-2286000I-42500J0D01*
G01*
X3598500Y-2540000D02*
G75*
G03*
X3598500Y-2540000I-42500J0D01*
G01*
X3598500Y-2794000D02*
G75*
G03*
X3598500Y-2794000I-42500J0D01*
G01*
X3598500Y-3048000D02*
G75*
G03*
X3598500Y-3048000I-42500J0D01*
G01*
X3598500Y-3302000D02*
G75*
G03*
X3598500Y-3302000I-42500J0D01*
G01*
X2540000Y-4400000D02*
X2540000Y-4490000D01*
X2495000Y-4445000D02*
X2585000Y-4445000D01*
X2540000Y-4654000D02*
X2540000Y-4744000D01*
X2495000Y-4699000D02*
X2585000Y-4699000D01*
X4099356Y-4861356D02*
X4099356Y-4790644D01*
X4028644Y-4790644D01*
X4028644Y-4861356D01*
X4099356Y-4861356D01*
X4353356Y-4861356D02*
X4353356Y-4790644D01*
X4282644Y-4790644D01*
X4282644Y-4861356D01*
X4353356Y-4861356D01*
X4607356Y-4861356D02*
X4607356Y-4790644D01*
X4536644Y-4790644D01*
X4536644Y-4861356D01*
X4607356Y-4861356D01*
X4861356Y-4861356D02*
X4861356Y-4790644D01*
X4790644Y-4790644D01*
X4790644Y-4861356D01*
X4861356Y-4861356D01*
X5115356Y-4861356D02*
X5115356Y-4790644D01*
X5044644Y-4790644D01*
X5044644Y-4861356D01*
X5115356Y-4861356D01*
X5369356Y-4861356D02*
X5369356Y-4790644D01*
X5298644Y-4790644D01*
X5298644Y-4861356D01*
X5369356Y-4861356D01*
X5623356Y-4861356D02*
X5623356Y-4790644D01*
X5552644Y-4790644D01*
X5552644Y-4861356D01*
X5623356Y-4861356D01*
X5877356Y-4861356D02*
X5877356Y-4790644D01*
X5806644Y-4790644D01*
X5806644Y-4861356D01*
X5877356Y-4861356D01*
X2286000Y-6426000D02*
X2362000Y-6350000D01*
X2286000Y-6274000D01*
X2210000Y-6350000D01*
X2286000Y-6426000D01*
X2794000Y-6426000D02*
X2870000Y-6350000D01*
X2794000Y-6274000D01*
X2718000Y-6350000D01*
X2794000Y-6426000D01*
D12*
X1548928Y-7966214D02*
X1548928Y-7666214D01*
X1620357Y-7666214D01*
X1663214Y-7680500D01*
X1691786Y-7709071D01*
X1706071Y-7737643D01*
X1720357Y-7794786D01*
X1720357Y-7837643D01*
X1706071Y-7894786D01*
X1691786Y-7923357D01*
X1663214Y-7951929D01*
X1620357Y-7966214D01*
X1548928Y-7966214D01*
X1848928Y-7966214D02*
X1848928Y-7766214D01*
X1848928Y-7823357D02*
X1863214Y-7794786D01*
X1877500Y-7780500D01*
X1906071Y-7766214D01*
X1934643Y-7766214D01*
X2034643Y-7966214D02*
X2034643Y-7766214D01*
X2034643Y-7666214D02*
X2020357Y-7680500D01*
X2034643Y-7694786D01*
X2048928Y-7680500D01*
X2034643Y-7666214D01*
X2034643Y-7694786D01*
X2220357Y-7966214D02*
X2191786Y-7951929D01*
X2177500Y-7923357D01*
X2177500Y-7666214D01*
X2377500Y-7966214D02*
X2348928Y-7951929D01*
X2334643Y-7923357D01*
X2334643Y-7666214D01*
X2720357Y-7966214D02*
X2720357Y-7666214D01*
X2820357Y-7880500D01*
X2920357Y-7666214D01*
X2920357Y-7966214D01*
X3191786Y-7966214D02*
X3191786Y-7809071D01*
X3177500Y-7780500D01*
X3148928Y-7766214D01*
X3091786Y-7766214D01*
X3063214Y-7780500D01*
X3191786Y-7951929D02*
X3163214Y-7966214D01*
X3091786Y-7966214D01*
X3063214Y-7951929D01*
X3048928Y-7923357D01*
X3048928Y-7894786D01*
X3063214Y-7866214D01*
X3091786Y-7851929D01*
X3163214Y-7851929D01*
X3191786Y-7837643D01*
X3334643Y-7766214D02*
X3334643Y-8066214D01*
X3334643Y-7780500D02*
X3363214Y-7766214D01*
X3420357Y-7766214D01*
X3448928Y-7780500D01*
X3463214Y-7794786D01*
X3477500Y-7823357D01*
X3477500Y-7909071D01*
X3463214Y-7937643D01*
X3448928Y-7951929D01*
X3420357Y-7966214D01*
X3363214Y-7966214D01*
X3334643Y-7951929D01*
X3606071Y-7937643D02*
X3620357Y-7951929D01*
X3606071Y-7966214D01*
X3591786Y-7951929D01*
X3606071Y-7937643D01*
X3606071Y-7966214D01*
X3606071Y-7780500D02*
X3620357Y-7794786D01*
X3606071Y-7809071D01*
X3591786Y-7794786D01*
X3606071Y-7780500D01*
X3606071Y-7809071D01*
X1182500Y-8420500D02*
X1262500Y-8500500D01*
X1262500Y-8420500D02*
X1182500Y-8500500D01*
X1606071Y-8296214D02*
X1634643Y-8296214D01*
X1663214Y-8310500D01*
X1677500Y-8324786D01*
X1691786Y-8353357D01*
X1706071Y-8410500D01*
X1706071Y-8481929D01*
X1691786Y-8539072D01*
X1677500Y-8567643D01*
X1663214Y-8581929D01*
X1634643Y-8596214D01*
X1606071Y-8596214D01*
X1577500Y-8581929D01*
X1563214Y-8567643D01*
X1548928Y-8539072D01*
X1534643Y-8481929D01*
X1534643Y-8410500D01*
X1548928Y-8353357D01*
X1563214Y-8324786D01*
X1577500Y-8310500D01*
X1606071Y-8296214D01*
X1834643Y-8567643D02*
X1848928Y-8581929D01*
X1834643Y-8596214D01*
X1820357Y-8581929D01*
X1834643Y-8567643D01*
X1834643Y-8596214D01*
X2020357Y-8424786D02*
X1991786Y-8410500D01*
X1977500Y-8396214D01*
X1963214Y-8367643D01*
X1963214Y-8353357D01*
X1977500Y-8324786D01*
X1991786Y-8310500D01*
X2020357Y-8296214D01*
X2077500Y-8296214D01*
X2106071Y-8310500D01*
X2120357Y-8324786D01*
X2134643Y-8353357D01*
X2134643Y-8367643D01*
X2120357Y-8396214D01*
X2106071Y-8410500D01*
X2077500Y-8424786D01*
X2020357Y-8424786D01*
X1991786Y-8439072D01*
X1977500Y-8453357D01*
X1963214Y-8481929D01*
X1963214Y-8539072D01*
X1977500Y-8567643D01*
X1991786Y-8581929D01*
X2020357Y-8596214D01*
X2077500Y-8596214D01*
X2106071Y-8581929D01*
X2120357Y-8567643D01*
X2134643Y-8539072D01*
X2134643Y-8481929D01*
X2120357Y-8453357D01*
X2106071Y-8439072D01*
X2077500Y-8424786D01*
X2320357Y-8296214D02*
X2348928Y-8296214D01*
X2377500Y-8310500D01*
X2391786Y-8324786D01*
X2406071Y-8353357D01*
X2420357Y-8410500D01*
X2420357Y-8481929D01*
X2406071Y-8539072D01*
X2391786Y-8567643D01*
X2377500Y-8581929D01*
X2348928Y-8596214D01*
X2320357Y-8596214D01*
X2291786Y-8581929D01*
X2277500Y-8567643D01*
X2263214Y-8539072D01*
X2248928Y-8481929D01*
X2248928Y-8410500D01*
X2263214Y-8353357D01*
X2277500Y-8324786D01*
X2291786Y-8310500D01*
X2320357Y-8296214D01*
X2606071Y-8296214D02*
X2634643Y-8296214D01*
X2663214Y-8310500D01*
X2677500Y-8324786D01*
X2691786Y-8353357D01*
X2706071Y-8410500D01*
X2706071Y-8481929D01*
X2691786Y-8539072D01*
X2677500Y-8567643D01*
X2663214Y-8581929D01*
X2634643Y-8596214D01*
X2606071Y-8596214D01*
X2577500Y-8581929D01*
X2563214Y-8567643D01*
X2548928Y-8539072D01*
X2534643Y-8481929D01*
X2534643Y-8410500D01*
X2548928Y-8353357D01*
X2563214Y-8324786D01*
X2577500Y-8310500D01*
X2606071Y-8296214D01*
X2834643Y-8596214D02*
X2834643Y-8396214D01*
X2834643Y-8424786D02*
X2848928Y-8410500D01*
X2877500Y-8396214D01*
X2920357Y-8396214D01*
X2948928Y-8410500D01*
X2963214Y-8439072D01*
X2963214Y-8596214D01*
X2963214Y-8439072D02*
X2977500Y-8410500D01*
X3006071Y-8396214D01*
X3048928Y-8396214D01*
X3077500Y-8410500D01*
X3091786Y-8439072D01*
X3091786Y-8596214D01*
X3234643Y-8596214D02*
X3234643Y-8396214D01*
X3234643Y-8424786D02*
X3248928Y-8410500D01*
X3277500Y-8396214D01*
X3320357Y-8396214D01*
X3348928Y-8410500D01*
X3363214Y-8439072D01*
X3363214Y-8596214D01*
X3363214Y-8439072D02*
X3377500Y-8410500D01*
X3406071Y-8396214D01*
X3448928Y-8396214D01*
X3477500Y-8410500D01*
X3491786Y-8439072D01*
X3491786Y-8596214D01*
X4077500Y-8281929D02*
X3820357Y-8667643D01*
X4463214Y-8296214D02*
X4491786Y-8296214D01*
X4520357Y-8310500D01*
X4534643Y-8324786D01*
X4548928Y-8353357D01*
X4563214Y-8410500D01*
X4563214Y-8481929D01*
X4548928Y-8539072D01*
X4534643Y-8567643D01*
X4520357Y-8581929D01*
X4491786Y-8596214D01*
X4463214Y-8596214D01*
X4434643Y-8581929D01*
X4420357Y-8567643D01*
X4406071Y-8539072D01*
X4391786Y-8481929D01*
X4391786Y-8410500D01*
X4406071Y-8353357D01*
X4420357Y-8324786D01*
X4434643Y-8310500D01*
X4463214Y-8296214D01*
X4691786Y-8567643D02*
X4706071Y-8581929D01*
X4691786Y-8596214D01*
X4677500Y-8581929D01*
X4691786Y-8567643D01*
X4691786Y-8596214D01*
X4891786Y-8296214D02*
X4920357Y-8296214D01*
X4948928Y-8310500D01*
X4963214Y-8324786D01*
X4977500Y-8353357D01*
X4991786Y-8410500D01*
X4991786Y-8481929D01*
X4977500Y-8539072D01*
X4963214Y-8567643D01*
X4948928Y-8581929D01*
X4920357Y-8596214D01*
X4891786Y-8596214D01*
X4863214Y-8581929D01*
X4848928Y-8567643D01*
X4834643Y-8539072D01*
X4820357Y-8481929D01*
X4820357Y-8410500D01*
X4834643Y-8353357D01*
X4848928Y-8324786D01*
X4863214Y-8310500D01*
X4891786Y-8296214D01*
X5091786Y-8296214D02*
X5277500Y-8296214D01*
X5177500Y-8410500D01*
X5220357Y-8410500D01*
X5248928Y-8424786D01*
X5263214Y-8439072D01*
X5277500Y-8467643D01*
X5277500Y-8539072D01*
X5263214Y-8567643D01*
X5248928Y-8581929D01*
X5220357Y-8596214D01*
X5134643Y-8596214D01*
X5106071Y-8581929D01*
X5091786Y-8567643D01*
X5563214Y-8596214D02*
X5391786Y-8596214D01*
X5477500Y-8596214D02*
X5477500Y-8296214D01*
X5448928Y-8339071D01*
X5420357Y-8367643D01*
X5391786Y-8381929D01*
X5834643Y-8296214D02*
X5691786Y-8296214D01*
X5677500Y-8439072D01*
X5691786Y-8424786D01*
X5720357Y-8410500D01*
X5791786Y-8410500D01*
X5820357Y-8424786D01*
X5834643Y-8439072D01*
X5848928Y-8467643D01*
X5848928Y-8539072D01*
X5834643Y-8567643D01*
X5820357Y-8581929D01*
X5791786Y-8596214D01*
X5720357Y-8596214D01*
X5691786Y-8581929D01*
X5677500Y-8567643D01*
X5963214Y-8296214D02*
X5963214Y-8353357D01*
X6077500Y-8296214D02*
X6077500Y-8353357D01*
X6520357Y-8710500D02*
X6506071Y-8696214D01*
X6477500Y-8653357D01*
X6463214Y-8624786D01*
X6448928Y-8581929D01*
X6434643Y-8510500D01*
X6434643Y-8453357D01*
X6448928Y-8381929D01*
X6463214Y-8339071D01*
X6477500Y-8310500D01*
X6506071Y-8267643D01*
X6520357Y-8253357D01*
X6763214Y-8296214D02*
X6706071Y-8296214D01*
X6677500Y-8310500D01*
X6663214Y-8324786D01*
X6634643Y-8367643D01*
X6620357Y-8424786D01*
X6620357Y-8539072D01*
X6634643Y-8567643D01*
X6648928Y-8581929D01*
X6677500Y-8596214D01*
X6734643Y-8596214D01*
X6763214Y-8581929D01*
X6777500Y-8567643D01*
X6791786Y-8539072D01*
X6791786Y-8467643D01*
X6777500Y-8439072D01*
X6763214Y-8424786D01*
X6734643Y-8410500D01*
X6677500Y-8410500D01*
X6648928Y-8424786D01*
X6634643Y-8439072D01*
X6620357Y-8467643D01*
X6977500Y-8296214D02*
X7006071Y-8296214D01*
X7034643Y-8310500D01*
X7048928Y-8324786D01*
X7063214Y-8353357D01*
X7077500Y-8410500D01*
X7077500Y-8481929D01*
X7063214Y-8539072D01*
X7048928Y-8567643D01*
X7034643Y-8581929D01*
X7006071Y-8596214D01*
X6977500Y-8596214D01*
X6948928Y-8581929D01*
X6934643Y-8567643D01*
X6920357Y-8539072D01*
X6906071Y-8481929D01*
X6906071Y-8410500D01*
X6920357Y-8353357D01*
X6934643Y-8324786D01*
X6948928Y-8310500D01*
X6977500Y-8296214D01*
X7434643Y-8596214D02*
X7434643Y-8296214D01*
X7563214Y-8596214D02*
X7563214Y-8439072D01*
X7548928Y-8410500D01*
X7520357Y-8396214D01*
X7477500Y-8396214D01*
X7448928Y-8410500D01*
X7434643Y-8424786D01*
X7748928Y-8596214D02*
X7720357Y-8581929D01*
X7706071Y-8567643D01*
X7691786Y-8539072D01*
X7691786Y-8453357D01*
X7706071Y-8424786D01*
X7720357Y-8410500D01*
X7748928Y-8396214D01*
X7791786Y-8396214D01*
X7820357Y-8410500D01*
X7834643Y-8424786D01*
X7848928Y-8453357D01*
X7848928Y-8539072D01*
X7834643Y-8567643D01*
X7820357Y-8581929D01*
X7791786Y-8596214D01*
X7748928Y-8596214D01*
X8020357Y-8596214D02*
X7991786Y-8581929D01*
X7977500Y-8553357D01*
X7977500Y-8296214D01*
X8248928Y-8581929D02*
X8220357Y-8596214D01*
X8163214Y-8596214D01*
X8134643Y-8581929D01*
X8120357Y-8553357D01*
X8120357Y-8439072D01*
X8134643Y-8410500D01*
X8163214Y-8396214D01*
X8220357Y-8396214D01*
X8248928Y-8410500D01*
X8263214Y-8439072D01*
X8263214Y-8467643D01*
X8120357Y-8496214D01*
X8377500Y-8581929D02*
X8406071Y-8596214D01*
X8463214Y-8596214D01*
X8491786Y-8581929D01*
X8506071Y-8553357D01*
X8506071Y-8539072D01*
X8491786Y-8510500D01*
X8463214Y-8496214D01*
X8420357Y-8496214D01*
X8391786Y-8481929D01*
X8377500Y-8453357D01*
X8377500Y-8439072D01*
X8391786Y-8410500D01*
X8420357Y-8396214D01*
X8463214Y-8396214D01*
X8491786Y-8410500D01*
X8606071Y-8710500D02*
X8620357Y-8696214D01*
X8648928Y-8653357D01*
X8663214Y-8624786D01*
X8677500Y-8581929D01*
X8691786Y-8510500D01*
X8691786Y-8453357D01*
X8677500Y-8381929D01*
X8663214Y-8339071D01*
X8648928Y-8310500D01*
X8620357Y-8267643D01*
X8606071Y-8253357D01*
X1262500Y-8856500D02*
G75*
G03*
X1262500Y-8856500I-42500J0D01*
G01*
X1606071Y-8692214D02*
X1634643Y-8692214D01*
X1663214Y-8706500D01*
X1677500Y-8720786D01*
X1691786Y-8749357D01*
X1706071Y-8806500D01*
X1706071Y-8877929D01*
X1691786Y-8935072D01*
X1677500Y-8963643D01*
X1663214Y-8977929D01*
X1634643Y-8992214D01*
X1606071Y-8992214D01*
X1577500Y-8977929D01*
X1563214Y-8963643D01*
X1548928Y-8935072D01*
X1534643Y-8877929D01*
X1534643Y-8806500D01*
X1548928Y-8749357D01*
X1563214Y-8720786D01*
X1577500Y-8706500D01*
X1606071Y-8692214D01*
X1834643Y-8963643D02*
X1848928Y-8977929D01*
X1834643Y-8992214D01*
X1820357Y-8977929D01*
X1834643Y-8963643D01*
X1834643Y-8992214D01*
X2020357Y-8820786D02*
X1991786Y-8806500D01*
X1977500Y-8792214D01*
X1963214Y-8763643D01*
X1963214Y-8749357D01*
X1977500Y-8720786D01*
X1991786Y-8706500D01*
X2020357Y-8692214D01*
X2077500Y-8692214D01*
X2106071Y-8706500D01*
X2120357Y-8720786D01*
X2134643Y-8749357D01*
X2134643Y-8763643D01*
X2120357Y-8792214D01*
X2106071Y-8806500D01*
X2077500Y-8820786D01*
X2020357Y-8820786D01*
X1991786Y-8835072D01*
X1977500Y-8849357D01*
X1963214Y-8877929D01*
X1963214Y-8935072D01*
X1977500Y-8963643D01*
X1991786Y-8977929D01*
X2020357Y-8992214D01*
X2077500Y-8992214D01*
X2106071Y-8977929D01*
X2120357Y-8963643D01*
X2134643Y-8935072D01*
X2134643Y-8877929D01*
X2120357Y-8849357D01*
X2106071Y-8835072D01*
X2077500Y-8820786D01*
X2406071Y-8692214D02*
X2263214Y-8692214D01*
X2248928Y-8835072D01*
X2263214Y-8820786D01*
X2291786Y-8806500D01*
X2363214Y-8806500D01*
X2391786Y-8820786D01*
X2406071Y-8835072D01*
X2420357Y-8863643D01*
X2420357Y-8935072D01*
X2406071Y-8963643D01*
X2391786Y-8977929D01*
X2363214Y-8992214D01*
X2291786Y-8992214D01*
X2263214Y-8977929D01*
X2248928Y-8963643D01*
X2606071Y-8692214D02*
X2634643Y-8692214D01*
X2663214Y-8706500D01*
X2677500Y-8720786D01*
X2691786Y-8749357D01*
X2706071Y-8806500D01*
X2706071Y-8877929D01*
X2691786Y-8935072D01*
X2677500Y-8963643D01*
X2663214Y-8977929D01*
X2634643Y-8992214D01*
X2606071Y-8992214D01*
X2577500Y-8977929D01*
X2563214Y-8963643D01*
X2548928Y-8935072D01*
X2534643Y-8877929D01*
X2534643Y-8806500D01*
X2548928Y-8749357D01*
X2563214Y-8720786D01*
X2577500Y-8706500D01*
X2606071Y-8692214D01*
X2834643Y-8992214D02*
X2834643Y-8792214D01*
X2834643Y-8820786D02*
X2848928Y-8806500D01*
X2877500Y-8792214D01*
X2920357Y-8792214D01*
X2948928Y-8806500D01*
X2963214Y-8835072D01*
X2963214Y-8992214D01*
X2963214Y-8835072D02*
X2977500Y-8806500D01*
X3006071Y-8792214D01*
X3048928Y-8792214D01*
X3077500Y-8806500D01*
X3091786Y-8835072D01*
X3091786Y-8992214D01*
X3234643Y-8992214D02*
X3234643Y-8792214D01*
X3234643Y-8820786D02*
X3248928Y-8806500D01*
X3277500Y-8792214D01*
X3320357Y-8792214D01*
X3348928Y-8806500D01*
X3363214Y-8835072D01*
X3363214Y-8992214D01*
X3363214Y-8835072D02*
X3377500Y-8806500D01*
X3406071Y-8792214D01*
X3448928Y-8792214D01*
X3477500Y-8806500D01*
X3491786Y-8835072D01*
X3491786Y-8992214D01*
X4077500Y-8677929D02*
X3820357Y-9063643D01*
X4463214Y-8692214D02*
X4491786Y-8692214D01*
X4520357Y-8706500D01*
X4534643Y-8720786D01*
X4548928Y-8749357D01*
X4563214Y-8806500D01*
X4563214Y-8877929D01*
X4548928Y-8935072D01*
X4534643Y-8963643D01*
X4520357Y-8977929D01*
X4491786Y-8992214D01*
X4463214Y-8992214D01*
X4434643Y-8977929D01*
X4420357Y-8963643D01*
X4406071Y-8935072D01*
X4391786Y-8877929D01*
X4391786Y-8806500D01*
X4406071Y-8749357D01*
X4420357Y-8720786D01*
X4434643Y-8706500D01*
X4463214Y-8692214D01*
X4691786Y-8963643D02*
X4706071Y-8977929D01*
X4691786Y-8992214D01*
X4677500Y-8977929D01*
X4691786Y-8963643D01*
X4691786Y-8992214D01*
X4891786Y-8692214D02*
X4920357Y-8692214D01*
X4948928Y-8706500D01*
X4963214Y-8720786D01*
X4977500Y-8749357D01*
X4991786Y-8806500D01*
X4991786Y-8877929D01*
X4977500Y-8935072D01*
X4963214Y-8963643D01*
X4948928Y-8977929D01*
X4920357Y-8992214D01*
X4891786Y-8992214D01*
X4863214Y-8977929D01*
X4848928Y-8963643D01*
X4834643Y-8935072D01*
X4820357Y-8877929D01*
X4820357Y-8806500D01*
X4834643Y-8749357D01*
X4848928Y-8720786D01*
X4863214Y-8706500D01*
X4891786Y-8692214D01*
X5091786Y-8692214D02*
X5277500Y-8692214D01*
X5177500Y-8806500D01*
X5220357Y-8806500D01*
X5248928Y-8820786D01*
X5263214Y-8835072D01*
X5277500Y-8863643D01*
X5277500Y-8935072D01*
X5263214Y-8963643D01*
X5248928Y-8977929D01*
X5220357Y-8992214D01*
X5134643Y-8992214D01*
X5106071Y-8977929D01*
X5091786Y-8963643D01*
X5377500Y-8692214D02*
X5563214Y-8692214D01*
X5463214Y-8806500D01*
X5506071Y-8806500D01*
X5534643Y-8820786D01*
X5548928Y-8835072D01*
X5563214Y-8863643D01*
X5563214Y-8935072D01*
X5548928Y-8963643D01*
X5534643Y-8977929D01*
X5506071Y-8992214D01*
X5420357Y-8992214D01*
X5391786Y-8977929D01*
X5377500Y-8963643D01*
X5834643Y-8692214D02*
X5691786Y-8692214D01*
X5677500Y-8835072D01*
X5691786Y-8820786D01*
X5720357Y-8806500D01*
X5791786Y-8806500D01*
X5820357Y-8820786D01*
X5834643Y-8835072D01*
X5848928Y-8863643D01*
X5848928Y-8935072D01*
X5834643Y-8963643D01*
X5820357Y-8977929D01*
X5791786Y-8992214D01*
X5720357Y-8992214D01*
X5691786Y-8977929D01*
X5677500Y-8963643D01*
X5963214Y-8692214D02*
X5963214Y-8749357D01*
X6077500Y-8692214D02*
X6077500Y-8749357D01*
X6520357Y-9106500D02*
X6506071Y-9092214D01*
X6477500Y-9049357D01*
X6463214Y-9020786D01*
X6448928Y-8977929D01*
X6434643Y-8906500D01*
X6434643Y-8849357D01*
X6448928Y-8777929D01*
X6463214Y-8735072D01*
X6477500Y-8706500D01*
X6506071Y-8663643D01*
X6520357Y-8649357D01*
X6777500Y-8692214D02*
X6634643Y-8692214D01*
X6620357Y-8835072D01*
X6634643Y-8820786D01*
X6663214Y-8806500D01*
X6734643Y-8806500D01*
X6763214Y-8820786D01*
X6777500Y-8835072D01*
X6791786Y-8863643D01*
X6791786Y-8935072D01*
X6777500Y-8963643D01*
X6763214Y-8977929D01*
X6734643Y-8992214D01*
X6663214Y-8992214D01*
X6634643Y-8977929D01*
X6620357Y-8963643D01*
X7148928Y-8992214D02*
X7148928Y-8692214D01*
X7277500Y-8992214D02*
X7277500Y-8835072D01*
X7263214Y-8806500D01*
X7234643Y-8792214D01*
X7191786Y-8792214D01*
X7163214Y-8806500D01*
X7148928Y-8820786D01*
X7463214Y-8992214D02*
X7434643Y-8977929D01*
X7420357Y-8963643D01*
X7406071Y-8935072D01*
X7406071Y-8849357D01*
X7420357Y-8820786D01*
X7434643Y-8806500D01*
X7463214Y-8792214D01*
X7506071Y-8792214D01*
X7534643Y-8806500D01*
X7548928Y-8820786D01*
X7563214Y-8849357D01*
X7563214Y-8935072D01*
X7548928Y-8963643D01*
X7534643Y-8977929D01*
X7506071Y-8992214D01*
X7463214Y-8992214D01*
X7734643Y-8992214D02*
X7706071Y-8977929D01*
X7691786Y-8949357D01*
X7691786Y-8692214D01*
X7963214Y-8977929D02*
X7934643Y-8992214D01*
X7877500Y-8992214D01*
X7848928Y-8977929D01*
X7834643Y-8949357D01*
X7834643Y-8835072D01*
X7848928Y-8806500D01*
X7877500Y-8792214D01*
X7934643Y-8792214D01*
X7963214Y-8806500D01*
X7977500Y-8835072D01*
X7977500Y-8863643D01*
X7834643Y-8892214D01*
X8091786Y-8977929D02*
X8120357Y-8992214D01*
X8177500Y-8992214D01*
X8206071Y-8977929D01*
X8220357Y-8949357D01*
X8220357Y-8935072D01*
X8206071Y-8906500D01*
X8177500Y-8892214D01*
X8134643Y-8892214D01*
X8106071Y-8877929D01*
X8091786Y-8849357D01*
X8091786Y-8835072D01*
X8106071Y-8806500D01*
X8134643Y-8792214D01*
X8177500Y-8792214D01*
X8206071Y-8806500D01*
X8320357Y-9106500D02*
X8334643Y-9092214D01*
X8363214Y-9049357D01*
X8377500Y-9020786D01*
X8391786Y-8977929D01*
X8406071Y-8906500D01*
X8406071Y-8849357D01*
X8391786Y-8777929D01*
X8377500Y-8735072D01*
X8363214Y-8706500D01*
X8334643Y-8663643D01*
X8320357Y-8649357D01*
X1217500Y-9207500D02*
X1217500Y-9297500D01*
X1172500Y-9252500D02*
X1262500Y-9252500D01*
X1606071Y-9088214D02*
X1634643Y-9088214D01*
X1663214Y-9102500D01*
X1677500Y-9116786D01*
X1691786Y-9145357D01*
X1706071Y-9202500D01*
X1706071Y-9273929D01*
X1691786Y-9331072D01*
X1677500Y-9359643D01*
X1663214Y-9373929D01*
X1634643Y-9388214D01*
X1606071Y-9388214D01*
X1577500Y-9373929D01*
X1563214Y-9359643D01*
X1548928Y-9331072D01*
X1534643Y-9273929D01*
X1534643Y-9202500D01*
X1548928Y-9145357D01*
X1563214Y-9116786D01*
X1577500Y-9102500D01*
X1606071Y-9088214D01*
X1834643Y-9359643D02*
X1848928Y-9373929D01*
X1834643Y-9388214D01*
X1820357Y-9373929D01*
X1834643Y-9359643D01*
X1834643Y-9388214D01*
X1991786Y-9388214D02*
X2048928Y-9388214D01*
X2077500Y-9373929D01*
X2091786Y-9359643D01*
X2120357Y-9316786D01*
X2134643Y-9259643D01*
X2134643Y-9145357D01*
X2120357Y-9116786D01*
X2106071Y-9102500D01*
X2077500Y-9088214D01*
X2020357Y-9088214D01*
X1991786Y-9102500D01*
X1977500Y-9116786D01*
X1963214Y-9145357D01*
X1963214Y-9216786D01*
X1977500Y-9245357D01*
X1991786Y-9259643D01*
X2020357Y-9273929D01*
X2077500Y-9273929D01*
X2106071Y-9259643D01*
X2120357Y-9245357D01*
X2134643Y-9216786D01*
X2320357Y-9088214D02*
X2348928Y-9088214D01*
X2377500Y-9102500D01*
X2391786Y-9116786D01*
X2406071Y-9145357D01*
X2420357Y-9202500D01*
X2420357Y-9273929D01*
X2406071Y-9331072D01*
X2391786Y-9359643D01*
X2377500Y-9373929D01*
X2348928Y-9388214D01*
X2320357Y-9388214D01*
X2291786Y-9373929D01*
X2277500Y-9359643D01*
X2263214Y-9331072D01*
X2248928Y-9273929D01*
X2248928Y-9202500D01*
X2263214Y-9145357D01*
X2277500Y-9116786D01*
X2291786Y-9102500D01*
X2320357Y-9088214D01*
X2606071Y-9088214D02*
X2634643Y-9088214D01*
X2663214Y-9102500D01*
X2677500Y-9116786D01*
X2691786Y-9145357D01*
X2706071Y-9202500D01*
X2706071Y-9273929D01*
X2691786Y-9331072D01*
X2677500Y-9359643D01*
X2663214Y-9373929D01*
X2634643Y-9388214D01*
X2606071Y-9388214D01*
X2577500Y-9373929D01*
X2563214Y-9359643D01*
X2548928Y-9331072D01*
X2534643Y-9273929D01*
X2534643Y-9202500D01*
X2548928Y-9145357D01*
X2563214Y-9116786D01*
X2577500Y-9102500D01*
X2606071Y-9088214D01*
X2834643Y-9388214D02*
X2834643Y-9188214D01*
X2834643Y-9216786D02*
X2848928Y-9202500D01*
X2877500Y-9188214D01*
X2920357Y-9188214D01*
X2948928Y-9202500D01*
X2963214Y-9231072D01*
X2963214Y-9388214D01*
X2963214Y-9231072D02*
X2977500Y-9202500D01*
X3006071Y-9188214D01*
X3048928Y-9188214D01*
X3077500Y-9202500D01*
X3091786Y-9231072D01*
X3091786Y-9388214D01*
X3234643Y-9388214D02*
X3234643Y-9188214D01*
X3234643Y-9216786D02*
X3248928Y-9202500D01*
X3277500Y-9188214D01*
X3320357Y-9188214D01*
X3348928Y-9202500D01*
X3363214Y-9231072D01*
X3363214Y-9388214D01*
X3363214Y-9231072D02*
X3377500Y-9202500D01*
X3406071Y-9188214D01*
X3448928Y-9188214D01*
X3477500Y-9202500D01*
X3491786Y-9231072D01*
X3491786Y-9388214D01*
X4077500Y-9073929D02*
X3820357Y-9459643D01*
X4463214Y-9088214D02*
X4491786Y-9088214D01*
X4520357Y-9102500D01*
X4534643Y-9116786D01*
X4548928Y-9145357D01*
X4563214Y-9202500D01*
X4563214Y-9273929D01*
X4548928Y-9331072D01*
X4534643Y-9359643D01*
X4520357Y-9373929D01*
X4491786Y-9388214D01*
X4463214Y-9388214D01*
X4434643Y-9373929D01*
X4420357Y-9359643D01*
X4406071Y-9331072D01*
X4391786Y-9273929D01*
X4391786Y-9202500D01*
X4406071Y-9145357D01*
X4420357Y-9116786D01*
X4434643Y-9102500D01*
X4463214Y-9088214D01*
X4691786Y-9359643D02*
X4706071Y-9373929D01*
X4691786Y-9388214D01*
X4677500Y-9373929D01*
X4691786Y-9359643D01*
X4691786Y-9388214D01*
X4891786Y-9088214D02*
X4920357Y-9088214D01*
X4948928Y-9102500D01*
X4963214Y-9116786D01*
X4977500Y-9145357D01*
X4991786Y-9202500D01*
X4991786Y-9273929D01*
X4977500Y-9331072D01*
X4963214Y-9359643D01*
X4948928Y-9373929D01*
X4920357Y-9388214D01*
X4891786Y-9388214D01*
X4863214Y-9373929D01*
X4848928Y-9359643D01*
X4834643Y-9331072D01*
X4820357Y-9273929D01*
X4820357Y-9202500D01*
X4834643Y-9145357D01*
X4848928Y-9116786D01*
X4863214Y-9102500D01*
X4891786Y-9088214D01*
X5091786Y-9088214D02*
X5277500Y-9088214D01*
X5177500Y-9202500D01*
X5220357Y-9202500D01*
X5248928Y-9216786D01*
X5263214Y-9231072D01*
X5277500Y-9259643D01*
X5277500Y-9331072D01*
X5263214Y-9359643D01*
X5248928Y-9373929D01*
X5220357Y-9388214D01*
X5134643Y-9388214D01*
X5106071Y-9373929D01*
X5091786Y-9359643D01*
X5548928Y-9088214D02*
X5406071Y-9088214D01*
X5391786Y-9231072D01*
X5406071Y-9216786D01*
X5434643Y-9202500D01*
X5506071Y-9202500D01*
X5534643Y-9216786D01*
X5548928Y-9231072D01*
X5563214Y-9259643D01*
X5563214Y-9331072D01*
X5548928Y-9359643D01*
X5534643Y-9373929D01*
X5506071Y-9388214D01*
X5434643Y-9388214D01*
X5406071Y-9373929D01*
X5391786Y-9359643D01*
X5820357Y-9188214D02*
X5820357Y-9388214D01*
X5748928Y-9073929D02*
X5677500Y-9288214D01*
X5863214Y-9288214D01*
X5963214Y-9088214D02*
X5963214Y-9145357D01*
X6077500Y-9088214D02*
X6077500Y-9145357D01*
X6520357Y-9502500D02*
X6506071Y-9488214D01*
X6477500Y-9445357D01*
X6463214Y-9416786D01*
X6448928Y-9373929D01*
X6434643Y-9302500D01*
X6434643Y-9245357D01*
X6448928Y-9173929D01*
X6463214Y-9131072D01*
X6477500Y-9102500D01*
X6506071Y-9059643D01*
X6520357Y-9045357D01*
X6620357Y-9116786D02*
X6634643Y-9102500D01*
X6663214Y-9088214D01*
X6734643Y-9088214D01*
X6763214Y-9102500D01*
X6777500Y-9116786D01*
X6791786Y-9145357D01*
X6791786Y-9173929D01*
X6777500Y-9216786D01*
X6606071Y-9388214D01*
X6791786Y-9388214D01*
X7148928Y-9388214D02*
X7148928Y-9088214D01*
X7277500Y-9388214D02*
X7277500Y-9231072D01*
X7263214Y-9202500D01*
X7234643Y-9188214D01*
X7191786Y-9188214D01*
X7163214Y-9202500D01*
X7148928Y-9216786D01*
X7463214Y-9388214D02*
X7434643Y-9373929D01*
X7420357Y-9359643D01*
X7406071Y-9331072D01*
X7406071Y-9245357D01*
X7420357Y-9216786D01*
X7434643Y-9202500D01*
X7463214Y-9188214D01*
X7506071Y-9188214D01*
X7534643Y-9202500D01*
X7548928Y-9216786D01*
X7563214Y-9245357D01*
X7563214Y-9331072D01*
X7548928Y-9359643D01*
X7534643Y-9373929D01*
X7506071Y-9388214D01*
X7463214Y-9388214D01*
X7734643Y-9388214D02*
X7706071Y-9373929D01*
X7691786Y-9345357D01*
X7691786Y-9088214D01*
X7963214Y-9373929D02*
X7934643Y-9388214D01*
X7877500Y-9388214D01*
X7848928Y-9373929D01*
X7834643Y-9345357D01*
X7834643Y-9231072D01*
X7848928Y-9202500D01*
X7877500Y-9188214D01*
X7934643Y-9188214D01*
X7963214Y-9202500D01*
X7977500Y-9231072D01*
X7977500Y-9259643D01*
X7834643Y-9288214D01*
X8091786Y-9373929D02*
X8120357Y-9388214D01*
X8177500Y-9388214D01*
X8206071Y-9373929D01*
X8220357Y-9345357D01*
X8220357Y-9331072D01*
X8206071Y-9302500D01*
X8177500Y-9288214D01*
X8134643Y-9288214D01*
X8106071Y-9273929D01*
X8091786Y-9245357D01*
X8091786Y-9231072D01*
X8106071Y-9202500D01*
X8134643Y-9188214D01*
X8177500Y-9188214D01*
X8206071Y-9202500D01*
X8320357Y-9502500D02*
X8334643Y-9488214D01*
X8363214Y-9445357D01*
X8377500Y-9416786D01*
X8391786Y-9373929D01*
X8406071Y-9302500D01*
X8406071Y-9245357D01*
X8391786Y-9173929D01*
X8377500Y-9131072D01*
X8363214Y-9102500D01*
X8334643Y-9059643D01*
X8320357Y-9045357D01*
X1247856Y-9683856D02*
X1247856Y-9613144D01*
X1177144Y-9613144D01*
X1177144Y-9683856D01*
X1247856Y-9683856D01*
X1706071Y-9784214D02*
X1534643Y-9784214D01*
X1620357Y-9784214D02*
X1620357Y-9484214D01*
X1591786Y-9527072D01*
X1563214Y-9555643D01*
X1534643Y-9569929D01*
X1834643Y-9755643D02*
X1848928Y-9769929D01*
X1834643Y-9784214D01*
X1820357Y-9769929D01*
X1834643Y-9755643D01*
X1834643Y-9784214D01*
X2034643Y-9484214D02*
X2063214Y-9484214D01*
X2091786Y-9498500D01*
X2106071Y-9512786D01*
X2120357Y-9541357D01*
X2134643Y-9598500D01*
X2134643Y-9669929D01*
X2120357Y-9727072D01*
X2106071Y-9755643D01*
X2091786Y-9769929D01*
X2063214Y-9784214D01*
X2034643Y-9784214D01*
X2006071Y-9769929D01*
X1991786Y-9755643D01*
X1977500Y-9727072D01*
X1963214Y-9669929D01*
X1963214Y-9598500D01*
X1977500Y-9541357D01*
X1991786Y-9512786D01*
X2006071Y-9498500D01*
X2034643Y-9484214D01*
X2320357Y-9484214D02*
X2348928Y-9484214D01*
X2377500Y-9498500D01*
X2391786Y-9512786D01*
X2406071Y-9541357D01*
X2420357Y-9598500D01*
X2420357Y-9669929D01*
X2406071Y-9727072D01*
X2391786Y-9755643D01*
X2377500Y-9769929D01*
X2348928Y-9784214D01*
X2320357Y-9784214D01*
X2291786Y-9769929D01*
X2277500Y-9755643D01*
X2263214Y-9727072D01*
X2248928Y-9669929D01*
X2248928Y-9598500D01*
X2263214Y-9541357D01*
X2277500Y-9512786D01*
X2291786Y-9498500D01*
X2320357Y-9484214D01*
X2606071Y-9484214D02*
X2634643Y-9484214D01*
X2663214Y-9498500D01*
X2677500Y-9512786D01*
X2691786Y-9541357D01*
X2706071Y-9598500D01*
X2706071Y-9669929D01*
X2691786Y-9727072D01*
X2677500Y-9755643D01*
X2663214Y-9769929D01*
X2634643Y-9784214D01*
X2606071Y-9784214D01*
X2577500Y-9769929D01*
X2563214Y-9755643D01*
X2548928Y-9727072D01*
X2534643Y-9669929D01*
X2534643Y-9598500D01*
X2548928Y-9541357D01*
X2563214Y-9512786D01*
X2577500Y-9498500D01*
X2606071Y-9484214D01*
X2834643Y-9784214D02*
X2834643Y-9584214D01*
X2834643Y-9612786D02*
X2848928Y-9598500D01*
X2877500Y-9584214D01*
X2920357Y-9584214D01*
X2948928Y-9598500D01*
X2963214Y-9627072D01*
X2963214Y-9784214D01*
X2963214Y-9627072D02*
X2977500Y-9598500D01*
X3006071Y-9584214D01*
X3048928Y-9584214D01*
X3077500Y-9598500D01*
X3091786Y-9627072D01*
X3091786Y-9784214D01*
X3234643Y-9784214D02*
X3234643Y-9584214D01*
X3234643Y-9612786D02*
X3248928Y-9598500D01*
X3277500Y-9584214D01*
X3320357Y-9584214D01*
X3348928Y-9598500D01*
X3363214Y-9627072D01*
X3363214Y-9784214D01*
X3363214Y-9627072D02*
X3377500Y-9598500D01*
X3406071Y-9584214D01*
X3448928Y-9584214D01*
X3477500Y-9598500D01*
X3491786Y-9627072D01*
X3491786Y-9784214D01*
X4077500Y-9469929D02*
X3820357Y-9855643D01*
X4463214Y-9484214D02*
X4491786Y-9484214D01*
X4520357Y-9498500D01*
X4534643Y-9512786D01*
X4548928Y-9541357D01*
X4563214Y-9598500D01*
X4563214Y-9669929D01*
X4548928Y-9727072D01*
X4534643Y-9755643D01*
X4520357Y-9769929D01*
X4491786Y-9784214D01*
X4463214Y-9784214D01*
X4434643Y-9769929D01*
X4420357Y-9755643D01*
X4406071Y-9727072D01*
X4391786Y-9669929D01*
X4391786Y-9598500D01*
X4406071Y-9541357D01*
X4420357Y-9512786D01*
X4434643Y-9498500D01*
X4463214Y-9484214D01*
X4691786Y-9755643D02*
X4706071Y-9769929D01*
X4691786Y-9784214D01*
X4677500Y-9769929D01*
X4691786Y-9755643D01*
X4691786Y-9784214D01*
X4891786Y-9484214D02*
X4920357Y-9484214D01*
X4948928Y-9498500D01*
X4963214Y-9512786D01*
X4977500Y-9541357D01*
X4991786Y-9598500D01*
X4991786Y-9669929D01*
X4977500Y-9727072D01*
X4963214Y-9755643D01*
X4948928Y-9769929D01*
X4920357Y-9784214D01*
X4891786Y-9784214D01*
X4863214Y-9769929D01*
X4848928Y-9755643D01*
X4834643Y-9727072D01*
X4820357Y-9669929D01*
X4820357Y-9598500D01*
X4834643Y-9541357D01*
X4848928Y-9512786D01*
X4863214Y-9498500D01*
X4891786Y-9484214D01*
X5091786Y-9484214D02*
X5277500Y-9484214D01*
X5177500Y-9598500D01*
X5220357Y-9598500D01*
X5248928Y-9612786D01*
X5263214Y-9627072D01*
X5277500Y-9655643D01*
X5277500Y-9727072D01*
X5263214Y-9755643D01*
X5248928Y-9769929D01*
X5220357Y-9784214D01*
X5134643Y-9784214D01*
X5106071Y-9769929D01*
X5091786Y-9755643D01*
X5420357Y-9784214D02*
X5477500Y-9784214D01*
X5506071Y-9769929D01*
X5520357Y-9755643D01*
X5548928Y-9712786D01*
X5563214Y-9655643D01*
X5563214Y-9541357D01*
X5548928Y-9512786D01*
X5534643Y-9498500D01*
X5506071Y-9484214D01*
X5448928Y-9484214D01*
X5420357Y-9498500D01*
X5406071Y-9512786D01*
X5391786Y-9541357D01*
X5391786Y-9612786D01*
X5406071Y-9641357D01*
X5420357Y-9655643D01*
X5448928Y-9669929D01*
X5506071Y-9669929D01*
X5534643Y-9655643D01*
X5548928Y-9641357D01*
X5563214Y-9612786D01*
X5820357Y-9584214D02*
X5820357Y-9784214D01*
X5748928Y-9469929D02*
X5677500Y-9684214D01*
X5863214Y-9684214D01*
X5963214Y-9484214D02*
X5963214Y-9541357D01*
X6077500Y-9484214D02*
X6077500Y-9541357D01*
X6520357Y-9898500D02*
X6506071Y-9884214D01*
X6477500Y-9841357D01*
X6463214Y-9812786D01*
X6448928Y-9769929D01*
X6434643Y-9698500D01*
X6434643Y-9641357D01*
X6448928Y-9569929D01*
X6463214Y-9527072D01*
X6477500Y-9498500D01*
X6506071Y-9455643D01*
X6520357Y-9441357D01*
X6677500Y-9612786D02*
X6648928Y-9598500D01*
X6634643Y-9584214D01*
X6620357Y-9555643D01*
X6620357Y-9541357D01*
X6634643Y-9512786D01*
X6648928Y-9498500D01*
X6677500Y-9484214D01*
X6734643Y-9484214D01*
X6763214Y-9498500D01*
X6777500Y-9512786D01*
X6791786Y-9541357D01*
X6791786Y-9555643D01*
X6777500Y-9584214D01*
X6763214Y-9598500D01*
X6734643Y-9612786D01*
X6677500Y-9612786D01*
X6648928Y-9627072D01*
X6634643Y-9641357D01*
X6620357Y-9669929D01*
X6620357Y-9727072D01*
X6634643Y-9755643D01*
X6648928Y-9769929D01*
X6677500Y-9784214D01*
X6734643Y-9784214D01*
X6763214Y-9769929D01*
X6777500Y-9755643D01*
X6791786Y-9727072D01*
X6791786Y-9669929D01*
X6777500Y-9641357D01*
X6763214Y-9627072D01*
X6734643Y-9612786D01*
X7148928Y-9784214D02*
X7148928Y-9484214D01*
X7277500Y-9784214D02*
X7277500Y-9627072D01*
X7263214Y-9598500D01*
X7234643Y-9584214D01*
X7191786Y-9584214D01*
X7163214Y-9598500D01*
X7148928Y-9612786D01*
X7463214Y-9784214D02*
X7434643Y-9769929D01*
X7420357Y-9755643D01*
X7406071Y-9727072D01*
X7406071Y-9641357D01*
X7420357Y-9612786D01*
X7434643Y-9598500D01*
X7463214Y-9584214D01*
X7506071Y-9584214D01*
X7534643Y-9598500D01*
X7548928Y-9612786D01*
X7563214Y-9641357D01*
X7563214Y-9727072D01*
X7548928Y-9755643D01*
X7534643Y-9769929D01*
X7506071Y-9784214D01*
X7463214Y-9784214D01*
X7734643Y-9784214D02*
X7706071Y-9769929D01*
X7691786Y-9741357D01*
X7691786Y-9484214D01*
X7963214Y-9769929D02*
X7934643Y-9784214D01*
X7877500Y-9784214D01*
X7848928Y-9769929D01*
X7834643Y-9741357D01*
X7834643Y-9627072D01*
X7848928Y-9598500D01*
X7877500Y-9584214D01*
X7934643Y-9584214D01*
X7963214Y-9598500D01*
X7977500Y-9627072D01*
X7977500Y-9655643D01*
X7834643Y-9684214D01*
X8091786Y-9769929D02*
X8120357Y-9784214D01*
X8177500Y-9784214D01*
X8206071Y-9769929D01*
X8220357Y-9741357D01*
X8220357Y-9727072D01*
X8206071Y-9698500D01*
X8177500Y-9684214D01*
X8134643Y-9684214D01*
X8106071Y-9669929D01*
X8091786Y-9641357D01*
X8091786Y-9627072D01*
X8106071Y-9598500D01*
X8134643Y-9584214D01*
X8177500Y-9584214D01*
X8206071Y-9598500D01*
X8320357Y-9898500D02*
X8334643Y-9884214D01*
X8363214Y-9841357D01*
X8377500Y-9812786D01*
X8391786Y-9769929D01*
X8406071Y-9698500D01*
X8406071Y-9641357D01*
X8391786Y-9569929D01*
X8377500Y-9527072D01*
X8363214Y-9498500D01*
X8334643Y-9455643D01*
X8320357Y-9441357D01*
X1186500Y-10120500D02*
X1262500Y-10044500D01*
X1186500Y-9968500D01*
X1110500Y-10044500D01*
X1186500Y-10120500D01*
X1706071Y-10180214D02*
X1534643Y-10180214D01*
X1620357Y-10180214D02*
X1620357Y-9880214D01*
X1591786Y-9923072D01*
X1563214Y-9951643D01*
X1534643Y-9965929D01*
X1834643Y-10151643D02*
X1848928Y-10165929D01*
X1834643Y-10180214D01*
X1820357Y-10165929D01*
X1834643Y-10151643D01*
X1834643Y-10180214D01*
X2120357Y-9880214D02*
X1977500Y-9880214D01*
X1963214Y-10023072D01*
X1977500Y-10008786D01*
X2006071Y-9994500D01*
X2077500Y-9994500D01*
X2106071Y-10008786D01*
X2120357Y-10023072D01*
X2134643Y-10051643D01*
X2134643Y-10123072D01*
X2120357Y-10151643D01*
X2106071Y-10165929D01*
X2077500Y-10180214D01*
X2006071Y-10180214D01*
X1977500Y-10165929D01*
X1963214Y-10151643D01*
X2248928Y-9908786D02*
X2263214Y-9894500D01*
X2291786Y-9880214D01*
X2363214Y-9880214D01*
X2391786Y-9894500D01*
X2406071Y-9908786D01*
X2420357Y-9937357D01*
X2420357Y-9965929D01*
X2406071Y-10008786D01*
X2234643Y-10180214D01*
X2420357Y-10180214D01*
X2606071Y-9880214D02*
X2634643Y-9880214D01*
X2663214Y-9894500D01*
X2677500Y-9908786D01*
X2691786Y-9937357D01*
X2706071Y-9994500D01*
X2706071Y-10065929D01*
X2691786Y-10123072D01*
X2677500Y-10151643D01*
X2663214Y-10165929D01*
X2634643Y-10180214D01*
X2606071Y-10180214D01*
X2577500Y-10165929D01*
X2563214Y-10151643D01*
X2548928Y-10123072D01*
X2534643Y-10065929D01*
X2534643Y-9994500D01*
X2548928Y-9937357D01*
X2563214Y-9908786D01*
X2577500Y-9894500D01*
X2606071Y-9880214D01*
X2834643Y-10180214D02*
X2834643Y-9980214D01*
X2834643Y-10008786D02*
X2848928Y-9994500D01*
X2877500Y-9980214D01*
X2920357Y-9980214D01*
X2948928Y-9994500D01*
X2963214Y-10023072D01*
X2963214Y-10180214D01*
X2963214Y-10023072D02*
X2977500Y-9994500D01*
X3006071Y-9980214D01*
X3048928Y-9980214D01*
X3077500Y-9994500D01*
X3091786Y-10023072D01*
X3091786Y-10180214D01*
X3234643Y-10180214D02*
X3234643Y-9980214D01*
X3234643Y-10008786D02*
X3248928Y-9994500D01*
X3277500Y-9980214D01*
X3320357Y-9980214D01*
X3348928Y-9994500D01*
X3363214Y-10023072D01*
X3363214Y-10180214D01*
X3363214Y-10023072D02*
X3377500Y-9994500D01*
X3406071Y-9980214D01*
X3448928Y-9980214D01*
X3477500Y-9994500D01*
X3491786Y-10023072D01*
X3491786Y-10180214D01*
X4077500Y-9865929D02*
X3820357Y-10251643D01*
X4463214Y-9880214D02*
X4491786Y-9880214D01*
X4520357Y-9894500D01*
X4534643Y-9908786D01*
X4548928Y-9937357D01*
X4563214Y-9994500D01*
X4563214Y-10065929D01*
X4548928Y-10123072D01*
X4534643Y-10151643D01*
X4520357Y-10165929D01*
X4491786Y-10180214D01*
X4463214Y-10180214D01*
X4434643Y-10165929D01*
X4420357Y-10151643D01*
X4406071Y-10123072D01*
X4391786Y-10065929D01*
X4391786Y-9994500D01*
X4406071Y-9937357D01*
X4420357Y-9908786D01*
X4434643Y-9894500D01*
X4463214Y-9880214D01*
X4691786Y-10151643D02*
X4706071Y-10165929D01*
X4691786Y-10180214D01*
X4677500Y-10165929D01*
X4691786Y-10151643D01*
X4691786Y-10180214D01*
X4891786Y-9880214D02*
X4920357Y-9880214D01*
X4948928Y-9894500D01*
X4963214Y-9908786D01*
X4977500Y-9937357D01*
X4991786Y-9994500D01*
X4991786Y-10065929D01*
X4977500Y-10123072D01*
X4963214Y-10151643D01*
X4948928Y-10165929D01*
X4920357Y-10180214D01*
X4891786Y-10180214D01*
X4863214Y-10165929D01*
X4848928Y-10151643D01*
X4834643Y-10123072D01*
X4820357Y-10065929D01*
X4820357Y-9994500D01*
X4834643Y-9937357D01*
X4848928Y-9908786D01*
X4863214Y-9894500D01*
X4891786Y-9880214D01*
X5263214Y-9880214D02*
X5120357Y-9880214D01*
X5106071Y-10023072D01*
X5120357Y-10008786D01*
X5148928Y-9994500D01*
X5220357Y-9994500D01*
X5248928Y-10008786D01*
X5263214Y-10023072D01*
X5277500Y-10051643D01*
X5277500Y-10123072D01*
X5263214Y-10151643D01*
X5248928Y-10165929D01*
X5220357Y-10180214D01*
X5148928Y-10180214D01*
X5120357Y-10165929D01*
X5106071Y-10151643D01*
X5420357Y-10180214D02*
X5477500Y-10180214D01*
X5506071Y-10165929D01*
X5520357Y-10151643D01*
X5548928Y-10108786D01*
X5563214Y-10051643D01*
X5563214Y-9937357D01*
X5548928Y-9908786D01*
X5534643Y-9894500D01*
X5506071Y-9880214D01*
X5448928Y-9880214D01*
X5420357Y-9894500D01*
X5406071Y-9908786D01*
X5391786Y-9937357D01*
X5391786Y-10008786D01*
X5406071Y-10037357D01*
X5420357Y-10051643D01*
X5448928Y-10065929D01*
X5506071Y-10065929D01*
X5534643Y-10051643D01*
X5548928Y-10037357D01*
X5563214Y-10008786D01*
X5734643Y-10008786D02*
X5706071Y-9994500D01*
X5691786Y-9980214D01*
X5677500Y-9951643D01*
X5677500Y-9937357D01*
X5691786Y-9908786D01*
X5706071Y-9894500D01*
X5734643Y-9880214D01*
X5791786Y-9880214D01*
X5820357Y-9894500D01*
X5834643Y-9908786D01*
X5848928Y-9937357D01*
X5848928Y-9951643D01*
X5834643Y-9980214D01*
X5820357Y-9994500D01*
X5791786Y-10008786D01*
X5734643Y-10008786D01*
X5706071Y-10023072D01*
X5691786Y-10037357D01*
X5677500Y-10065929D01*
X5677500Y-10123072D01*
X5691786Y-10151643D01*
X5706071Y-10165929D01*
X5734643Y-10180214D01*
X5791786Y-10180214D01*
X5820357Y-10165929D01*
X5834643Y-10151643D01*
X5848928Y-10123072D01*
X5848928Y-10065929D01*
X5834643Y-10037357D01*
X5820357Y-10023072D01*
X5791786Y-10008786D01*
X5963214Y-9880214D02*
X5963214Y-9937357D01*
X6077500Y-9880214D02*
X6077500Y-9937357D01*
X6520357Y-10294500D02*
X6506071Y-10280214D01*
X6477500Y-10237357D01*
X6463214Y-10208786D01*
X6448928Y-10165929D01*
X6434643Y-10094500D01*
X6434643Y-10037357D01*
X6448928Y-9965929D01*
X6463214Y-9923072D01*
X6477500Y-9894500D01*
X6506071Y-9851643D01*
X6520357Y-9837357D01*
X6620357Y-9908786D02*
X6634643Y-9894500D01*
X6663214Y-9880214D01*
X6734643Y-9880214D01*
X6763214Y-9894500D01*
X6777500Y-9908786D01*
X6791786Y-9937357D01*
X6791786Y-9965929D01*
X6777500Y-10008786D01*
X6606071Y-10180214D01*
X6791786Y-10180214D01*
X7148928Y-10180214D02*
X7148928Y-9880214D01*
X7277500Y-10180214D02*
X7277500Y-10023072D01*
X7263214Y-9994500D01*
X7234643Y-9980214D01*
X7191786Y-9980214D01*
X7163214Y-9994500D01*
X7148928Y-10008786D01*
X7463214Y-10180214D02*
X7434643Y-10165929D01*
X7420357Y-10151643D01*
X7406071Y-10123072D01*
X7406071Y-10037357D01*
X7420357Y-10008786D01*
X7434643Y-9994500D01*
X7463214Y-9980214D01*
X7506071Y-9980214D01*
X7534643Y-9994500D01*
X7548928Y-10008786D01*
X7563214Y-10037357D01*
X7563214Y-10123072D01*
X7548928Y-10151643D01*
X7534643Y-10165929D01*
X7506071Y-10180214D01*
X7463214Y-10180214D01*
X7734643Y-10180214D02*
X7706071Y-10165929D01*
X7691786Y-10137357D01*
X7691786Y-9880214D01*
X7963214Y-10165929D02*
X7934643Y-10180214D01*
X7877500Y-10180214D01*
X7848928Y-10165929D01*
X7834643Y-10137357D01*
X7834643Y-10023072D01*
X7848928Y-9994500D01*
X7877500Y-9980214D01*
X7934643Y-9980214D01*
X7963214Y-9994500D01*
X7977500Y-10023072D01*
X7977500Y-10051643D01*
X7834643Y-10080214D01*
X8091786Y-10165929D02*
X8120357Y-10180214D01*
X8177500Y-10180214D01*
X8206071Y-10165929D01*
X8220357Y-10137357D01*
X8220357Y-10123072D01*
X8206071Y-10094500D01*
X8177500Y-10080214D01*
X8134643Y-10080214D01*
X8106071Y-10065929D01*
X8091786Y-10037357D01*
X8091786Y-10023072D01*
X8106071Y-9994500D01*
X8134643Y-9980214D01*
X8177500Y-9980214D01*
X8206071Y-9994500D01*
X8320357Y-10294500D02*
X8334643Y-10280214D01*
X8363214Y-10237357D01*
X8377500Y-10208786D01*
X8391786Y-10165929D01*
X8406071Y-10094500D01*
X8406071Y-10037357D01*
X8391786Y-9965929D01*
X8377500Y-9923072D01*
X8363214Y-9894500D01*
X8334643Y-9851643D01*
X8320357Y-9837357D01*
M02*
